<svg xmlns="http://www.w3.org/2000/svg" xmlns:xlink="http://www.w3.org/1999/xlink" width="500" zoomAndPan="magnify" viewBox="0 0 375 149.999998" height="200" preserveAspectRatio="xMidYMid meet" version="1.0"><defs><g/><clipPath id="a460a99e23"><path d="M 91 45.976562 L 104 45.976562 L 104 62 L 91 62 Z M 91 45.976562 " clip-rule="nonzero"/></clipPath><clipPath id="06bedb27a6"><path d="M 100 60 L 110.308594 60 L 110.308594 72 L 100 72 Z M 100 60 " clip-rule="nonzero"/></clipPath><clipPath id="8de7615874"><path d="M 35 14 L 77 14 L 77 65 L 35 65 Z M 35 14 " clip-rule="nonzero"/></clipPath><clipPath id="61cb7f68b2"><path d="M 51.410156 0 L 145.28125 49.230469 L 120.464844 96.546875 L 26.59375 47.316406 Z M 51.410156 0 " clip-rule="nonzero"/></clipPath><clipPath id="fff91f4480"><path d="M 51.410156 0 L 145.28125 49.230469 L 120.464844 96.546875 L 26.59375 47.316406 Z M 51.410156 0 " clip-rule="nonzero"/></clipPath><clipPath id="047232a743"><path d="M 51.410156 0 L 145.28125 49.230469 L 120.464844 96.546875 L 26.59375 47.316406 Z M 51.410156 0 " clip-rule="nonzero"/></clipPath><clipPath id="8e3e2fe1f7"><path d="M 35 15 L 60 15 L 60 65 L 35 65 Z M 35 15 " clip-rule="nonzero"/></clipPath><clipPath id="6cafe3e1af"><path d="M 51.410156 0 L 145.28125 49.230469 L 120.464844 96.546875 L 26.59375 47.316406 Z M 51.410156 0 " clip-rule="nonzero"/></clipPath><clipPath id="57dd66daff"><path d="M 51.410156 0 L 145.28125 49.230469 L 120.464844 96.546875 L 26.59375 47.316406 Z M 51.410156 0 " clip-rule="nonzero"/></clipPath><clipPath id="bc3ff15d11"><path d="M 51.410156 0 L 145.28125 49.230469 L 120.464844 96.546875 L 26.59375 47.316406 Z M 51.410156 0 " clip-rule="nonzero"/></clipPath><clipPath id="21f9b99bd8"><path d="M 90 44 L 137 44 L 137 89 L 90 89 Z M 90 44 " clip-rule="nonzero"/></clipPath><clipPath id="be238648d2"><path d="M 51.410156 0 L 145.28125 49.230469 L 120.464844 96.546875 L 26.59375 47.316406 Z M 51.410156 0 " clip-rule="nonzero"/></clipPath><clipPath id="4a1de94f05"><path d="M 51.410156 0 L 145.28125 49.230469 L 120.464844 96.546875 L 26.59375 47.316406 Z M 51.410156 0 " clip-rule="nonzero"/></clipPath><clipPath id="0e4197f89e"><path d="M 51.410156 0 L 145.28125 49.230469 L 120.464844 96.546875 L 26.59375 47.316406 Z M 51.410156 0 " clip-rule="nonzero"/></clipPath><clipPath id="6850b1e2a1"><path d="M 90 61 L 137 61 L 137 89 L 90 89 Z M 90 61 " clip-rule="nonzero"/></clipPath><clipPath id="878cc0c089"><path d="M 51.410156 0 L 145.28125 49.230469 L 120.464844 96.546875 L 26.59375 47.316406 Z M 51.410156 0 " clip-rule="nonzero"/></clipPath><clipPath id="31e0de4c07"><path d="M 51.410156 0 L 145.28125 49.230469 L 120.464844 96.546875 L 26.59375 47.316406 Z M 51.410156 0 " clip-rule="nonzero"/></clipPath><clipPath id="8ed5e923e3"><path d="M 51.410156 0 L 145.28125 49.230469 L 120.464844 96.546875 L 26.59375 47.316406 Z M 51.410156 0 " clip-rule="nonzero"/></clipPath><clipPath id="cd06fcdad2"><path d="M 62 23 L 114 23 L 114 68 L 62 68 Z M 62 23 " clip-rule="nonzero"/></clipPath><clipPath id="81a18cb8c2"><path d="M 51.410156 0 L 145.28125 49.230469 L 120.464844 96.546875 L 26.59375 47.316406 Z M 51.410156 0 " clip-rule="nonzero"/></clipPath><clipPath id="f97f02fb85"><path d="M 51.410156 0 L 145.28125 49.230469 L 120.464844 96.546875 L 26.59375 47.316406 Z M 51.410156 0 " clip-rule="nonzero"/></clipPath><clipPath id="c43f886766"><path d="M 51.410156 0 L 145.28125 49.230469 L 120.464844 96.546875 L 26.59375 47.316406 Z M 51.410156 0 " clip-rule="nonzero"/></clipPath><clipPath id="33f706fb93"><path d="M 61 23 L 77 23 L 77 55 L 61 55 Z M 61 23 " clip-rule="nonzero"/></clipPath><clipPath id="1fa3a32a1d"><path d="M 51.410156 0 L 145.28125 49.230469 L 120.464844 96.546875 L 26.59375 47.316406 Z M 51.410156 0 " clip-rule="nonzero"/></clipPath><clipPath id="12c70cb4bb"><path d="M 51.410156 0 L 145.28125 49.230469 L 120.464844 96.546875 L 26.59375 47.316406 Z M 51.410156 0 " clip-rule="nonzero"/></clipPath><clipPath id="3c6d4544ec"><path d="M 51.410156 0 L 145.28125 49.230469 L 120.464844 96.546875 L 26.59375 47.316406 Z M 51.410156 0 " clip-rule="nonzero"/></clipPath><clipPath id="0efc513066"><path d="M 90 44 L 114 44 L 114 70 L 90 70 Z M 90 44 " clip-rule="nonzero"/></clipPath><clipPath id="68d58d2105"><path d="M 51.410156 0 L 145.28125 49.230469 L 120.464844 96.546875 L 26.59375 47.316406 Z M 51.410156 0 " clip-rule="nonzero"/></clipPath><clipPath id="af7f4aa7b8"><path d="M 51.410156 0 L 145.28125 49.230469 L 120.464844 96.546875 L 26.59375 47.316406 Z M 51.410156 0 " clip-rule="nonzero"/></clipPath><clipPath id="c739c01e28"><path d="M 51.410156 0 L 145.28125 49.230469 L 120.464844 96.546875 L 26.59375 47.316406 Z M 51.410156 0 " clip-rule="nonzero"/></clipPath><clipPath id="cb9d807de5"><path d="M 62 16 L 116 16 L 116 71 L 62 71 Z M 62 16 " clip-rule="nonzero"/></clipPath><clipPath id="ba8f848df6"><path d="M 51.410156 0 L 145.28125 49.230469 L 120.464844 96.546875 L 26.59375 47.316406 Z M 51.410156 0 " clip-rule="nonzero"/></clipPath><clipPath id="e6f38e19ae"><path d="M 51.410156 0 L 145.28125 49.230469 L 120.464844 96.546875 L 26.59375 47.316406 Z M 51.410156 0 " clip-rule="nonzero"/></clipPath><clipPath id="66a49b964d"><path d="M 51.410156 0 L 145.28125 49.230469 L 120.464844 96.546875 L 26.59375 47.316406 Z M 51.410156 0 " clip-rule="nonzero"/></clipPath><clipPath id="4a63288610"><path d="M 62 50 L 77 50 L 77 61 L 62 61 Z M 62 50 " clip-rule="nonzero"/></clipPath><clipPath id="8e0d82899d"><path d="M 51.410156 0 L 145.28125 49.230469 L 120.464844 96.546875 L 26.59375 47.316406 Z M 51.410156 0 " clip-rule="nonzero"/></clipPath><clipPath id="acb08a2e03"><path d="M 51.410156 0 L 145.28125 49.230469 L 120.464844 96.546875 L 26.59375 47.316406 Z M 51.410156 0 " clip-rule="nonzero"/></clipPath><clipPath id="437e6006d1"><path d="M 51.410156 0 L 145.28125 49.230469 L 120.464844 96.546875 L 26.59375 47.316406 Z M 51.410156 0 " clip-rule="nonzero"/></clipPath><clipPath id="2926bc06c2"><path d="M 76 35 L 116 35 L 116 71 L 76 71 Z M 76 35 " clip-rule="nonzero"/></clipPath><clipPath id="4061468558"><path d="M 51.410156 0 L 145.28125 49.230469 L 120.464844 96.546875 L 26.59375 47.316406 Z M 51.410156 0 " clip-rule="nonzero"/></clipPath><clipPath id="1b925ca166"><path d="M 51.410156 0 L 145.28125 49.230469 L 120.464844 96.546875 L 26.59375 47.316406 Z M 51.410156 0 " clip-rule="nonzero"/></clipPath><clipPath id="6e917d65ab"><path d="M 51.410156 0 L 145.28125 49.230469 L 120.464844 96.546875 L 26.59375 47.316406 Z M 51.410156 0 " clip-rule="nonzero"/></clipPath><clipPath id="bec66022b2"><path d="M 84 31 L 100 31 L 100 51 L 84 51 Z M 84 31 " clip-rule="nonzero"/></clipPath><clipPath id="6dbc36802c"><path d="M 51.410156 0 L 145.28125 49.230469 L 120.464844 96.546875 L 26.59375 47.316406 Z M 51.410156 0 " clip-rule="nonzero"/></clipPath><clipPath id="0e6dba2b6e"><path d="M 51.410156 0 L 145.28125 49.230469 L 120.464844 96.546875 L 26.59375 47.316406 Z M 51.410156 0 " clip-rule="nonzero"/></clipPath><clipPath id="10c00b4083"><path d="M 51.410156 0 L 145.28125 49.230469 L 120.464844 96.546875 L 26.59375 47.316406 Z M 51.410156 0 " clip-rule="nonzero"/></clipPath><clipPath id="5a352ce22d"><path d="M 81 52 L 86 52 L 86 57 L 81 57 Z M 81 52 " clip-rule="nonzero"/></clipPath><clipPath id="5d7b96ee35"><path d="M 51.410156 0 L 145.28125 49.230469 L 120.464844 96.546875 L 26.59375 47.316406 Z M 51.410156 0 " clip-rule="nonzero"/></clipPath><clipPath id="0d5c2ce3fe"><path d="M 51.410156 0 L 145.28125 49.230469 L 120.464844 96.546875 L 26.59375 47.316406 Z M 51.410156 0 " clip-rule="nonzero"/></clipPath><clipPath id="cfb9285a27"><path d="M 51.410156 0 L 145.28125 49.230469 L 120.464844 96.546875 L 26.59375 47.316406 Z M 51.410156 0 " clip-rule="nonzero"/></clipPath><clipPath id="1961ff5808"><path d="M 108 56 L 125 56 L 125 71 L 108 71 Z M 108 56 " clip-rule="nonzero"/></clipPath><clipPath id="468dbd035f"><path d="M 51.410156 0 L 145.28125 49.230469 L 120.464844 96.546875 L 26.59375 47.316406 Z M 51.410156 0 " clip-rule="nonzero"/></clipPath><clipPath id="f7cc785b7c"><path d="M 51.410156 0 L 145.28125 49.230469 L 120.464844 96.546875 L 26.59375 47.316406 Z M 51.410156 0 " clip-rule="nonzero"/></clipPath><clipPath id="888b551ff4"><path d="M 51.410156 0 L 145.28125 49.230469 L 120.464844 96.546875 L 26.59375 47.316406 Z M 51.410156 0 " clip-rule="nonzero"/></clipPath><clipPath id="57e520026f"><path d="M 104 70 L 109 70 L 109 75 L 104 75 Z M 104 70 " clip-rule="nonzero"/></clipPath><clipPath id="cf84b17f28"><path d="M 51.410156 0 L 145.28125 49.230469 L 120.464844 96.546875 L 26.59375 47.316406 Z M 51.410156 0 " clip-rule="nonzero"/></clipPath><clipPath id="9ca1cf4aae"><path d="M 51.410156 0 L 145.28125 49.230469 L 120.464844 96.546875 L 26.59375 47.316406 Z M 51.410156 0 " clip-rule="nonzero"/></clipPath><clipPath id="15fc379346"><path d="M 51.410156 0 L 145.28125 49.230469 L 120.464844 96.546875 L 26.59375 47.316406 Z M 51.410156 0 " clip-rule="nonzero"/></clipPath><clipPath id="67dc66bc9a"><path d="M 51 24 L 63 24 L 63 40 L 51 40 Z M 51 24 " clip-rule="nonzero"/></clipPath><clipPath id="2392d13f23"><path d="M 51.410156 0 L 145.28125 49.230469 L 120.464844 96.546875 L 26.59375 47.316406 Z M 51.410156 0 " clip-rule="nonzero"/></clipPath><clipPath id="e2a3cf2639"><path d="M 51.410156 0 L 145.28125 49.230469 L 120.464844 96.546875 L 26.59375 47.316406 Z M 51.410156 0 " clip-rule="nonzero"/></clipPath><clipPath id="cfadfec17a"><path d="M 51.410156 0 L 145.28125 49.230469 L 120.464844 96.546875 L 26.59375 47.316406 Z M 51.410156 0 " clip-rule="nonzero"/></clipPath><clipPath id="dca10b4904"><path d="M 53 41 L 57 41 L 57 45 L 53 45 Z M 53 41 " clip-rule="nonzero"/></clipPath><clipPath id="9049288761"><path d="M 51.410156 0 L 145.28125 49.230469 L 120.464844 96.546875 L 26.59375 47.316406 Z M 51.410156 0 " clip-rule="nonzero"/></clipPath><clipPath id="a684c6907d"><path d="M 51.410156 0 L 145.28125 49.230469 L 120.464844 96.546875 L 26.59375 47.316406 Z M 51.410156 0 " clip-rule="nonzero"/></clipPath><clipPath id="ece6a3a79b"><path d="M 51.410156 0 L 145.28125 49.230469 L 120.464844 96.546875 L 26.59375 47.316406 Z M 51.410156 0 " clip-rule="nonzero"/></clipPath></defs><path fill="#ffcfca" d="M 59.519531 124.359375 C 59.519531 124.359375 62.40625 127.679688 68.605469 127.707031 C 78.433594 127.746094 80.949219 121.789062 80.949219 121.789062 C 80.949219 121.789062 88.601562 125.242188 93.535156 120.0625 C 98.472656 114.882812 97.289062 108.320312 97.289062 108.320312 C 100.835938 106.199219 103.289062 102.34375 103.699219 98.234375 C 104.113281 94.125 102.476562 89.863281 99.421875 87.078125 C 100.210938 80.675781 94.691406 74.210938 88.238281 73.980469 C 87.628906 68.46875 84.144531 63.351562 79.234375 60.757812 C 74.320312 58.167969 68.125 58.179688 63.222656 60.789062 C 61.496094 59.035156 60.214844 57.601562 56.414062 57.296875 C 50.234375 56.796875 47.285156 60.789062 47.285156 60.789062 C 42.382812 58.179688 36.1875 58.167969 31.277344 60.757812 C 26.363281 63.351562 22.878906 68.46875 22.269531 73.980469 C 15.816406 74.210938 10.296875 80.675781 11.085938 87.078125 C 8.03125 89.859375 6.394531 94.125 6.808594 98.234375 C 7.222656 102.34375 9.671875 106.199219 13.21875 108.320312 C 13.21875 108.320312 12.035156 114.882812 16.972656 120.0625 C 21.910156 125.242188 29.558594 121.789062 29.558594 121.789062 C 29.558594 121.789062 34.753906 128.324219 41.902344 127.707031 C 48.078125 127.171875 50.988281 124.359375 50.988281 124.359375 C 50.988281 124.359375 54.292969 126.796875 59.519531 124.359375 Z M 59.519531 124.359375 " fill-opacity="1" fill-rule="nonzero"/><path fill="#ffa59b" d="M 24.375 86.097656 C 24.417969 82.558594 27.570312 80.292969 30.980469 80.914062 C 31.757812 81.054688 32.488281 80.585938 32.507812 79.753906 C 32.546875 78.085938 33.105469 76.519531 34.371094 75.421875 C 35.863281 74.128906 37.855469 73.539062 39.785156 74.015625 C 41.292969 74.386719 41.933594 72.066406 40.425781 71.695312 C 37.699219 71.019531 34.980469 71.796875 32.839844 73.570312 C 31.003906 75.09375 30.148438 77.394531 30.09375 79.753906 L 31.621094 78.589844 C 28.984375 78.109375 26.445312 78.605469 24.414062 80.425781 C 22.796875 81.878906 21.988281 83.953125 21.964844 86.097656 C 21.945312 87.648438 24.355469 87.648438 24.375 86.097656 Z M 24.375 86.097656 " fill-opacity="1" fill-rule="nonzero"/><path fill="#ffa59b" d="M 24.261719 111.070312 C 25.558594 113.503906 27.363281 115.71875 29.734375 117.171875 C 32.242188 118.710938 35.390625 119.277344 38.222656 118.386719 C 39.699219 117.921875 39.066406 115.597656 37.582031 116.0625 C 32.707031 117.597656 28.484375 113.875 26.34375 109.855469 C 25.617188 108.484375 23.535156 109.703125 24.261719 111.070312 Z M 24.261719 111.070312 " fill-opacity="1" fill-rule="nonzero"/><path fill="#ffa59b" d="M 78.355469 73.511719 C 79.070312 73.859375 79.777344 74.230469 80.449219 74.660156 C 80.769531 74.863281 81.082031 75.078125 81.382812 75.308594 C 81.25 75.207031 81.394531 75.320312 81.453125 75.363281 C 81.527344 75.425781 81.597656 75.484375 81.671875 75.546875 C 81.828125 75.679688 81.976562 75.8125 82.125 75.953125 C 82.375 76.191406 82.613281 76.441406 82.835938 76.707031 C 82.890625 76.773438 82.949219 76.839844 83.003906 76.90625 C 83.21875 77.171875 82.871094 76.714844 83.066406 76.996094 C 83.164062 77.136719 83.265625 77.277344 83.355469 77.421875 C 83.542969 77.714844 83.710938 78.015625 83.855469 78.328125 C 83.871094 78.363281 83.984375 78.671875 83.898438 78.417969 C 83.925781 78.5 83.957031 78.578125 83.988281 78.660156 C 84.050781 78.839844 84.105469 79.019531 84.15625 79.203125 C 84.320312 79.8125 85.019531 80.246094 85.636719 80.042969 C 86.257812 79.84375 86.65625 79.214844 86.480469 78.5625 C 85.554688 75.148438 82.617188 72.90625 79.570312 71.429688 C 79.003906 71.15625 78.242188 71.257812 77.921875 71.863281 C 77.636719 72.402344 77.75 73.214844 78.355469 73.511719 Z M 78.355469 73.511719 " fill-opacity="1" fill-rule="nonzero"/><path fill="#ffa59b" d="M 38.472656 93.445312 C 38.472656 93.445312 37.90625 91.472656 41.574219 90.800781 C 45.242188 90.128906 49.542969 90.777344 48.328125 93.699219 C 47.109375 96.621094 37.9375 96.640625 38.472656 93.445312 Z M 38.472656 93.445312 " fill-opacity="1" fill-rule="nonzero"/><path fill="#ffa59b" d="M 75.617188 89.753906 C 75.617188 89.753906 75.082031 87.773438 78.761719 87.164062 C 82.445312 86.554688 86.726562 87.273438 85.464844 90.175781 C 84.199219 93.074219 75.027344 92.941406 75.617188 89.753906 Z M 75.617188 89.753906 " fill-opacity="1" fill-rule="nonzero"/><path fill="#ffffff" d="M 29.453125 74.683594 C 28.960938 75.3125 26.03125 76.625 25.613281 72.402344 C 25.195312 68.183594 30.789062 61.640625 36.375 62.222656 C 41.960938 62.804688 36.160156 66.746094 33.714844 68.707031 C 31.265625 70.664062 30.621094 73.171875 29.453125 74.683594 Z M 29.453125 74.683594 " fill-opacity="1" fill-rule="nonzero"/><path fill="#ffffff" d="M 75.355469 63.769531 C 74.460938 61.929688 70.925781 61.816406 68.945312 62.121094 C 68.722656 62.152344 68.488281 62.203125 68.332031 62.363281 C 68.125 62.578125 68.132812 62.9375 68.277344 63.199219 C 68.417969 63.460938 68.667969 63.644531 68.921875 63.804688 C 70.707031 64.941406 72.964844 65.304688 75.015625 64.785156 C 75.257812 64.722656 75.539062 64.605469 75.585938 64.359375 C 75.605469 64.238281 75.5625 64.113281 75.503906 64.003906 C 75.167969 63.359375 74.34375 63.011719 73.644531 63.214844 " fill-opacity="1" fill-rule="nonzero"/><path fill="#ffffff" d="M 76.394531 63.164062 C 75.75 61.890625 74.300781 61.25 72.96875 60.996094 C 71.566406 60.730469 70.140625 60.730469 68.734375 60.941406 C 68.226562 61.015625 67.769531 61.199219 67.417969 61.585938 C 66.96875 62.082031 66.867188 62.800781 67.070312 63.425781 C 67.386719 64.398438 68.398438 64.964844 69.277344 65.359375 C 71.070312 66.171875 73.046875 66.414062 74.980469 66.023438 C 75.589844 65.898438 76.203125 65.679688 76.554688 65.125 C 76.949219 64.492188 76.8125 63.71875 76.382812 63.144531 C 75.667969 62.191406 74.492188 61.753906 73.328125 62.050781 C 72.714844 62.203125 72.289062 62.921875 72.488281 63.53125 C 72.691406 64.164062 73.3125 64.539062 73.96875 64.371094 C 74.191406 64.316406 73.988281 64.355469 73.941406 64.359375 C 74.003906 64.355469 74.070312 64.359375 74.136719 64.355469 C 74.089844 64.359375 73.886719 64.292969 74.109375 64.355469 C 74.15625 64.367188 74.207031 64.386719 74.253906 64.398438 C 74.410156 64.425781 74.109375 64.296875 74.238281 64.390625 C 74.269531 64.414062 74.453125 64.511719 74.324219 64.429688 C 74.210938 64.355469 74.335938 64.445312 74.355469 64.460938 C 74.609375 64.664062 74.1875 64.296875 74.417969 64.519531 C 74.574219 64.675781 74.316406 65.105469 74.621094 64.101562 L 74.769531 63.597656 C 74.667969 63.652344 74.660156 63.65625 74.738281 63.617188 C 74.863281 63.578125 74.523438 63.660156 74.460938 63.675781 C 74.300781 63.710938 74.144531 63.738281 73.980469 63.761719 C 74.175781 63.734375 73.972656 63.761719 73.9375 63.765625 C 73.835938 63.773438 73.734375 63.785156 73.632812 63.792969 C 73.328125 63.8125 73.023438 63.8125 72.722656 63.796875 C 72.558594 63.789062 72.394531 63.773438 72.234375 63.757812 C 72.261719 63.757812 72.394531 63.78125 72.253906 63.757812 C 72.152344 63.742188 72.050781 63.726562 71.949219 63.707031 C 71.652344 63.652344 71.355469 63.574219 71.066406 63.484375 C 70.910156 63.433594 70.753906 63.382812 70.605469 63.324219 C 70.546875 63.300781 70.488281 63.277344 70.433594 63.253906 C 70.621094 63.335938 70.277344 63.175781 70.277344 63.175781 C 70.019531 63.054688 69.769531 62.914062 69.53125 62.757812 C 69.472656 62.71875 69.40625 62.679688 69.34375 62.632812 C 69.507812 62.761719 69.34375 62.632812 69.332031 62.605469 C 69.394531 62.722656 69.324219 62.679688 69.316406 62.585938 C 69.324219 62.683594 69.382812 62.757812 69.367188 62.871094 C 69.335938 63.089844 69.199219 63.164062 69.058594 63.28125 C 68.878906 63.433594 68.933594 63.335938 69.042969 63.324219 C 69.160156 63.304688 69.296875 63.285156 69.414062 63.257812 C 69.386719 63.261719 69.109375 63.292969 69.324219 63.269531 C 69.375 63.265625 69.429688 63.257812 69.484375 63.253906 C 69.59375 63.242188 69.703125 63.230469 69.816406 63.222656 C 70.296875 63.1875 70.777344 63.179688 71.257812 63.203125 C 71.476562 63.210938 71.695312 63.226562 71.910156 63.25 C 71.972656 63.257812 72.035156 63.265625 72.097656 63.273438 C 71.820312 63.242188 71.992188 63.257812 72.054688 63.269531 C 72.191406 63.292969 72.328125 63.3125 72.464844 63.34375 C 72.710938 63.394531 72.960938 63.457031 73.203125 63.539062 C 73.257812 63.554688 73.3125 63.574219 73.363281 63.597656 C 73.390625 63.605469 73.617188 63.71875 73.457031 63.632812 C 73.304688 63.546875 73.464844 63.636719 73.503906 63.65625 C 73.5625 63.6875 73.625 63.71875 73.683594 63.75 C 73.789062 63.808594 73.882812 63.882812 73.988281 63.941406 C 74.101562 64.007812 73.890625 63.882812 73.894531 63.871094 C 73.898438 63.871094 74.058594 64.015625 74.066406 64.023438 C 74.09375 64.046875 74.117188 64.078125 74.144531 64.101562 C 74.316406 64.269531 74.105469 64.113281 74.121094 64.058594 C 74.113281 64.085938 74.300781 64.347656 74.3125 64.378906 C 74.597656 64.941406 75.4375 65.148438 75.960938 64.8125 C 76.539062 64.441406 76.699219 63.765625 76.394531 63.164062 Z M 76.394531 63.164062 " fill-opacity="1" fill-rule="nonzero"/><path fill="#ffbdc5" d="M 91.246094 103.359375 C 90.578125 104.039062 89.550781 105.96875 92.285156 107.035156 C 95.015625 108.097656 98.96875 105.496094 100.71875 100.929688 C 102.46875 96.367188 100.039062 95.15625 98.082031 95.148438 C 96.121094 95.136719 93.941406 100.601562 91.25 103.359375 Z M 91.246094 103.359375 " fill-opacity="1" fill-rule="nonzero"/><path fill="#ffa59b" d="M 58.351562 68.46875 C 58.550781 68.53125 58.742188 68.605469 58.9375 68.683594 C 58.742188 68.605469 58.960938 68.691406 59.035156 68.726562 C 59.113281 68.761719 59.191406 68.796875 59.269531 68.835938 C 59.625 69.015625 59.972656 69.214844 60.304688 69.433594 C 60.390625 69.492188 60.480469 69.554688 60.5625 69.613281 C 60.605469 69.644531 60.851562 69.828125 60.65625 69.671875 C 60.804688 69.792969 60.953125 69.914062 61.09375 70.039062 C 61.394531 70.304688 61.679688 70.589844 61.945312 70.886719 C 62.011719 70.964844 62.082031 71.042969 62.148438 71.125 C 62.167969 71.148438 62.347656 71.367188 62.25 71.246094 C 62.164062 71.140625 62.355469 71.390625 62.378906 71.417969 C 62.429688 71.488281 62.476562 71.558594 62.527344 71.632812 C 62.761719 71.976562 62.972656 72.335938 63.160156 72.707031 C 63.199219 72.785156 63.238281 72.863281 63.277344 72.941406 C 63.292969 72.972656 63.421875 73.265625 63.363281 73.128906 C 63.300781 72.984375 63.40625 73.25 63.417969 73.277344 C 63.457031 73.371094 63.492188 73.46875 63.527344 73.570312 C 63.660156 73.964844 63.769531 74.367188 63.851562 74.773438 C 63.976562 75.394531 64.746094 75.804688 65.332031 75.613281 C 65.992188 75.402344 66.308594 74.796875 66.175781 74.132812 C 65.433594 70.421875 62.570312 67.316406 58.992188 66.140625 C 58.394531 65.941406 57.648438 66.367188 57.507812 66.980469 C 57.359375 67.644531 57.710938 68.25 58.351562 68.460938 Z M 58.351562 68.46875 " fill-opacity="1" fill-rule="nonzero"/><path fill="#ffa59b" d="M 65.039062 77.667969 C 65.382812 77.265625 65.753906 76.894531 66.160156 76.558594 C 66.203125 76.519531 66.25 76.484375 66.292969 76.445312 C 66.46875 76.304688 66.171875 76.535156 66.292969 76.445312 C 66.402344 76.371094 66.507812 76.292969 66.617188 76.21875 C 66.835938 76.070312 67.058594 75.933594 67.289062 75.804688 C 67.503906 75.683594 67.726562 75.570312 67.949219 75.464844 C 68.015625 75.4375 68.082031 75.398438 68.152344 75.375 C 68.074219 75.402344 67.964844 75.453125 68.105469 75.398438 C 68.230469 75.351562 68.351562 75.304688 68.476562 75.261719 C 68.988281 75.082031 69.515625 74.953125 70.046875 74.871094 C 70.671875 74.769531 71.074219 73.957031 70.890625 73.386719 C 70.671875 72.710938 70.074219 72.441406 69.40625 72.546875 C 67.078125 72.914062 64.859375 74.171875 63.335938 75.964844 C 62.925781 76.445312 62.828125 77.203125 63.335938 77.667969 C 63.785156 78.082031 64.601562 78.179688 65.039062 77.667969 Z M 65.039062 77.667969 " fill-opacity="1" fill-rule="nonzero"/><path fill="#ffbdc5" d="M 20.246094 117.058594 C 18.929688 115.609375 16.339844 111.382812 20.316406 107.785156 C 24.296875 104.1875 30.78125 107.359375 31.941406 109.589844 C 31.941406 109.589844 35.269531 109.925781 37.890625 112.816406 C 37.890625 112.816406 43.605469 108.519531 49.46875 110.667969 C 55.335938 112.816406 55.679688 115.210938 57.496094 115.503906 C 59.3125 115.796875 60.832031 112.480469 65.40625 112.875 C 69.976562 113.269531 71.324219 117.148438 71.324219 117.148438 C 71.324219 117.148438 76.984375 115.835938 78.066406 112.71875 C 79.152344 109.601562 84.257812 108.394531 86.878906 110.832031 C 89.5 113.269531 89.449219 118.023438 85.859375 119.304688 C 82.269531 120.582031 80.234375 118.929688 79.941406 119.304688 C 79.648438 119.679688 76.476562 124.378906 70.734375 125.003906 C 62.9375 125.855469 59.859375 122.085938 59.859375 122.085938 C 59.859375 122.085938 55.09375 123.886719 50.617188 121.691406 C 50.617188 121.691406 49.929688 121.761719 48.101562 122.625 C 44.121094 124.503906 38.128906 124.925781 34.363281 122.625 C 30.597656 120.324219 30.035156 119.011719 29.167969 118.347656 C 28.890625 118.136719 28.558594 118.035156 28.214844 118.042969 C 26.582031 118.074219 22.421875 119.464844 20.242188 117.058594 Z M 20.246094 117.058594 " fill-opacity="1" fill-rule="nonzero"/><path fill="#ffa59b" d="M 30.996094 110.0625 C 33.308594 112.980469 37.460938 114.222656 41.015625 113.183594 C 41.636719 113 42.03125 112.335938 41.855469 111.699219 C 41.683594 111.078125 41 110.675781 40.371094 110.859375 C 40.003906 110.96875 39.628906 111.058594 39.25 111.109375 C 39.414062 111.085938 39.183594 111.109375 39.125 111.117188 C 39.039062 111.125 38.957031 111.128906 38.871094 111.132812 C 38.679688 111.144531 38.488281 111.148438 38.296875 111.144531 C 38.105469 111.144531 37.917969 111.132812 37.726562 111.117188 C 37.617188 111.105469 37.511719 111.097656 37.40625 111.082031 C 37.539062 111.101562 37.402344 111.082031 37.347656 111.070312 C 36.949219 110.996094 36.554688 110.90625 36.167969 110.785156 C 35.488281 110.570312 34.945312 110.308594 34.277344 109.855469 C 33.75 109.503906 33.183594 108.964844 32.703125 108.363281 C 32.300781 107.851562 31.421875 107.9375 30.996094 108.363281 C 30.492188 108.863281 30.59375 109.554688 30.996094 110.066406 Z M 30.996094 110.0625 " fill-opacity="1" fill-rule="nonzero"/><path fill="#ffa59b" d="M 12.84375 101.433594 C 14.011719 103.226562 15.445312 104.820312 17.375 105.8125 C 19.3125 106.808594 21.492188 107.179688 23.652344 106.90625 C 24.300781 106.824219 24.859375 106.410156 24.859375 105.703125 C 24.859375 105.113281 24.304688 104.414062 23.652344 104.496094 C 22.660156 104.625 21.621094 104.636719 20.707031 104.453125 C 20.292969 104.371094 19.882812 104.257812 19.484375 104.117188 C 19.386719 104.085938 19.292969 104.046875 19.195312 104.007812 C 19.132812 103.984375 18.941406 103.902344 19.097656 103.972656 C 18.925781 103.898438 18.761719 103.816406 18.59375 103.730469 C 17.027344 102.925781 15.878906 101.683594 14.925781 100.21875 C 14.570312 99.671875 13.859375 99.445312 13.277344 99.785156 C 12.734375 100.101562 12.488281 100.886719 12.84375 101.433594 Z M 12.84375 101.433594 " fill-opacity="1" fill-rule="nonzero"/><path fill="#000000" d="M 67.300781 85.453125 C 70.648438 86.804688 74.757812 85.84375 77.226562 83.238281 C 77.671875 82.765625 77.695312 82.003906 77.226562 81.53125 C 76.777344 81.082031 75.96875 81.058594 75.519531 81.53125 C 74.984375 82.101562 74.621094 82.390625 73.925781 82.78125 C 73.757812 82.871094 73.585938 82.957031 73.414062 83.039062 C 73.378906 83.058594 73.238281 83.121094 73.355469 83.070312 C 73.257812 83.113281 73.15625 83.148438 73.058594 83.1875 C 72.699219 83.316406 72.335938 83.425781 71.960938 83.503906 C 71.796875 83.539062 71.628906 83.570312 71.460938 83.597656 C 71.378906 83.609375 71.378906 83.609375 71.46875 83.597656 L 71.34375 83.609375 C 71.257812 83.617188 71.171875 83.625 71.089844 83.632812 C 70.710938 83.660156 70.328125 83.660156 69.949219 83.632812 C 69.863281 83.625 69.78125 83.617188 69.699219 83.609375 L 69.570312 83.597656 C 69.664062 83.609375 69.664062 83.609375 69.578125 83.597656 C 69.414062 83.570312 69.246094 83.539062 69.082031 83.5 C 68.691406 83.40625 68.308594 83.285156 67.9375 83.132812 C 67.332031 82.890625 66.613281 83.398438 66.453125 83.972656 C 66.265625 84.660156 66.691406 85.210938 67.296875 85.453125 Z M 67.300781 85.453125 " fill-opacity="1" fill-rule="nonzero"/><path fill="#ffa59b" d="M 70.929688 99.628906 C 71.527344 99.730469 71.933594 100.4375 72.277344 100.894531 C 72.777344 101.570312 73.238281 102.28125 73.648438 103.015625 C 74.46875 104.457031 75.082031 105.988281 75.515625 107.589844 C 76.25 107.28125 76.988281 106.96875 77.722656 106.660156 C 77.191406 105.636719 76.308594 104.8125 75.257812 104.347656 C 74.1875 103.871094 72.523438 103.515625 71.546875 104.367188 C 70.539062 105.242188 70.34375 106.820312 70.597656 108.058594 C 70.855469 109.304688 71.644531 110.386719 72.628906 111.164062 C 73.671875 111.980469 75.082031 112.546875 76.371094 111.964844 C 77.550781 111.429688 78.089844 110.128906 77.90625 108.894531 C 77.726562 107.652344 76.851562 106.4375 75.824219 105.734375 C 74.742188 104.992188 73.078125 105.070312 72.359375 106.289062 C 71.71875 107.363281 72.148438 108.867188 72.835938 109.816406 C 73.503906 110.746094 74.773438 111.777344 76.003906 111.535156 C 78.992188 110.949219 77.136719 105.828125 75.246094 104.964844 C 73.917969 104.359375 72.433594 105.15625 72.257812 106.605469 C 72.105469 107.855469 72.6875 109.144531 73.464844 110.097656 C 74.238281 111.042969 75.671875 112.09375 76.898438 111.324219 C 78.242188 110.472656 77.855469 108.785156 77.375 107.550781 C 77.113281 106.875 76.824219 106.15625 76.160156 105.777344 C 75.421875 105.355469 74.476562 105.589844 74.03125 106.320312 C 73.316406 107.496094 73.945312 109.292969 74.867188 110.167969 C 75.414062 110.6875 76.144531 111.058594 76.90625 110.808594 C 77.664062 110.558594 78.03125 109.808594 78.066406 109.054688 C 78.128906 107.820312 77.539062 106.195312 76.167969 105.960938 C 75.578125 105.859375 74.804688 106.113281 74.6875 106.800781 C 74.484375 107.964844 74.5625 109.269531 75.253906 110.277344 C 75.855469 111.140625 77.289062 111.574219 77.90625 110.460938 C 78.226562 109.890625 78.125 109.128906 78.058594 108.507812 C 78.007812 108.015625 78.015625 107.382812 77.832031 106.910156 C 77.609375 106.355469 77.144531 105.953125 76.511719 106.050781 C 75.957031 106.132812 75.417969 106.625 75.464844 107.230469 C 75.476562 107.371094 75.5 107.507812 75.519531 107.648438 C 75.566406 107.976562 75.5 107.464844 75.53125 107.738281 C 75.542969 107.867188 75.550781 108 75.570312 108.128906 C 75.625 108.503906 75.382812 108.378906 75.710938 107.875 C 75.949219 107.6875 76.191406 107.503906 76.429688 107.320312 L 76.410156 107.324219 C 76.71875 107.367188 77.03125 107.40625 77.339844 107.445312 L 77.316406 107.429688 C 76.785156 107.054688 75.972656 107.335938 75.667969 107.863281 C 75.3125 108.464844 75.566406 109.132812 76.101562 109.507812 C 77.019531 110.15625 77.984375 109.210938 77.992188 108.296875 C 77.992188 108.078125 77.960938 107.859375 77.933594 107.644531 C 77.914062 107.480469 77.890625 107.316406 77.867188 107.148438 C 77.832031 106.890625 77.867188 107.121094 77.878906 107.234375 C 77.089844 107.34375 76.300781 107.449219 75.511719 107.558594 C 75.546875 107.648438 75.550781 107.765625 75.570312 107.867188 C 75.589844 107.980469 75.605469 108.101562 75.621094 108.214844 C 75.59375 107.996094 75.636719 108.347656 75.640625 108.386719 C 75.671875 108.640625 75.695312 108.894531 75.707031 109.148438 C 75.714844 109.257812 75.707031 109.371094 75.714844 109.480469 C 75.714844 109.542969 75.710938 109.601562 75.707031 109.664062 C 75.707031 109.4375 75.796875 109.242188 75.972656 109.078125 L 76.503906 108.769531 C 76.757812 108.824219 77.003906 108.882812 77.253906 108.941406 C 77.214844 108.878906 77.183594 108.816406 77.160156 108.753906 C 77.132812 108.597656 77.054688 108.445312 77.027344 108.289062 C 76.972656 108.015625 76.96875 107.726562 77.015625 107.449219 C 76.523438 107.730469 76.027344 108.011719 75.53125 108.289062 C 75.871094 108.351562 75.527344 108.308594 75.484375 108.1875 C 75.527344 108.3125 75.582031 108.410156 75.617188 108.546875 C 75.644531 108.660156 75.644531 108.761719 75.664062 108.84375 C 75.75 109.199219 75.546875 108.953125 75.738281 108.804688 L 76.269531 108.496094 C 76.855469 108.292969 76.5625 108.695312 76.449219 108.34375 C 76.410156 108.230469 76.289062 108.113281 76.238281 107.992188 C 76.207031 107.914062 76.1875 107.820312 76.175781 107.738281 L 76.167969 107.558594 C 76.210938 107.21875 76.125 107.304688 75.902344 107.8125 L 75.292969 107.976562 C 74.875 107.679688 74.753906 107.660156 74.933594 107.917969 C 74.972656 107.992188 75.003906 108.070312 75.035156 108.152344 C 75.125 108.359375 75.195312 108.570312 75.261719 108.785156 C 75.316406 108.949219 75.355469 109.265625 75.4375 109.40625 C 75.4375 109.578125 75.445312 109.59375 75.464844 109.460938 C 75.652344 109.363281 75.835938 109.269531 76.023438 109.175781 C 76.023438 109.179688 75.316406 108.582031 75.25 108.5 C 75.035156 108.226562 74.863281 107.902344 74.761719 107.570312 C 74.71875 107.433594 74.714844 107.21875 74.648438 107.101562 C 74.515625 106.875 74.808594 106.96875 74.539062 107.050781 C 74.691406 107.003906 74.25 107.246094 74.253906 107.144531 C 74.253906 107.179688 74.574219 107.558594 74.605469 107.609375 C 74.820312 107.984375 74.964844 108.382812 75.054688 108.804688 C 75.085938 108.957031 75.070312 109.183594 75.121094 109.328125 C 75.222656 109.632812 74.984375 109.429688 75.234375 109.320312 C 75.4375 109.265625 75.640625 109.210938 75.84375 109.15625 C 75.347656 109.210938 74.785156 108.527344 74.597656 108.085938 C 74.597656 108.09375 74.429688 107.453125 74.457031 107.460938 C 74.265625 107.636719 74.210938 107.703125 74.292969 107.660156 C 74.300781 107.65625 74.304688 107.65625 74.3125 107.65625 C 74.300781 107.628906 74.738281 107.910156 74.53125 107.769531 C 74.972656 108.074219 75.5 108.757812 75.539062 109.304688 C 75.578125 109.828125 75.261719 109.894531 74.804688 109.714844 C 74.203125 109.476562 73.652344 108.964844 73.3125 108.421875 C 73.117188 108.105469 72.96875 107.765625 72.914062 107.394531 C 72.890625 107.222656 72.890625 107.039062 72.90625 106.863281 C 72.925781 106.699219 73.0625 106.464844 73.046875 106.320312 L 73.085938 106.25 C 73.140625 106.136719 73.085938 106.152344 72.917969 106.300781 C 73.015625 106.359375 73.339844 106.292969 73.449219 106.308594 C 73.703125 106.335938 73.964844 106.410156 74.199219 106.511719 C 74.84375 106.789062 75.316406 107.273438 75.636719 107.890625 C 76.273438 109.113281 78.195312 108.261719 77.839844 106.960938 C 77.316406 105.035156 76.539062 103.164062 75.519531 101.449219 C 75 100.570312 74.414062 99.742188 73.78125 98.945312 C 73.203125 98.21875 72.535156 97.488281 71.570312 97.320312 C 70.929688 97.210938 70.269531 97.492188 70.085938 98.160156 C 69.925781 98.742188 70.28125 99.53125 70.925781 99.644531 Z M 70.929688 99.628906 " fill-opacity="1" fill-rule="nonzero"/><path fill="#ffa59b" d="M 77.511719 108.738281 L 77.523438 108.589844 C 77.324219 108.9375 77.125 109.28125 76.925781 109.628906 L 76.625 109.695312 C 76.34375 109.574219 76.058594 109.457031 75.773438 109.339844 C 76.019531 109.558594 76.125 110.046875 76.257812 110.339844 C 76.425781 110.707031 76.601562 111.074219 76.785156 111.4375 C 77.152344 112.160156 77.550781 112.871094 77.976562 113.5625 C 78.828125 114.941406 79.800781 116.257812 80.863281 117.484375 C 81.828125 118.601562 82.890625 119.769531 84.222656 120.445312 C 85.535156 121.109375 86.996094 121.273438 88.433594 121.039062 C 90.867188 120.644531 93.433594 119.070312 94.535156 116.804688 C 95.699219 114.398438 95.535156 111.527344 95.535156 108.929688 C 95.535156 107.378906 93.125 107.375 93.125 108.929688 C 93.125 111.136719 93.417969 113.925781 92.273438 115.929688 C 91.15625 117.886719 88.324219 119.191406 86.125 118.613281 C 84.710938 118.238281 83.699219 117.0625 82.769531 116.011719 C 81.761719 114.867188 80.859375 113.640625 80.054688 112.34375 C 79.25 111.039062 78.679688 109.640625 77.972656 108.285156 C 77.230469 106.863281 75.257812 107.027344 75.097656 108.738281 C 74.953125 110.28125 77.363281 110.269531 77.507812 108.738281 Z M 77.511719 108.738281 " fill-opacity="1" fill-rule="nonzero"/><path fill="#000000" d="M 61.390625 91.683594 C 63.921875 90.871094 66.480469 90.636719 69.140625 90.953125 C 69.769531 91.027344 70.375 90.34375 70.347656 89.746094 C 70.316406 89.03125 69.816406 88.625 69.140625 88.542969 C 66.332031 88.207031 63.445312 88.496094 60.75 89.363281 C 60.128906 89.558594 59.730469 90.199219 59.90625 90.84375 C 60.074219 91.449219 60.769531 91.882812 61.390625 91.683594 Z M 61.390625 91.683594 " fill-opacity="1" fill-rule="nonzero"/><path fill="#ffa59b" d="M 17.074219 90.9375 C 14.011719 92.660156 11.054688 94.570312 8.210938 96.632812 C 5.757812 98.40625 3.28125 100.410156 1.847656 103.140625 C 0.445312 105.800781 0.0390625 109.066406 1.472656 111.800781 C 2.847656 114.429688 5.605469 115.875 8.242188 116.945312 C 11.820312 118.398438 15.476562 119.578125 19.355469 119.808594 C 19.070312 119.125 18.785156 118.4375 18.503906 117.753906 C 17.890625 118.511719 17.226562 118.964844 16.320312 119.320312 C 14.898438 119.878906 15.503906 122.199219 16.960938 121.640625 C 17.890625 121.289062 18.59375 120.644531 18.765625 119.628906 C 18.941406 118.542969 17.988281 117.824219 16.992188 118.269531 C 15.894531 118.757812 14.726562 119.558594 14.683594 120.890625 C 14.652344 122.054688 15.476562 123.238281 16.714844 123.234375 C 18.097656 123.230469 19.125 121.742188 19.378906 120.519531 C 19.644531 119.246094 18.714844 118.199219 17.398438 118.398438 C 16.179688 118.585938 15.75 119.519531 15.636719 120.621094 C 15.53125 121.660156 15.527344 123.097656 16.96875 123.136719 C 17.972656 123.164062 19.023438 122.207031 19.703125 121.574219 C 20.484375 120.84375 21.082031 119.957031 20.933594 118.835938 C 20.714844 117.226562 19.097656 116.699219 17.796875 117.542969 C 16.496094 118.390625 15.785156 119.875 15.796875 121.40625 C 15.804688 122.246094 16.558594 122.703125 17.324219 122.570312 C 18.363281 122.386719 19.25 121.707031 19.679688 120.742188 C 20.304688 119.339844 18.226562 118.113281 17.597656 119.527344 C 17.390625 119.988281 17.175781 120.160156 16.683594 120.246094 C 17.191406 120.632812 17.699219 121.019531 18.207031 121.40625 C 18.203125 120.847656 18.34375 120.328125 18.714844 119.898438 C 18.964844 119.613281 19.324219 119.660156 18.839844 119.390625 C 18.28125 119.078125 18.746094 119.238281 18.449219 119.410156 C 18.117188 119.601562 17.832031 120.042969 17.511719 120.285156 C 17.351562 120.40625 17.117188 120.5 16.984375 120.640625 C 16.75 120.894531 16.695312 120.523438 17.175781 120.722656 C 17.417969 120.90625 17.65625 121.089844 17.898438 121.273438 C 18.027344 121.476562 17.914062 121.394531 17.976562 121.207031 C 18.015625 121.097656 18.050781 120.847656 18.039062 120.734375 C 17.980469 120.246094 18.078125 120.800781 17.832031 120.746094 C 17.550781 120.546875 17.269531 120.351562 16.988281 120.15625 C 16.949219 120.289062 16.890625 120.414062 16.808594 120.527344 C 16.640625 120.792969 16.390625 120.800781 16.816406 120.925781 C 17.484375 121.121094 16.882812 121.003906 17.191406 120.90625 C 17.5 120.808594 17.890625 120.488281 18.210938 120.34375 C 17.621094 119.890625 17.03125 119.4375 16.441406 118.984375 C 16.472656 119.132812 16.433594 119.242188 16.324219 119.316406 C 16.535156 120.089844 16.75 120.863281 16.964844 121.636719 C 18.246094 121.132812 19.332031 120.542969 20.207031 119.449219 C 20.863281 118.632812 20.457031 117.457031 19.355469 117.394531 C 15.574219 117.167969 11.878906 115.921875 8.425781 114.425781 C 5.441406 113.136719 2.722656 111.054688 2.996094 107.472656 C 3.265625 103.964844 5.964844 101.316406 8.609375 99.308594 C 11.671875 96.984375 14.945312 94.890625 18.292969 93.007812 C 19.640625 92.246094 18.429688 90.167969 17.074219 90.929688 Z M 17.074219 90.9375 " fill-opacity="1" fill-rule="nonzero"/><path fill="#ffa59b" d="M 92.46875 93.527344 C 93.230469 97.609375 90.765625 102.191406 86.894531 103.753906 C 86.292969 104 85.867188 104.558594 86.054688 105.238281 C 86.210938 105.808594 86.929688 106.324219 87.535156 106.078125 C 92.699219 103.988281 95.816406 98.375 94.792969 92.890625 C 94.671875 92.25 93.902344 91.886719 93.308594 92.050781 C 92.640625 92.234375 92.347656 92.890625 92.46875 93.53125 Z M 92.46875 93.527344 " fill-opacity="1" fill-rule="nonzero"/><path fill="#000000" d="M 48.707031 80.757812 C 48.035156 80.40625 47.167969 80.796875 46.742188 81.425781 C 46.3125 82.050781 46.226562 82.84375 46.167969 83.601562 C 46.125 84.230469 46.101562 84.882812 46.359375 85.457031 C 46.617188 86.03125 47.242188 86.488281 47.847656 86.339844 C 48.703125 86.136719 48.921875 85.035156 48.96875 84.15625 C 48.992188 83.714844 49.015625 83.269531 49.039062 82.828125 C 49.066406 82.300781 49.089844 81.746094 48.863281 81.269531 C 48.632812 80.792969 48.0625 80.4375 47.574219 80.632812 " fill-opacity="1" fill-rule="nonzero"/><path fill="#000000" d="M 49.3125 79.722656 C 48.496094 79.332031 47.691406 79.363281 46.882812 79.75 C 46.207031 80.074219 45.707031 80.695312 45.421875 81.375 C 45.121094 82.089844 45.027344 82.835938 44.972656 83.605469 C 44.914062 84.417969 44.957031 85.214844 45.285156 85.972656 C 45.945312 87.488281 47.976562 88.132812 49.210938 86.894531 C 50.179688 85.929688 50.148438 84.429688 50.21875 83.160156 C 50.265625 82.269531 50.316406 81.3125 49.820312 80.527344 C 49.292969 79.695312 48.234375 79.140625 47.257812 79.476562 C 46.667969 79.683594 46.214844 80.308594 46.421875 80.953125 C 46.613281 81.539062 47.261719 82.011719 47.894531 81.792969 C 48 81.757812 48.035156 81.785156 47.800781 81.78125 C 47.855469 81.78125 47.945312 81.804688 47.792969 81.765625 C 47.605469 81.71875 47.773438 81.773438 47.820312 81.78125 C 47.941406 81.800781 47.71875 81.753906 47.714844 81.738281 C 47.71875 81.75 47.847656 81.796875 47.847656 81.824219 L 47.789062 81.777344 C 47.710938 81.71875 47.710938 81.722656 47.789062 81.792969 C 47.8125 81.839844 47.839844 81.917969 47.796875 81.796875 C 47.734375 81.609375 47.832031 81.863281 47.832031 81.878906 C 47.832031 81.863281 47.757812 81.621094 47.8125 81.867188 C 47.824219 81.914062 47.832031 81.964844 47.847656 82.011719 C 47.90625 82.175781 47.839844 81.808594 47.847656 81.984375 C 47.847656 82.03125 47.855469 82.082031 47.859375 82.132812 C 47.871094 82.402344 47.851562 82.675781 47.835938 82.945312 C 47.808594 83.445312 47.800781 83.949219 47.75 84.453125 C 47.746094 84.488281 47.742188 84.527344 47.738281 84.566406 C 47.730469 84.722656 47.789062 84.3125 47.75 84.46875 C 47.730469 84.554688 47.71875 84.644531 47.699219 84.730469 C 47.679688 84.816406 47.660156 84.898438 47.632812 84.980469 C 47.621094 85.015625 47.609375 85.050781 47.597656 85.085938 C 47.53125 85.308594 47.695312 84.929688 47.621094 85.03125 C 47.601562 85.058594 47.5 85.207031 47.5 85.242188 C 47.496094 85.128906 47.675781 85.054688 47.566406 85.15625 C 47.550781 85.171875 47.476562 85.242188 47.472656 85.25 C 47.472656 85.253906 47.683594 85.09375 47.585938 85.160156 C 47.539062 85.195312 47.410156 85.238281 47.582031 85.179688 C 47.789062 85.109375 47.621094 85.167969 47.597656 85.167969 C 47.355469 85.164062 47.8125 85.191406 47.652344 85.171875 C 47.605469 85.164062 47.425781 85.167969 47.613281 85.179688 C 47.792969 85.191406 47.652344 85.167969 47.617188 85.167969 C 47.464844 85.160156 47.628906 85.054688 47.679688 85.199219 C 47.675781 85.1875 47.585938 85.144531 47.574219 85.136719 C 47.433594 85.074219 47.726562 85.289062 47.621094 85.175781 C 47.589844 85.148438 47.558594 85.117188 47.527344 85.09375 C 47.355469 84.9375 47.550781 85.140625 47.554688 85.144531 C 47.507812 85.121094 47.464844 85.007812 47.445312 84.96875 C 47.429688 84.945312 47.390625 84.886719 47.390625 84.859375 L 47.4375 84.960938 L 47.410156 84.867188 C 47.398438 84.808594 47.378906 84.738281 47.359375 84.675781 C 47.355469 84.652344 47.324219 84.488281 47.351562 84.640625 C 47.378906 84.804688 47.351562 84.597656 47.347656 84.554688 C 47.34375 84.507812 47.339844 84.457031 47.339844 84.40625 C 47.335938 84.273438 47.335938 84.136719 47.34375 84.007812 C 47.351562 83.761719 47.371094 83.519531 47.394531 83.273438 C 47.398438 83.226562 47.40625 83.179688 47.410156 83.128906 C 47.429688 82.902344 47.402344 83.125 47.402344 83.164062 C 47.40625 83.039062 47.445312 82.910156 47.472656 82.789062 C 47.503906 82.652344 47.539062 82.511719 47.585938 82.378906 C 47.597656 82.339844 47.609375 82.277344 47.636719 82.246094 C 47.492188 82.433594 47.613281 82.308594 47.652344 82.238281 C 47.675781 82.195312 47.699219 82.15625 47.722656 82.117188 C 47.859375 81.867188 47.617188 82.214844 47.707031 82.125 C 47.746094 82.085938 47.777344 82.042969 47.816406 82.007812 C 47.910156 81.917969 47.976562 81.941406 47.785156 82.011719 C 47.875 81.980469 47.972656 81.894531 48.058594 81.847656 C 48.1875 81.769531 48.101562 81.898438 47.988281 81.875 C 48.019531 81.882812 48.105469 81.84375 48.140625 81.832031 C 48.347656 81.765625 48.066406 81.863281 48.046875 81.839844 C 48.054688 81.851562 48.222656 81.839844 48.238281 81.839844 C 48.355469 81.824219 48.121094 81.835938 48.105469 81.820312 C 48.144531 81.828125 48.179688 81.839844 48.214844 81.851562 C 48.300781 81.878906 48.265625 81.863281 48.109375 81.800781 C 48.671875 82.070312 49.425781 81.976562 49.742188 81.371094 C 50.027344 80.835938 49.917969 80.019531 49.316406 79.730469 Z M 49.3125 79.722656 " fill-opacity="1" fill-rule="nonzero"/><g clip-path="url(#a460a99e23)"><path fill="#5e4d5c" d="M 97.390625 46 C 98.597656 45.96875 100.25 46.179688 101.238281 46.878906 C 102.222656 47.578125 103.117188 49.3125 103.132812 50.523438 C 103.152344 51.722656 102.941406 52.644531 102.332031 53.679688 C 100.71875 56.414062 98.515625 58.800781 95.914062 60.625 C 95.625 60.828125 95.320312 61.027344 94.972656 61.09375 C 94.105469 61.261719 93.257812 60.476562 93.136719 59.601562 C 93.015625 58.726562 93.464844 57.855469 94.078125 57.222656 C 94.6875 56.585938 95.460938 56.132812 96.183594 55.621094 C 96.902344 55.109375 97.601562 54.503906 97.957031 53.699219 C 98.1875 53.1875 98.265625 52.605469 98.179688 52.050781 C 98.101562 51.542969 97.855469 51.019531 97.402344 50.78125 C 96.515625 50.3125 95.511719 51.109375 94.867188 51.875 C 94.222656 52.636719 93.371094 53.527344 92.40625 53.265625 C 91.671875 53.0625 91.265625 52.214844 91.3125 51.453125 C 91.359375 50.691406 91.75 50 92.125 49.335938 C 92.125 49.335938 93.707031 46.085938 97.386719 46 Z M 97.390625 46 " fill-opacity="1" fill-rule="nonzero"/></g><path fill="#5e4d5c" d="M 94.339844 62.75 C 94.441406 63.03125 94.542969 63.480469 94.5625 63.777344 C 94.632812 64.746094 94.054688 65.523438 93.125 65.8125 C 92.789062 65.917969 92.429688 65.9375 92.078125 65.941406 C 91.570312 65.949219 91.101562 65.773438 90.636719 65.5625 C 90.21875 65.375 89.90625 64.980469 89.773438 64.769531 C 89.28125 63.980469 89.316406 63.191406 89.773438 62.398438 C 90.003906 61.992188 90.410156 61.550781 90.84375 61.375 C 91.101562 61.269531 91.640625 61.09375 91.914062 61.128906 C 92.511719 61.207031 92.660156 61.257812 93.183594 61.554688 C 93.183594 61.554688 94.039062 61.921875 94.34375 62.75 Z M 94.339844 62.75 " fill-opacity="1" fill-rule="nonzero"/><path fill="#ffffff" d="M 93.820312 63.210938 C 93.789062 63.136719 93.753906 63.054688 93.679688 63.015625 C 93.605469 62.984375 93.492188 63.03125 93.5 63.117188 C 93.433594 63.140625 93.351562 63.457031 93.382812 63.683594 C 93.402344 63.8125 93.539062 64.085938 93.605469 64.199219 C 93.625 64.230469 93.648438 64.257812 93.679688 64.269531 C 93.757812 64.296875 93.824219 64.195312 93.847656 64.113281 C 93.925781 63.816406 93.917969 63.5 93.820312 63.210938 Z M 93.820312 63.210938 " fill-opacity="1" fill-rule="nonzero"/><path fill="#ffffff" d="M 94.203125 63.105469 C 94.164062 62.988281 94.117188 62.890625 94.035156 62.796875 C 93.9375 62.679688 93.792969 62.621094 93.648438 62.609375 C 93.363281 62.585938 93.09375 62.828125 93.097656 63.117188 C 93.164062 63 93.226562 62.886719 93.292969 62.769531 C 93.164062 62.835938 93.09375 62.980469 93.046875 63.109375 C 93.007812 63.214844 92.992188 63.328125 92.980469 63.4375 C 92.964844 63.558594 92.96875 63.679688 92.992188 63.800781 C 93.011719 63.902344 93.058594 64 93.101562 64.09375 C 93.195312 64.3125 93.3125 64.59375 93.570312 64.660156 C 93.800781 64.71875 94.023438 64.609375 94.148438 64.410156 C 94.21875 64.300781 94.25 64.171875 94.269531 64.046875 C 94.320312 63.734375 94.308594 63.414062 94.203125 63.109375 C 94.136719 62.910156 93.925781 62.757812 93.710938 62.828125 C 93.511719 62.890625 93.359375 63.109375 93.429688 63.324219 C 93.460938 63.414062 93.484375 63.507812 93.496094 63.605469 L 93.484375 63.496094 C 93.503906 63.640625 93.503906 63.777344 93.484375 63.921875 L 93.496094 63.8125 C 93.484375 63.898438 93.472656 63.980469 93.441406 64.058594 L 93.480469 63.960938 C 93.472656 63.984375 93.460938 64 93.445312 64.019531 L 93.507812 63.941406 C 93.5 63.953125 93.488281 63.964844 93.476562 63.972656 L 93.554688 63.910156 C 93.554688 63.910156 93.539062 63.921875 93.53125 63.925781 L 93.628906 63.882812 L 93.613281 63.886719 L 93.71875 63.875 C 93.71875 63.875 93.699219 63.875 93.691406 63.875 L 93.796875 63.886719 L 93.78125 63.882812 L 93.878906 63.925781 C 93.867188 63.921875 93.855469 63.914062 93.847656 63.910156 L 93.929688 63.972656 C 93.929688 63.972656 93.910156 63.957031 93.90625 63.945312 L 93.96875 64.027344 C 93.894531 63.925781 93.84375 63.800781 93.792969 63.691406 L 93.835938 63.785156 C 93.808594 63.71875 93.777344 63.648438 93.765625 63.578125 L 93.78125 63.683594 C 93.769531 63.601562 93.773438 63.515625 93.78125 63.429688 L 93.769531 63.535156 C 93.78125 63.457031 93.796875 63.378906 93.828125 63.300781 L 93.785156 63.398438 C 93.792969 63.378906 93.804688 63.359375 93.816406 63.34375 L 93.753906 63.421875 C 93.753906 63.421875 93.761719 63.410156 93.769531 63.40625 L 93.6875 63.46875 C 93.6875 63.46875 93.695312 63.464844 93.699219 63.464844 C 93.824219 63.40625 93.898438 63.25 93.898438 63.117188 L 93.898438 63.105469 C 93.890625 63.140625 93.886719 63.175781 93.882812 63.210938 C 93.882812 63.199219 93.886719 63.191406 93.890625 63.183594 L 93.847656 63.28125 C 93.847656 63.28125 93.855469 63.265625 93.863281 63.257812 L 93.800781 63.339844 C 93.800781 63.339844 93.8125 63.328125 93.820312 63.324219 L 93.738281 63.386719 C 93.738281 63.386719 93.753906 63.375 93.761719 63.371094 L 93.667969 63.414062 C 93.679688 63.40625 93.695312 63.402344 93.707031 63.402344 L 93.601562 63.414062 C 93.617188 63.414062 93.628906 63.414062 93.644531 63.414062 L 93.539062 63.402344 C 93.539062 63.402344 93.558594 63.40625 93.566406 63.410156 L 93.46875 63.367188 C 93.480469 63.371094 93.488281 63.378906 93.5 63.386719 L 93.417969 63.324219 C 93.4375 63.335938 93.453125 63.351562 93.46875 63.371094 L 93.40625 63.289062 C 93.421875 63.316406 93.4375 63.34375 93.449219 63.367188 L 93.40625 63.269531 C 93.414062 63.285156 93.421875 63.304688 93.425781 63.320312 C 93.460938 63.421875 93.515625 63.503906 93.613281 63.558594 C 93.699219 63.613281 93.824219 63.632812 93.921875 63.601562 C 94.117188 63.539062 94.277344 63.320312 94.199219 63.109375 Z M 94.203125 63.105469 " fill-opacity="1" fill-rule="nonzero"/><path fill="#ffffff" d="M 101.492188 48.050781 C 101.261719 48.03125 101.011719 48.085938 100.90625 48.289062 C 100.835938 48.425781 100.835938 48.589844 100.839844 48.746094 C 100.855469 49.820312 100.914062 50.929688 100.527344 51.933594 C 100.265625 52.617188 99.796875 53.28125 99.890625 54.007812 C 99.925781 54.285156 100.066406 54.574219 100.328125 54.679688 C 100.535156 54.765625 100.773438 54.71875 100.972656 54.621094 C 101.589844 54.332031 101.929688 53.660156 102.121094 53.007812 C 102.542969 51.578125 102.472656 50.003906 101.921875 48.617188 C 101.921875 48.617188 101.703125 48.070312 101.492188 48.050781 Z M 101.492188 48.050781 " fill-opacity="1" fill-rule="nonzero"/><g clip-path="url(#06bedb27a6)"><path fill="#5e4d5c" d="M 107.070312 61.070312 C 107.925781 61.355469 109.03125 61.917969 109.546875 62.65625 C 110.0625 63.398438 110.253906 64.839844 109.960938 65.691406 C 109.671875 66.539062 109.292969 67.132812 108.605469 67.707031 C 106.78125 69.222656 104.632812 70.339844 102.347656 70.964844 C 102.09375 71.035156 101.828125 71.101562 101.566406 71.058594 C 100.917969 70.960938 100.523438 70.195312 100.65625 69.550781 C 100.792969 68.90625 101.324219 68.40625 101.917969 68.117188 C 102.507812 67.824219 103.164062 67.703125 103.796875 67.523438 C 104.429688 67.347656 105.074219 67.097656 105.527344 66.621094 C 105.816406 66.320312 106.019531 65.929688 106.097656 65.519531 C 106.171875 65.140625 106.132812 64.714844 105.871094 64.433594 C 105.371094 63.882812 104.464844 64.1875 103.820312 64.5625 C 103.175781 64.9375 102.351562 65.347656 101.742188 64.917969 C 101.273438 64.59375 101.207031 63.898438 101.429688 63.375 C 101.65625 62.855469 102.101562 62.464844 102.535156 62.09375 C 102.535156 62.09375 104.464844 60.210938 107.070312 61.074219 Z M 107.070312 61.070312 " fill-opacity="1" fill-rule="nonzero"/></g><path fill="#5e4d5c" d="M 99.929688 71.925781 C 99.929688 72.144531 99.886719 72.484375 99.828125 72.699219 C 99.636719 73.398438 99.03125 73.796875 98.308594 73.765625 C 98.042969 73.753906 97.785156 73.679688 97.539062 73.59375 C 97.179688 73.46875 96.898438 73.226562 96.621094 72.960938 C 96.375 72.726562 96.257812 72.367188 96.21875 72.1875 C 96.070312 71.511719 96.292969 70.964844 96.816406 70.523438 C 97.082031 70.296875 97.476562 70.089844 97.828125 70.074219 C 98.03125 70.066406 98.453125 70.078125 98.640625 70.171875 C 99.042969 70.375 99.128906 70.449219 99.421875 70.789062 C 99.421875 70.789062 99.929688 71.261719 99.933594 71.921875 Z M 99.929688 71.925781 " fill-opacity="1" fill-rule="nonzero"/><path fill="#ffa59b" d="M 43.042969 120.25 C 42.699219 122.3125 43.015625 124.410156 43.214844 126.472656 C 43.429688 128.679688 43.667969 130.886719 43.9375 133.085938 C 44.476562 137.464844 45.125 141.832031 45.878906 146.179688 C 46.144531 147.703125 48.46875 147.058594 48.203125 145.539062 C 47.484375 141.40625 46.859375 137.253906 46.347656 133.089844 C 46.09375 131.015625 45.867188 128.941406 45.664062 126.867188 C 45.476562 124.941406 45.046875 122.8125 45.367188 120.890625 C 45.621094 119.375 43.300781 118.722656 43.042969 120.25 Z M 43.042969 120.25 " fill-opacity="1" fill-rule="nonzero"/><path fill="#ffa59b" d="M 46.898438 145.132812 C 45.125 144.984375 43.308594 144.945312 41.578125 145.417969 C 40.210938 145.789062 37 147.078125 38.027344 149.003906 C 38.503906 149.898438 39.535156 150.054688 40.445312 150.144531 C 41.371094 150.238281 42.308594 150.136719 43.21875 149.964844 C 44.039062 149.808594 44.84375 149.5625 45.628906 149.277344 C 46.414062 148.992188 47.09375 148.734375 47.65625 148.105469 C 47.996094 147.71875 48.261719 147.316406 48.300781 146.792969 C 48.359375 146.054688 47.84375 145.425781 47.140625 145.257812 C 46.652344 145.144531 46.128906 145.257812 45.660156 145.402344 C 45.492188 145.453125 45.324219 145.511719 45.15625 145.5625 C 45.070312 145.589844 44.972656 145.609375 44.886719 145.640625 C 44.644531 145.722656 45.066406 145.640625 44.816406 145.652344 C 44.1875 145.683594 43.582031 146.1875 43.613281 146.855469 C 43.640625 147.484375 44.140625 148.09375 44.816406 148.0625 C 45.234375 148.042969 45.625 147.941406 46.023438 147.816406 C 46.1875 147.761719 46.351562 147.703125 46.519531 147.660156 C 46.589844 147.640625 46.660156 147.628906 46.730469 147.609375 C 46.589844 147.621094 46.566406 147.625 46.652344 147.621094 C 46.789062 147.621094 46.714844 147.59375 46.425781 147.546875 L 45.996094 147.113281 C 46.136719 146.316406 46.125 146.070312 45.964844 146.375 C 45.894531 146.480469 45.898438 146.476562 45.984375 146.359375 C 45.902344 146.449219 45.816406 146.535156 45.734375 146.621094 C 45.695312 146.65625 45.65625 146.691406 45.617188 146.722656 C 45.738281 146.632812 45.75 146.625 45.644531 146.695312 C 45.550781 146.746094 45.5625 146.746094 45.675781 146.691406 C 45.605469 146.71875 45.539062 146.746094 45.46875 146.769531 C 44.804688 147.027344 44.128906 147.261719 43.4375 147.441406 C 42.785156 147.617188 42.210938 147.726562 41.601562 147.757812 C 41.265625 147.777344 40.925781 147.773438 40.589844 147.746094 C 40.628906 147.75 40.179688 147.695312 40.335938 147.71875 C 40.238281 147.703125 40.144531 147.683594 40.050781 147.664062 C 39.917969 147.625 39.914062 147.628906 40.03125 147.683594 C 39.910156 147.613281 39.90625 147.617188 40.019531 147.695312 C 39.789062 148.683594 39.824219 149.035156 40.125 148.753906 C 40.179688 148.710938 40.179688 148.707031 40.132812 148.742188 C 40.203125 148.6875 40.273438 148.636719 40.347656 148.589844 C 40.601562 148.414062 40.867188 148.257812 41.144531 148.125 C 41.539062 147.929688 42.171875 147.730469 42.738281 147.613281 C 44.046875 147.339844 45.523438 147.421875 46.902344 147.535156 C 47.53125 147.589844 48.136719 146.945312 48.109375 146.332031 C 48.074219 145.636719 47.578125 145.183594 46.902344 145.128906 Z M 46.898438 145.132812 " fill-opacity="1" fill-rule="nonzero"/><path fill="#ffa59b" d="M 67.433594 120.886719 C 67.757812 122.8125 67.328125 124.941406 67.140625 126.863281 C 66.9375 128.941406 66.707031 131.015625 66.453125 133.085938 C 65.945312 137.25 65.316406 141.402344 64.597656 145.539062 C 64.335938 147.054688 66.65625 147.703125 66.921875 146.179688 C 67.679688 141.828125 68.328125 137.464844 68.863281 133.085938 C 69.125 130.949219 69.359375 128.808594 69.570312 126.667969 C 69.777344 124.542969 70.117188 122.371094 69.757812 120.246094 C 69.503906 118.722656 67.179688 119.371094 67.433594 120.886719 Z M 67.433594 120.886719 " fill-opacity="1" fill-rule="nonzero"/><path fill="#ffa59b" d="M 65.902344 147.539062 C 67.285156 147.425781 68.757812 147.34375 70.066406 147.617188 C 70.636719 147.734375 71.261719 147.929688 71.660156 148.128906 C 71.9375 148.261719 72.203125 148.417969 72.457031 148.59375 C 72.445312 148.582031 72.78125 148.808594 72.636719 148.722656 C 72.964844 149.046875 73.011719 148.707031 72.78125 147.703125 C 72.894531 147.621094 72.890625 147.617188 72.769531 147.691406 C 72.886719 147.636719 72.882812 147.628906 72.753906 147.671875 C 72.683594 147.6875 72.609375 147.699219 72.539062 147.710938 C 72.464844 147.726562 72.367188 147.738281 72.210938 147.753906 C 71.875 147.777344 71.539062 147.78125 71.203125 147.765625 C 70.582031 147.730469 70.019531 147.621094 69.363281 147.449219 C 68.710938 147.277344 68.046875 147.050781 67.402344 146.804688 C 67.3125 146.769531 67.21875 146.734375 67.128906 146.699219 C 67.242188 146.753906 67.25 146.753906 67.15625 146.703125 C 66.960938 146.609375 67.269531 146.832031 67.109375 146.664062 C 67.011719 146.5625 66.910156 146.472656 66.820312 146.367188 C 66.902344 146.484375 66.910156 146.488281 66.839844 146.382812 C 66.675781 146.078125 66.667969 146.324219 66.808594 147.121094 C 66.664062 147.265625 66.519531 147.40625 66.375 147.554688 L 66.105469 147.625 C 66.21875 147.632812 66.226562 147.632812 66.136719 147.625 C 66.054688 147.613281 66.050781 147.613281 66.125 147.628906 C 66.160156 147.636719 66.195312 147.644531 66.230469 147.652344 C 66.417969 147.699219 66.597656 147.765625 66.78125 147.824219 C 67.175781 147.949219 67.566406 148.050781 67.988281 148.070312 C 68.617188 148.097656 69.21875 147.496094 69.191406 146.863281 C 69.160156 146.1875 68.660156 145.691406 67.988281 145.660156 C 67.769531 145.652344 67.980469 145.660156 68.019531 145.671875 C 67.929688 145.652344 67.84375 145.628906 67.757812 145.605469 C 67.605469 145.558594 67.457031 145.511719 67.3125 145.464844 C 66.933594 145.34375 66.550781 145.234375 66.152344 145.21875 C 64.863281 145.175781 64.074219 146.5 64.757812 147.601562 C 65.1875 148.292969 65.808594 148.757812 66.554688 149.050781 C 67.359375 149.363281 68.171875 149.644531 69.011719 149.847656 C 69.867188 150.054688 70.757812 150.191406 71.636719 150.1875 C 72.542969 150.1875 73.71875 150.132812 74.414062 149.476562 C 74.769531 149.144531 74.964844 148.707031 74.953125 148.21875 C 74.9375 147.558594 74.484375 147.125 73.996094 146.753906 C 73.328125 146.246094 72.585938 145.882812 71.796875 145.605469 C 69.914062 144.941406 67.863281 144.976562 65.902344 145.140625 C 65.277344 145.191406 64.664062 145.65625 64.699219 146.34375 C 64.726562 146.953125 65.230469 147.601562 65.902344 147.546875 Z M 65.902344 147.539062 " fill-opacity="1" fill-rule="nonzero"/><g clip-path="url(#8de7615874)"><g clip-path="url(#61cb7f68b2)"><g clip-path="url(#fff91f4480)"><g clip-path="url(#047232a743)"><path fill="#ff2c19" d="M 72.996094 24.691406 L 49.855469 15.257812 C 46.621094 13.941406 42.859375 16.304688 41.769531 20.339844 L 36.089844 41.441406 C 35.019531 45.410156 37.003906 49.292969 40.390625 49.855469 L 51.101562 51.640625 C 52.238281 51.832031 53.183594 52.636719 53.660156 53.824219 L 58.523438 63.828125 C 58.675781 64.140625 59.09375 64.050781 59.1875 63.683594 L 61.519531 54.859375 C 61.730469 54.058594 62.421875 53.527344 63.101562 53.640625 L 65.074219 53.96875 C 67.710938 54.410156 70.375 52.359375 71.191406 49.265625 L 75.832031 31.703125 C 76.625 28.695312 75.40625 25.675781 72.996094 24.691406 " fill-opacity="1" fill-rule="nonzero"/></g></g></g></g><g clip-path="url(#8e3e2fe1f7)"><g clip-path="url(#6cafe3e1af)"><g clip-path="url(#57dd66daff)"><g clip-path="url(#bc3ff15d11)"><path fill="#e62816" d="M 59.1875 63.683594 L 59.890625 61.019531 L 54.664062 50.867188 C 54.222656 50.007812 53.402344 49.410156 52.453125 49.25 L 43.25 47.71875 C 37.875 46.855469 37.777344 44.605469 38.945312 39.304688 L 44.628906 18.203125 C 44.933594 17.070312 45.449219 16.070312 46.105469 15.246094 C 44.144531 15.984375 42.445312 17.84375 41.769531 20.339844 L 36.089844 41.441406 C 35.019531 45.410156 37.003906 49.292969 40.390625 49.855469 L 51.101562 51.640625 C 52.238281 51.832031 53.183594 52.636719 53.660156 53.824219 L 58.523438 63.828125 C 58.675781 64.140625 59.09375 64.050781 59.1875 63.683594 " fill-opacity="1" fill-rule="nonzero"/></g></g></g></g><g clip-path="url(#21f9b99bd8)"><g clip-path="url(#be238648d2)"><g clip-path="url(#4a1de94f05)"><g clip-path="url(#0e4197f89e)"><path fill="#25bf6a" d="M 133.878906 58.441406 L 110.472656 45.21875 C 108.085938 43.871094 104.878906 44.746094 103.027344 47.246094 L 92.214844 61.847656 C 90.3125 64.417969 90.46875 67.847656 92.574219 69.710938 L 94.148438 71.109375 C 94.695312 71.589844 94.734375 72.476562 94.242188 73.144531 L 90.460938 78.25 C 90.117188 78.714844 90.378906 79.328125 90.910156 79.304688 L 100.980469 78.753906 C 102.003906 78.644531 102.996094 78.945312 103.742188 79.605469 L 112.71875 87.558594 C 115.203125 89.757812 119.238281 89.035156 121.464844 85.992188 L 135.136719 67.332031 C 137.402344 64.238281 136.816406 60.101562 133.878906 58.441406 " fill-opacity="1" fill-rule="nonzero"/></g></g></g></g><g clip-path="url(#6850b1e2a1)"><g clip-path="url(#878cc0c089)"><g clip-path="url(#31e0de4c07)"><g clip-path="url(#8ed5e923e3)"><path fill="#20a65c" d="M 136.21875 61.320312 C 136.035156 62.332031 135.613281 63.347656 134.9375 64.265625 L 121.269531 82.925781 C 118.515625 86.796875 115.832031 87.546875 112.519531 84.492188 L 104.65625 77.527344 C 103.945312 76.894531 103.011719 76.566406 102.054688 76.617188 L 91.253906 77.179688 L 90.460938 78.25 C 90.117188 78.714844 90.378906 79.328125 90.910156 79.304688 L 100.980469 78.753906 C 102.003906 78.644531 102.996094 78.945312 103.742188 79.605469 L 112.71875 87.558594 C 115.203125 89.757812 119.238281 89.035156 121.464844 85.992188 L 135.136719 67.332031 C 136.515625 65.449219 136.839844 63.183594 136.21875 61.320312 " fill-opacity="1" fill-rule="nonzero"/></g></g></g></g><g clip-path="url(#cd06fcdad2)"><g clip-path="url(#81a18cb8c2)"><g clip-path="url(#f97f02fb85)"><g clip-path="url(#c43f886766)"><path fill="#e3e3e3" d="M 62.195312 53.863281 C 62.46875 53.675781 62.785156 53.589844 63.101562 53.640625 L 63.117188 53.644531 C 62.707031 53.59375 62.515625 53.679688 62.195312 53.863281 M 63.386719 53.6875 L 63.390625 53.691406 L 63.386719 53.6875 M 64.019531 53.792969 L 65.074219 53.96875 C 67.710938 54.410156 70.375 52.359375 71.191406 49.265625 L 75.832031 31.703125 C 76.433594 29.417969 75.875 27.128906 74.519531 25.726562 L 109.921875 44.953125 C 107.613281 44.011719 104.742188 44.933594 103.027344 47.246094 L 92.214844 61.847656 C 91.179688 63.246094 90.753906 64.902344 90.917969 66.417969 L 64.019531 53.792969 M 91.28125 67.875 C 91.105469 67.441406 90.988281 66.984375 90.929688 66.515625 C 90.992188 66.988281 91.109375 67.445312 91.28125 67.875 M 113.367188 46.851562 L 111.976562 46.066406 L 113.367188 46.851562 M 69.96875 23.457031 L 71.449219 24.0625 L 69.96875 23.457031 " fill-opacity="1" fill-rule="nonzero"/></g></g></g></g><g clip-path="url(#33f706fb93)"><g clip-path="url(#1fa3a32a1d)"><g clip-path="url(#12c70cb4bb)"><g clip-path="url(#3c6d4544ec)"><path fill="#e32716" d="M 62.195312 53.863281 C 61.046875 51.578125 60.890625 48.71875 61.96875 46.015625 L 69.96875 23.457031 L 71.449219 24.0625 L 74.519531 25.726562 C 75.875 27.128906 76.433594 29.417969 75.832031 31.703125 L 71.191406 49.265625 C 70.375 52.359375 67.710938 54.410156 65.074219 53.96875 L 64.019531 53.792969 L 64.011719 53.789062 L 63.390625 53.691406 L 63.386719 53.6875 C 63.285156 53.667969 63.195312 53.652344 63.117188 53.644531 L 63.101562 53.640625 C 62.785156 53.589844 62.46875 53.675781 62.195312 53.863281 " fill-opacity="1" fill-rule="nonzero"/></g></g></g></g><g clip-path="url(#0efc513066)"><g clip-path="url(#68d58d2105)"><g clip-path="url(#af7f4aa7b8)"><g clip-path="url(#c739c01e28)"><path fill="#21aa5e" d="M 91.523438 68.390625 L 91.460938 68.265625 C 91.398438 68.136719 91.335938 68.007812 91.28125 67.875 C 91.109375 67.445312 90.992188 66.988281 90.929688 66.515625 C 90.925781 66.484375 90.921875 66.449219 90.921875 66.417969 L 90.917969 66.417969 C 90.753906 64.902344 91.179688 63.246094 92.214844 61.847656 L 103.027344 47.246094 C 104.742188 44.933594 107.613281 44.011719 109.921875 44.953125 L 111.976562 46.066406 L 113.367188 46.851562 C 113.308594 46.960938 113.253906 47.058594 113.203125 47.15625 L 103.804688 65.078125 C 102.832031 66.9375 101.273438 68.390625 99.414062 69.167969 C 97.511719 69.964844 95.46875 69.988281 93.660156 69.234375 L 91.523438 68.390625 " fill-opacity="1" fill-rule="nonzero"/></g></g></g></g><g clip-path="url(#cb9d807de5)"><g clip-path="url(#ba8f848df6)"><g clip-path="url(#e6f38e19ae)"><g clip-path="url(#66a49b964d)"><path fill="#ffbb02" d="M 115.3125 39.890625 C 116.671875 36.980469 115.347656 33.53125 112.414062 32.285156 L 86.695312 19.433594 C 85.804688 18.988281 81.589844 16.902344 80.601562 16.785156 C 77.601562 16.4375 75.375 17.796875 73.6875 19.875 C 72.769531 21.007812 72.070312 22.300781 71.585938 23.679688 L 63.464844 46.578125 C 61.917969 50.421875 63.355469 54.699219 66.855469 56.175781 L 76.953125 60.304688 C 77.296875 60.449219 77.476562 60.839844 77.386719 61.246094 L 77.011719 68.757812 C 77.003906 68.898438 76.988281 69.039062 76.972656 69.175781 C 76.867188 70.148438 77.878906 70.75 78.675781 70.113281 L 85.460938 64.71875 C 85.699219 64.527344 86 64.476562 86.257812 64.578125 L 94.269531 67.742188 C 97.195312 68.976562 100.734375 67.492188 102.390625 64.335938 L 111.789062 46.414062 C 112.566406 44.933594 114.15625 42.355469 115.3125 39.890625 " fill-opacity="1" fill-rule="nonzero"/></g></g></g></g><g clip-path="url(#4a63288610)"><g clip-path="url(#8e0d82899d)"><g clip-path="url(#acb08a2e03)"><g clip-path="url(#437e6006d1)"><path fill="#e8aa02" d="M 76.96875 59.058594 C 77.058594 58.652344 76.878906 58.257812 76.535156 58.113281 L 66.4375 53.988281 C 64.691406 53.25 63.460938 51.816406 62.855469 50.085938 C 62.972656 52.75 64.410156 55.144531 66.855469 56.175781 L 76.910156 60.285156 L 76.96875 59.058594 " fill-opacity="1" fill-rule="nonzero"/></g></g></g></g><g clip-path="url(#2926bc06c2)"><g clip-path="url(#4061468558)"><g clip-path="url(#1b925ca166)"><g clip-path="url(#6e917d65ab)"><path fill="#e8aa02" d="M 115.3125 39.890625 C 116.011719 38.394531 116 36.761719 115.429688 35.355469 C 115.421875 36.140625 115.25 36.9375 114.894531 37.699219 C 113.742188 40.167969 112.148438 42.742188 111.375 44.222656 L 101.972656 62.148438 C 100.050781 66.132812 97.339844 67.191406 93.855469 65.550781 L 85.839844 62.386719 C 85.582031 62.285156 85.28125 62.339844 85.046875 62.527344 L 78.261719 67.925781 C 77.851562 68.25 77.386719 68.25 77.046875 68.042969 L 77.011719 68.757812 C 77.003906 68.898438 76.988281 69.039062 76.972656 69.175781 C 76.867188 70.148438 77.878906 70.75 78.675781 70.113281 L 85.460938 64.71875 C 85.699219 64.527344 86 64.476562 86.257812 64.578125 L 94.269531 67.742188 C 97.195312 68.976562 100.734375 67.492188 102.390625 64.335938 L 111.789062 46.414062 C 112.566406 44.933594 114.15625 42.355469 115.3125 39.890625 " fill-opacity="1" fill-rule="nonzero"/></g></g></g></g><g clip-path="url(#bec66022b2)"><g clip-path="url(#6dbc36802c)"><g clip-path="url(#0e6dba2b6e)"><g clip-path="url(#10c00b4083)"><path fill="#ffffff" d="M 98.914062 37.328125 C 98.222656 35.484375 96.882812 33.757812 94.679688 32.605469 C 92.585938 31.507812 90.488281 31.417969 88.597656 31.890625 C 87.585938 32.140625 86.707031 32.554688 85.964844 33.125 C 84.867188 33.96875 85.011719 35.671875 86.230469 36.308594 C 87.050781 36.742188 88.050781 36.675781 88.804688 36.125 C 89.292969 35.769531 89.792969 35.535156 90.304688 35.417969 C 91.253906 35.203125 92.21875 35.347656 93.191406 35.859375 C 94.203125 36.390625 94.863281 37.078125 95.179688 37.929688 C 95.492188 38.777344 95.453125 39.582031 95.058594 40.332031 C 94.773438 40.875 94.347656 41.28125 93.773438 41.554688 C 93.40625 41.726562 92.421875 41.976562 90.820312 42.304688 C 89.402344 42.597656 88.3125 42.972656 87.558594 43.429688 C 87.40625 43.519531 87.265625 43.621094 87.132812 43.734375 C 86.457031 44.289062 85.453125 46.285156 84.550781 47.820312 C 83.972656 48.804688 84.070312 49.9375 85.066406 50.476562 L 85.316406 50.609375 C 86.265625 51.125 87.453125 50.789062 88.007812 49.851562 C 88.761719 48.574219 89.421875 47.003906 89.691406 46.800781 C 90.101562 46.492188 90.890625 46.210938 92.058594 45.957031 C 94.3125 45.464844 95.875 44.964844 96.753906 44.453125 C 97.632812 43.941406 98.292969 43.257812 98.742188 42.40625 C 99.550781 40.863281 99.609375 39.171875 98.914062 37.328125 " fill-opacity="1" fill-rule="nonzero"/></g></g></g></g><g clip-path="url(#5a352ce22d)"><g clip-path="url(#5d7b96ee35)"><g clip-path="url(#0d5c2ce3fe)"><g clip-path="url(#cfb9285a27)"><path fill="#ffffff" d="M 81.34375 53.511719 C 81.953125 52.355469 83.375 51.902344 84.523438 52.503906 C 85.671875 53.109375 86.109375 54.535156 85.5 55.691406 C 84.894531 56.847656 83.472656 57.300781 82.324219 56.699219 C 81.175781 56.09375 80.738281 54.667969 81.34375 53.511719 " fill-opacity="1" fill-rule="nonzero"/></g></g></g></g><g clip-path="url(#1961ff5808)"><g clip-path="url(#468dbd035f)"><g clip-path="url(#f7cc785b7c)"><g clip-path="url(#888b551ff4)"><path fill="#ffffff" d="M 124.097656 63.433594 C 124.09375 61.757812 123.539062 59.992188 122.136719 58.417969 C 120.800781 56.921875 119.164062 56.230469 117.527344 56.042969 C 116.65625 55.945312 115.839844 56.011719 115.082031 56.246094 C 113.960938 56.589844 113.578125 57.988281 114.355469 58.859375 C 114.878906 59.445312 115.691406 59.691406 116.449219 59.476562 C 116.9375 59.339844 117.402344 59.300781 117.84375 59.359375 C 118.660156 59.46875 119.375 59.871094 119.996094 60.566406 C 120.640625 61.289062 120.964844 62.035156 120.964844 62.804688 C 120.960938 63.574219 120.695312 64.199219 120.160156 64.679688 C 119.777344 65.027344 119.320312 65.222656 118.785156 65.269531 C 118.445312 65.296875 117.589844 65.203125 116.226562 64.992188 C 115.015625 64.804688 114.046875 64.777344 113.3125 64.917969 C 113.167969 64.945312 113.027344 64.984375 112.886719 65.03125 C 112.1875 65.277344 110.808594 66.566406 109.640625 67.519531 C 108.894531 68.128906 108.636719 69.0625 109.265625 69.785156 L 109.429688 69.96875 C 110.027344 70.65625 111.066406 70.742188 111.78125 70.160156 C 112.753906 69.371094 113.738281 68.316406 114.007812 68.234375 C 114.425781 68.109375 115.132812 68.121094 116.132812 68.261719 C 118.0625 68.539062 119.449219 68.605469 120.292969 68.460938 C 121.136719 68.3125 121.863281 67.96875 122.46875 67.421875 C 123.5625 66.433594 124.105469 65.105469 124.097656 63.433594 " fill-opacity="1" fill-rule="nonzero"/></g></g></g></g><g clip-path="url(#57e520026f)"><g clip-path="url(#cf84b17f28)"><g clip-path="url(#9ca1cf4aae)"><g clip-path="url(#15fc379346)"><path fill="#ffffff" d="M 105.429688 71.097656 C 106.25 70.355469 107.507812 70.417969 108.242188 71.238281 C 108.972656 72.058594 108.902344 73.324219 108.082031 74.066406 C 107.257812 74.804688 106 74.742188 105.269531 73.921875 C 104.535156 73.101562 104.609375 71.835938 105.429688 71.097656 " fill-opacity="1" fill-rule="nonzero"/></g></g></g></g><g clip-path="url(#67dc66bc9a)"><g clip-path="url(#2392d13f23)"><g clip-path="url(#e2a3cf2639)"><g clip-path="url(#cfadfec17a)"><path fill="#ffffff" d="M 61.316406 27.113281 C 60.371094 26.015625 59.011719 25.164062 57.195312 24.921875 C 55.46875 24.695312 53.988281 25.164062 52.796875 25.96875 C 52.160156 26.398438 51.652344 26.902344 51.28125 27.484375 C 50.730469 28.347656 51.257812 29.484375 52.261719 29.617188 C 52.941406 29.707031 53.617188 29.40625 54.003906 28.835938 C 54.25 28.472656 54.539062 28.183594 54.867188 27.972656 C 55.46875 27.582031 56.171875 27.441406 56.976562 27.546875 C 57.8125 27.65625 58.441406 27.964844 58.875 28.472656 C 59.304688 28.980469 59.476562 29.542969 59.390625 30.160156 C 59.332031 30.605469 59.136719 30.996094 58.808594 31.328125 C 58.59375 31.539062 57.976562 31.960938 56.949219 32.59375 C 56.035156 33.15625 55.375 33.6875 54.964844 34.195312 C 54.882812 34.292969 54.8125 34.402344 54.746094 34.511719 C 54.417969 35.066406 54.222656 36.695312 53.980469 37.984375 C 53.824219 38.808594 54.175781 39.566406 55.003906 39.6875 L 55.210938 39.71875 C 55.996094 39.832031 56.738281 39.300781 56.886719 38.511719 C 57.089844 37.441406 57.152344 36.191406 57.289062 35.984375 C 57.496094 35.664062 57.972656 35.269531 58.71875 34.800781 C 60.160156 33.890625 61.121094 33.148438 61.601562 32.574219 C 62.082031 32 62.371094 31.363281 62.464844 30.660156 C 62.640625 29.390625 62.257812 28.207031 61.316406 27.113281 " fill-opacity="1" fill-rule="nonzero"/></g></g></g></g><g clip-path="url(#dca10b4904)"><g clip-path="url(#9049288761)"><g clip-path="url(#a684c6907d)"><g clip-path="url(#ece6a3a79b)"><path fill="#ffffff" d="M 53.183594 42.722656 C 53.3125 41.769531 54.1875 41.101562 55.132812 41.226562 C 56.082031 41.351562 56.742188 42.222656 56.609375 43.175781 C 56.480469 44.128906 55.605469 44.800781 54.660156 44.675781 C 53.710938 44.550781 53.050781 43.675781 53.183594 42.722656 " fill-opacity="1" fill-rule="nonzero"/></g></g></g></g><g fill="#ffffff" fill-opacity="1"><g transform="translate(146.567141, 89.870191)"><g><path d="M 21.03125 -2.859375 L 20 -5.09375 L 8 -5.09375 L 7.0625 -2.90625 L 6.796875 -2.234375 C 6.054688 -0.628906 4.9375 0.171875 3.4375 0.171875 C 2.519531 0.171875 1.71875 -0.144531 1.03125 -0.78125 C 0.34375 -1.425781 0 -2.195312 0 -3.09375 C 0 -3.65625 0.160156 -4.296875 0.484375 -5.015625 L 0.8125 -5.6875 L 10.6875 -27.828125 C 11.3125 -29.222656 12.398438 -29.921875 13.953125 -29.921875 C 14.671875 -29.921875 15.320312 -29.742188 15.90625 -29.390625 C 16.488281 -29.035156 16.925781 -28.515625 17.21875 -27.828125 L 27.375 -5.765625 C 27.707031 -5.054688 27.914062 -4.535156 28 -4.203125 C 28.09375 -3.878906 28.140625 -3.507812 28.140625 -3.09375 C 28.140625 -2.195312 27.796875 -1.421875 27.109375 -0.765625 C 26.421875 -0.109375 25.613281 0.21875 24.6875 0.21875 C 23.164062 0.21875 22.050781 -0.566406 21.34375 -2.140625 Z M 17.625 -11 L 14 -19.59375 L 10.46875 -11 Z M 17.625 -11 "/></g></g></g><g fill="#ffffff" fill-opacity="1"><g transform="translate(173.00271, 89.870191)"><g><path d="M 2.6875 -26.53125 C 2.6875 -27.539062 2.960938 -28.34375 3.515625 -28.9375 C 4.066406 -29.539062 4.789062 -29.84375 5.6875 -29.84375 C 6.570312 -29.84375 7.285156 -29.535156 7.828125 -28.921875 C 8.367188 -28.304688 8.640625 -27.507812 8.640625 -26.53125 L 8.640625 -3.125 C 8.640625 -2.050781 8.375 -1.207031 7.84375 -0.59375 C 7.320312 0.0078125 6.601562 0.3125 5.6875 0.3125 C 4.789062 0.3125 4.066406 0.0078125 3.515625 -0.59375 C 2.960938 -1.207031 2.6875 -2.007812 2.6875 -3 Z M 2.6875 -26.53125 "/></g></g></g><g fill="#ffffff" fill-opacity="1"><g transform="translate(182.664336, 89.870191)"><g><path d="M 21.875 -3.21875 C 21.875 -1.582031 21.734375 -0.207031 21.453125 0.90625 C 21.171875 2.03125 20.710938 2.976562 20.078125 3.75 C 19.097656 4.976562 17.863281 5.921875 16.375 6.578125 C 14.882812 7.234375 13.242188 7.5625 11.453125 7.5625 C 10.253906 7.5625 9.117188 7.425781 8.046875 7.15625 C 6.972656 6.882812 6.023438 6.507812 5.203125 6.03125 C 4.390625 5.5625 3.742188 5.007812 3.265625 4.375 C 2.785156 3.75 2.546875 3.097656 2.546875 2.421875 C 2.546875 1.609375 2.820312 0.921875 3.375 0.359375 C 3.925781 -0.203125 4.601562 -0.484375 5.40625 -0.484375 C 5.851562 -0.484375 6.253906 -0.410156 6.609375 -0.265625 C 6.972656 -0.117188 7.484375 0.191406 8.140625 0.671875 C 8.828125 1.148438 9.421875 1.484375 9.921875 1.671875 C 10.429688 1.867188 11.03125 1.96875 11.71875 1.96875 C 13.0625 1.96875 14.097656 1.550781 14.828125 0.71875 C 15.554688 -0.113281 15.921875 -1.304688 15.921875 -2.859375 L 15.921875 -3.21875 C 15.054688 -2.59375 14.207031 -2.140625 13.375 -1.859375 C 12.539062 -1.578125 11.601562 -1.4375 10.5625 -1.4375 C 9.21875 -1.4375 7.976562 -1.6875 6.84375 -2.1875 C 5.707031 -2.695312 4.722656 -3.398438 3.890625 -4.296875 C 3.054688 -5.191406 2.398438 -6.242188 1.921875 -7.453125 C 1.441406 -8.660156 1.203125 -9.960938 1.203125 -11.359375 C 1.203125 -12.796875 1.441406 -14.140625 1.921875 -15.390625 C 2.398438 -16.640625 3.046875 -17.726562 3.859375 -18.65625 C 4.679688 -19.582031 5.660156 -20.304688 6.796875 -20.828125 C 7.929688 -21.347656 9.15625 -21.609375 10.46875 -21.609375 C 11.601562 -21.609375 12.609375 -21.457031 13.484375 -21.15625 C 14.367188 -20.863281 15.316406 -20.34375 16.328125 -19.59375 C 16.566406 -20.1875 16.914062 -20.644531 17.375 -20.96875 C 17.84375 -21.300781 18.375 -21.46875 18.96875 -21.46875 C 19.414062 -21.46875 19.847656 -21.363281 20.265625 -21.15625 C 20.679688 -20.945312 21.023438 -20.648438 21.296875 -20.265625 C 21.535156 -19.929688 21.691406 -19.597656 21.765625 -19.265625 C 21.835938 -18.941406 21.875 -18.46875 21.875 -17.84375 Z M 11.8125 -15.875 C 11.21875 -15.875 10.65625 -15.757812 10.125 -15.53125 C 9.601562 -15.3125 9.140625 -15.007812 8.734375 -14.625 C 8.335938 -14.238281 8.023438 -13.773438 7.796875 -13.234375 C 7.578125 -12.703125 7.46875 -12.140625 7.46875 -11.546875 C 7.46875 -10.285156 7.882812 -9.238281 8.71875 -8.40625 C 9.550781 -7.570312 10.582031 -7.15625 11.8125 -7.15625 C 13.03125 -7.15625 14.054688 -7.570312 14.890625 -8.40625 C 15.734375 -9.238281 16.15625 -10.269531 16.15625 -11.5 C 16.15625 -12.71875 15.734375 -13.75 14.890625 -14.59375 C 14.054688 -15.445312 13.03125 -15.875 11.8125 -15.875 Z M 11.8125 -15.875 "/></g></g></g><g fill="#ffffff" fill-opacity="1"><g transform="translate(205.432004, 89.870191)"><g><path d="M 12.390625 -21.609375 C 13.910156 -21.609375 15.34375 -21.316406 16.6875 -20.734375 C 18.03125 -20.148438 19.203125 -19.359375 20.203125 -18.359375 C 21.203125 -17.359375 21.988281 -16.1875 22.5625 -14.84375 C 23.144531 -13.507812 23.4375 -12.066406 23.4375 -10.515625 C 23.4375 -9.023438 23.144531 -7.613281 22.5625 -6.28125 C 21.988281 -4.957031 21.191406 -3.796875 20.171875 -2.796875 C 19.160156 -1.796875 17.984375 -1.003906 16.640625 -0.421875 C 15.296875 0.160156 13.863281 0.453125 12.34375 0.453125 C 10.820312 0.453125 9.382812 0.171875 8.03125 -0.390625 C 6.675781 -0.960938 5.5 -1.738281 4.5 -2.71875 C 3.5 -3.707031 2.695312 -4.859375 2.09375 -6.171875 C 1.5 -7.484375 1.203125 -8.882812 1.203125 -10.375 C 1.203125 -11.957031 1.492188 -13.429688 2.078125 -14.796875 C 2.660156 -16.171875 3.453125 -17.359375 4.453125 -18.359375 C 5.453125 -19.359375 6.628906 -20.148438 7.984375 -20.734375 C 9.335938 -21.316406 10.804688 -21.609375 12.390625 -21.609375 Z M 12.390625 -15.65625 C 11.671875 -15.65625 11 -15.519531 10.375 -15.25 C 9.75 -14.988281 9.203125 -14.625 8.734375 -14.15625 C 8.273438 -13.695312 7.921875 -13.15625 7.671875 -12.53125 C 7.421875 -11.90625 7.296875 -11.21875 7.296875 -10.46875 C 7.296875 -9.8125 7.425781 -9.179688 7.6875 -8.578125 C 7.957031 -7.984375 8.320312 -7.460938 8.78125 -7.015625 C 9.25 -6.578125 9.785156 -6.226562 10.390625 -5.96875 C 11.003906 -5.71875 11.65625 -5.59375 12.34375 -5.59375 C 13.03125 -5.59375 13.675781 -5.722656 14.28125 -5.984375 C 14.894531 -6.253906 15.429688 -6.613281 15.890625 -7.0625 C 16.359375 -7.507812 16.726562 -8.039062 17 -8.65625 C 17.269531 -9.269531 17.40625 -9.921875 17.40625 -10.609375 C 17.40625 -11.316406 17.269531 -11.976562 17 -12.59375 C 16.726562 -13.207031 16.367188 -13.738281 15.921875 -14.1875 C 15.472656 -14.632812 14.941406 -14.988281 14.328125 -15.25 C 13.722656 -15.519531 13.078125 -15.65625 12.390625 -15.65625 Z M 12.390625 -15.65625 "/></g></g></g><g fill="#ffffff" fill-opacity="1"><g transform="translate(228.423323, 89.870191)"><g/></g></g><g fill="#ffffff" fill-opacity="1"><g transform="translate(238.398065, 89.870191)"><g><path d="M 2.234375 -9.96875 L 2.234375 -13.78125 L 22.5 -23.4375 L 22.5 -18.78125 L 7.34375 -11.90625 L 7.34375 -11.8125 L 22.5 -4.96875 L 22.5 -0.3125 Z M 2.234375 -9.96875 "/></g></g></g><g fill="#ffffff" fill-opacity="1"><g transform="translate(261.478849, 89.870191)"><g><path d="M 9.03125 -4.296875 L 9.03125 -23.578125 L 3.484375 -23.578125 C 2.410156 -23.609375 1.5625 -23.898438 0.9375 -24.453125 C 0.3125 -25.003906 0 -25.753906 0 -26.703125 C 0 -27.628906 0.316406 -28.382812 0.953125 -28.96875 C 1.597656 -29.550781 2.441406 -29.84375 3.484375 -29.84375 L 21.421875 -29.84375 C 22.472656 -29.8125 23.316406 -29.519531 23.953125 -28.96875 C 24.597656 -28.414062 24.921875 -27.660156 24.921875 -26.703125 C 24.921875 -25.753906 24.597656 -24.992188 23.953125 -24.421875 C 23.316406 -23.859375 22.472656 -23.578125 21.421875 -23.578125 L 15.875 -23.578125 L 15.875 -3.53125 C 15.851562 -2.375 15.535156 -1.441406 14.921875 -0.734375 C 14.304688 -0.0351562 13.476562 0.3125 12.4375 0.3125 C 11.425781 0.3125 10.601562 -0.0390625 9.96875 -0.75 C 9.34375 -1.46875 9.03125 -2.394531 9.03125 -3.53125 Z M 9.03125 -4.296875 "/></g></g></g><g fill="#ffffff" fill-opacity="1"><g transform="translate(284.738563, 89.870191)"><g><path d="M 2.6875 -3.671875 L 2.6875 -17.140625 C 2.6875 -17.578125 2.691406 -17.9375 2.703125 -18.21875 C 2.722656 -18.507812 2.738281 -18.75 2.75 -18.9375 C 2.769531 -19.132812 2.804688 -19.304688 2.859375 -19.453125 C 2.921875 -19.609375 3 -19.757812 3.09375 -19.90625 C 3.6875 -20.945312 4.535156 -21.46875 5.640625 -21.46875 C 6.859375 -21.46875 7.765625 -20.890625 8.359375 -19.734375 C 9.796875 -20.984375 11.332031 -21.609375 12.96875 -21.609375 C 13.507812 -21.609375 14.007812 -21.507812 14.46875 -21.3125 C 14.9375 -21.125 15.335938 -20.863281 15.671875 -20.53125 C 16.015625 -20.207031 16.289062 -19.820312 16.5 -19.375 C 16.707031 -18.925781 16.8125 -18.445312 16.8125 -17.9375 C 16.8125 -16.957031 16.460938 -16.125 15.765625 -15.4375 C 15.066406 -14.75 14.222656 -14.40625 13.234375 -14.40625 C 12.816406 -14.40625 12.492188 -14.445312 12.265625 -14.53125 C 12.046875 -14.625 11.65625 -14.835938 11.09375 -15.171875 C 10.644531 -15.429688 10.257812 -15.5625 9.9375 -15.5625 C 9.457031 -15.5625 9.117188 -15.351562 8.921875 -14.9375 C 8.734375 -14.519531 8.640625 -13.820312 8.640625 -12.84375 L 8.640625 -3 C 8.609375 -1.976562 8.328125 -1.171875 7.796875 -0.578125 C 7.273438 0.015625 6.570312 0.3125 5.6875 0.3125 C 4.789062 0.3125 4.066406 0.0078125 3.515625 -0.59375 C 2.960938 -1.207031 2.6875 -2.007812 2.6875 -3 Z M 2.6875 -3.671875 "/></g></g></g><g fill="#ffffff" fill-opacity="1"><g transform="translate(299.902043, 89.870191)"><g><path d="M 19.5 -3.671875 C 19.5 -2.890625 19.453125 -2.3125 19.359375 -1.9375 C 19.273438 -1.570312 19.097656 -1.207031 18.828125 -0.84375 C 18.234375 -0.0703125 17.429688 0.3125 16.421875 0.3125 C 15.796875 0.3125 15.257812 0.171875 14.8125 -0.109375 C 14.363281 -0.390625 13.972656 -0.859375 13.640625 -1.515625 C 12.773438 -0.828125 11.941406 -0.332031 11.140625 -0.03125 C 10.335938 0.257812 9.488281 0.40625 8.59375 0.40625 C 7.539062 0.40625 6.566406 0.210938 5.671875 -0.171875 C 4.785156 -0.566406 4.003906 -1.113281 3.328125 -1.8125 C 2.660156 -2.507812 2.140625 -3.320312 1.765625 -4.25 C 1.390625 -5.175781 1.203125 -6.175781 1.203125 -7.25 C 1.203125 -8.351562 1.40625 -9.378906 1.8125 -10.328125 C 2.21875 -11.285156 2.769531 -12.113281 3.46875 -12.8125 C 4.164062 -13.519531 4.984375 -14.070312 5.921875 -14.46875 C 6.867188 -14.875 7.890625 -15.078125 8.984375 -15.078125 C 9.734375 -15.078125 10.457031 -14.972656 11.15625 -14.765625 C 11.863281 -14.554688 12.617188 -14.242188 13.421875 -13.828125 C 13.421875 -14.929688 13.21875 -15.703125 12.8125 -16.140625 C 12.414062 -16.585938 11.738281 -16.8125 10.78125 -16.8125 C 10.300781 -16.8125 9.765625 -16.738281 9.171875 -16.59375 L 7.734375 -16.1875 C 7.316406 -16.039062 6.96875 -15.945312 6.6875 -15.90625 C 6.40625 -15.863281 6.144531 -15.84375 5.90625 -15.84375 C 5.21875 -15.84375 4.65625 -16.0625 4.21875 -16.5 C 3.789062 -16.945312 3.578125 -17.515625 3.578125 -18.203125 C 3.578125 -19.367188 4.234375 -20.300781 5.546875 -21 C 6.859375 -21.695312 8.570312 -22.046875 10.6875 -22.046875 C 12.15625 -22.046875 13.488281 -21.84375 14.6875 -21.4375 C 15.894531 -21.039062 16.890625 -20.457031 17.671875 -19.6875 C 18.328125 -19 18.796875 -18.15625 19.078125 -17.15625 C 19.359375 -16.15625 19.5 -14.847656 19.5 -13.234375 Z M 13.421875 -7.421875 C 13.421875 -8.285156 13.144531 -9.015625 12.59375 -9.609375 C 12.039062 -10.210938 11.332031 -10.515625 10.46875 -10.515625 C 9.664062 -10.515625 8.976562 -10.222656 8.40625 -9.640625 C 7.84375 -9.054688 7.5625 -8.347656 7.5625 -7.515625 C 7.5625 -6.648438 7.84375 -5.929688 8.40625 -5.359375 C 8.976562 -4.796875 9.695312 -4.515625 10.5625 -4.515625 C 11.394531 -4.515625 12.078125 -4.789062 12.609375 -5.34375 C 13.148438 -5.894531 13.421875 -6.585938 13.421875 -7.421875 Z M 13.421875 -7.421875 "/></g></g></g><g fill="#ffffff" fill-opacity="1"><g transform="translate(320.254268, 89.870191)"><g><path d="M 2.78125 -3.671875 L 2.78125 -18.15625 C 2.800781 -19.175781 3.078125 -19.984375 3.609375 -20.578125 C 4.148438 -21.171875 4.851562 -21.46875 5.71875 -21.46875 C 6.613281 -21.46875 7.335938 -21.160156 7.890625 -20.546875 C 8.441406 -19.941406 8.71875 -19.144531 8.71875 -18.15625 L 8.71875 -3 C 8.6875 -1.976562 8.398438 -1.171875 7.859375 -0.578125 C 7.328125 0.015625 6.628906 0.3125 5.765625 0.3125 C 4.867188 0.3125 4.144531 0.0078125 3.59375 -0.59375 C 3.050781 -1.207031 2.78125 -2.007812 2.78125 -3 Z M 5.71875 -29.875 C 6.707031 -29.875 7.546875 -29.53125 8.234375 -28.84375 C 8.921875 -28.164062 9.265625 -27.332031 9.265625 -26.34375 C 9.265625 -25.363281 8.910156 -24.519531 8.203125 -23.8125 C 7.503906 -23.113281 6.648438 -22.765625 5.640625 -22.765625 C 5.160156 -22.765625 4.703125 -22.859375 4.265625 -23.046875 C 3.835938 -23.242188 3.457031 -23.5 3.125 -23.8125 C 2.800781 -24.132812 2.539062 -24.503906 2.34375 -24.921875 C 2.15625 -25.335938 2.0625 -25.785156 2.0625 -26.265625 C 2.0625 -27.304688 2.410156 -28.164062 3.109375 -28.84375 C 3.804688 -29.53125 4.675781 -29.875 5.71875 -29.875 Z M 5.71875 -29.875 "/></g></g></g><g fill="#ffffff" fill-opacity="1"><g transform="translate(329.915893, 89.870191)"><g><path d="M 5.859375 2.640625 C 5.410156 4.191406 4.488281 4.96875 3.09375 4.96875 C 2.3125 4.96875 1.660156 4.710938 1.140625 4.203125 C 0.617188 3.691406 0.359375 3.050781 0.359375 2.28125 C 0.359375 2.132812 0.375 1.957031 0.40625 1.75 C 0.4375 1.539062 0.476562 1.359375 0.53125 1.203125 L 0.71875 0.578125 L 9.3125 -31.578125 L 9.484375 -32.203125 C 9.929688 -33.785156 10.84375 -34.578125 12.21875 -34.578125 C 12.988281 -34.578125 13.632812 -34.320312 14.15625 -33.8125 C 14.675781 -33.3125 14.9375 -32.671875 14.9375 -31.890625 C 14.9375 -31.503906 14.894531 -31.132812 14.8125 -30.78125 L 14.71875 -30.46875 L 6.046875 1.96875 Z M 5.859375 2.640625 "/></g></g></g><g fill="#ffffff" fill-opacity="1"><g transform="translate(343.603272, 89.870191)"><g><path d="M 2.234375 -4.921875 L 17.71875 -11.8125 L 17.71875 -11.90625 L 2.234375 -18.828125 L 2.234375 -23.4375 L 22.5 -13.90625 L 22.5 -9.796875 L 2.234375 -0.3125 Z M 2.234375 -4.921875 "/></g></g></g></svg>