<svg xmlns="http://www.w3.org/2000/svg" xmlns:xlink="http://www.w3.org/1999/xlink" width="500" zoomAndPan="magnify" viewBox="0 0 375 374.999991" height="500" preserveAspectRatio="xMidYMid meet" version="1.0"><defs><g/><clipPath id="a215e9d63d"><path d="M 258 73.273438 L 283 73.273438 L 283 104 L 258 104 Z M 258 73.273438 " clip-rule="nonzero"/></clipPath><clipPath id="a59b3532c5"><path d="M 153 268 L 175 268 L 175 278.773438 L 153 278.773438 Z M 153 268 " clip-rule="nonzero"/></clipPath><clipPath id="e630073d51"><path d="M 206 268 L 227 268 L 227 278.773438 L 206 278.773438 Z M 206 268 " clip-rule="nonzero"/></clipPath><clipPath id="421d44c3b8"><path d="M 142 7 L 223 7 L 223 105 L 142 105 Z M 142 7 " clip-rule="nonzero"/></clipPath><clipPath id="dc4bbf58a0"><path d="M 173.605469 -21.785156 L 358.917969 75.402344 L 310.148438 168.386719 L 124.835938 71.203125 Z M 173.605469 -21.785156 " clip-rule="nonzero"/></clipPath><clipPath id="0bc2a0a5a1"><path d="M 173.605469 -21.785156 L 358.917969 75.402344 L 310.148438 168.386719 L 124.835938 71.203125 Z M 173.605469 -21.785156 " clip-rule="nonzero"/></clipPath><clipPath id="e6ae48013c"><path d="M 173.605469 -21.785156 L 358.917969 75.402344 L 310.148438 168.386719 L 124.835938 71.203125 Z M 173.605469 -21.785156 " clip-rule="nonzero"/></clipPath><clipPath id="6a73d7f930"><path d="M 142 8 L 191 8 L 191 105 L 142 105 Z M 142 8 " clip-rule="nonzero"/></clipPath><clipPath id="557ddc322f"><path d="M 173.605469 -21.785156 L 358.917969 75.402344 L 310.148438 168.386719 L 124.835938 71.203125 Z M 173.605469 -21.785156 " clip-rule="nonzero"/></clipPath><clipPath id="a2c76d2b25"><path d="M 173.605469 -21.785156 L 358.917969 75.402344 L 310.148438 168.386719 L 124.835938 71.203125 Z M 173.605469 -21.785156 " clip-rule="nonzero"/></clipPath><clipPath id="9a38e10c12"><path d="M 173.605469 -21.785156 L 358.917969 75.402344 L 310.148438 168.386719 L 124.835938 71.203125 Z M 173.605469 -21.785156 " clip-rule="nonzero"/></clipPath><clipPath id="6eb6ff13ab"><path d="M 250 66 L 342 66 L 342 154 L 250 154 Z M 250 66 " clip-rule="nonzero"/></clipPath><clipPath id="81ce212805"><path d="M 173.605469 -21.785156 L 358.917969 75.402344 L 310.148438 168.386719 L 124.835938 71.203125 Z M 173.605469 -21.785156 " clip-rule="nonzero"/></clipPath><clipPath id="527e7eed37"><path d="M 173.605469 -21.785156 L 358.917969 75.402344 L 310.148438 168.386719 L 124.835938 71.203125 Z M 173.605469 -21.785156 " clip-rule="nonzero"/></clipPath><clipPath id="338c85c827"><path d="M 173.605469 -21.785156 L 358.917969 75.402344 L 310.148438 168.386719 L 124.835938 71.203125 Z M 173.605469 -21.785156 " clip-rule="nonzero"/></clipPath><clipPath id="c7b4ddadef"><path d="M 250 99 L 342 99 L 342 154 L 250 154 Z M 250 99 " clip-rule="nonzero"/></clipPath><clipPath id="242da69466"><path d="M 173.605469 -21.785156 L 358.917969 75.402344 L 310.148438 168.386719 L 124.835938 71.203125 Z M 173.605469 -21.785156 " clip-rule="nonzero"/></clipPath><clipPath id="72cea0fc22"><path d="M 173.605469 -21.785156 L 358.917969 75.402344 L 310.148438 168.386719 L 124.835938 71.203125 Z M 173.605469 -21.785156 " clip-rule="nonzero"/></clipPath><clipPath id="7860a69814"><path d="M 173.605469 -21.785156 L 358.917969 75.402344 L 310.148438 168.386719 L 124.835938 71.203125 Z M 173.605469 -21.785156 " clip-rule="nonzero"/></clipPath><clipPath id="857cdbcff3"><path d="M 195 24 L 296 24 L 296 112 L 195 112 Z M 195 24 " clip-rule="nonzero"/></clipPath><clipPath id="3d0d3cee00"><path d="M 173.605469 -21.785156 L 358.917969 75.402344 L 310.148438 168.386719 L 124.835938 71.203125 Z M 173.605469 -21.785156 " clip-rule="nonzero"/></clipPath><clipPath id="e2c5a8ddb5"><path d="M 173.605469 -21.785156 L 358.917969 75.402344 L 310.148438 168.386719 L 124.835938 71.203125 Z M 173.605469 -21.785156 " clip-rule="nonzero"/></clipPath><clipPath id="07f18b5a0c"><path d="M 173.605469 -21.785156 L 358.917969 75.402344 L 310.148438 168.386719 L 124.835938 71.203125 Z M 173.605469 -21.785156 " clip-rule="nonzero"/></clipPath><clipPath id="225f8b1484"><path d="M 193 24 L 223 24 L 223 85 L 193 85 Z M 193 24 " clip-rule="nonzero"/></clipPath><clipPath id="510e96be95"><path d="M 173.605469 -21.785156 L 358.917969 75.402344 L 310.148438 168.386719 L 124.835938 71.203125 Z M 173.605469 -21.785156 " clip-rule="nonzero"/></clipPath><clipPath id="a2499ff840"><path d="M 173.605469 -21.785156 L 358.917969 75.402344 L 310.148438 168.386719 L 124.835938 71.203125 Z M 173.605469 -21.785156 " clip-rule="nonzero"/></clipPath><clipPath id="c194f138ec"><path d="M 173.605469 -21.785156 L 358.917969 75.402344 L 310.148438 168.386719 L 124.835938 71.203125 Z M 173.605469 -21.785156 " clip-rule="nonzero"/></clipPath><clipPath id="c28869790d"><path d="M 251 66 L 296 66 L 296 116 L 251 116 Z M 251 66 " clip-rule="nonzero"/></clipPath><clipPath id="6b5e16e9a9"><path d="M 173.605469 -21.785156 L 358.917969 75.402344 L 310.148438 168.386719 L 124.835938 71.203125 Z M 173.605469 -21.785156 " clip-rule="nonzero"/></clipPath><clipPath id="dbc062aefe"><path d="M 173.605469 -21.785156 L 358.917969 75.402344 L 310.148438 168.386719 L 124.835938 71.203125 Z M 173.605469 -21.785156 " clip-rule="nonzero"/></clipPath><clipPath id="eba39678b0"><path d="M 173.605469 -21.785156 L 358.917969 75.402344 L 310.148438 168.386719 L 124.835938 71.203125 Z M 173.605469 -21.785156 " clip-rule="nonzero"/></clipPath><clipPath id="97c42453a6"><path d="M 196 11 L 301 11 L 301 117 L 196 117 Z M 196 11 " clip-rule="nonzero"/></clipPath><clipPath id="df015634a7"><path d="M 173.605469 -21.785156 L 358.917969 75.402344 L 310.148438 168.386719 L 124.835938 71.203125 Z M 173.605469 -21.785156 " clip-rule="nonzero"/></clipPath><clipPath id="a1b2192517"><path d="M 173.605469 -21.785156 L 358.917969 75.402344 L 310.148438 168.386719 L 124.835938 71.203125 Z M 173.605469 -21.785156 " clip-rule="nonzero"/></clipPath><clipPath id="3b5dff475f"><path d="M 173.605469 -21.785156 L 358.917969 75.402344 L 310.148438 168.386719 L 124.835938 71.203125 Z M 173.605469 -21.785156 " clip-rule="nonzero"/></clipPath><clipPath id="2a0db37469"><path d="M 196 76 L 225 76 L 225 97 L 196 97 Z M 196 76 " clip-rule="nonzero"/></clipPath><clipPath id="91e1079527"><path d="M 173.605469 -21.785156 L 358.917969 75.402344 L 310.148438 168.386719 L 124.835938 71.203125 Z M 173.605469 -21.785156 " clip-rule="nonzero"/></clipPath><clipPath id="922f6963d3"><path d="M 173.605469 -21.785156 L 358.917969 75.402344 L 310.148438 168.386719 L 124.835938 71.203125 Z M 173.605469 -21.785156 " clip-rule="nonzero"/></clipPath><clipPath id="658b45e34b"><path d="M 173.605469 -21.785156 L 358.917969 75.402344 L 310.148438 168.386719 L 124.835938 71.203125 Z M 173.605469 -21.785156 " clip-rule="nonzero"/></clipPath><clipPath id="beed07717a"><path d="M 224 48 L 301 48 L 301 117 L 224 117 Z M 224 48 " clip-rule="nonzero"/></clipPath><clipPath id="37f24d346e"><path d="M 173.605469 -21.785156 L 358.917969 75.402344 L 310.148438 168.386719 L 124.835938 71.203125 Z M 173.605469 -21.785156 " clip-rule="nonzero"/></clipPath><clipPath id="e51d91507b"><path d="M 173.605469 -21.785156 L 358.917969 75.402344 L 310.148438 168.386719 L 124.835938 71.203125 Z M 173.605469 -21.785156 " clip-rule="nonzero"/></clipPath><clipPath id="cb0b306cae"><path d="M 173.605469 -21.785156 L 358.917969 75.402344 L 310.148438 168.386719 L 124.835938 71.203125 Z M 173.605469 -21.785156 " clip-rule="nonzero"/></clipPath><clipPath id="bf3fdfc17b"><path d="M 238 40 L 269 40 L 269 79 L 238 79 Z M 238 40 " clip-rule="nonzero"/></clipPath><clipPath id="a79a2193ef"><path d="M 173.605469 -21.785156 L 358.917969 75.402344 L 310.148438 168.386719 L 124.835938 71.203125 Z M 173.605469 -21.785156 " clip-rule="nonzero"/></clipPath><clipPath id="f9ac283a08"><path d="M 173.605469 -21.785156 L 358.917969 75.402344 L 310.148438 168.386719 L 124.835938 71.203125 Z M 173.605469 -21.785156 " clip-rule="nonzero"/></clipPath><clipPath id="55539b5083"><path d="M 173.605469 -21.785156 L 358.917969 75.402344 L 310.148438 168.386719 L 124.835938 71.203125 Z M 173.605469 -21.785156 " clip-rule="nonzero"/></clipPath><clipPath id="bdbcd08651"><path d="M 232 81 L 242 81 L 242 91 L 232 91 Z M 232 81 " clip-rule="nonzero"/></clipPath><clipPath id="69e8ac639a"><path d="M 173.605469 -21.785156 L 358.917969 75.402344 L 310.148438 168.386719 L 124.835938 71.203125 Z M 173.605469 -21.785156 " clip-rule="nonzero"/></clipPath><clipPath id="d78dfe6e7f"><path d="M 173.605469 -21.785156 L 358.917969 75.402344 L 310.148438 168.386719 L 124.835938 71.203125 Z M 173.605469 -21.785156 " clip-rule="nonzero"/></clipPath><clipPath id="195d2a354c"><path d="M 173.605469 -21.785156 L 358.917969 75.402344 L 310.148438 168.386719 L 124.835938 71.203125 Z M 173.605469 -21.785156 " clip-rule="nonzero"/></clipPath><clipPath id="f0323c40de"><path d="M 287 88 L 318 88 L 318 118 L 287 118 Z M 287 88 " clip-rule="nonzero"/></clipPath><clipPath id="bb4add8ca4"><path d="M 173.605469 -21.785156 L 358.917969 75.402344 L 310.148438 168.386719 L 124.835938 71.203125 Z M 173.605469 -21.785156 " clip-rule="nonzero"/></clipPath><clipPath id="a91834e588"><path d="M 173.605469 -21.785156 L 358.917969 75.402344 L 310.148438 168.386719 L 124.835938 71.203125 Z M 173.605469 -21.785156 " clip-rule="nonzero"/></clipPath><clipPath id="1879505fa9"><path d="M 173.605469 -21.785156 L 358.917969 75.402344 L 310.148438 168.386719 L 124.835938 71.203125 Z M 173.605469 -21.785156 " clip-rule="nonzero"/></clipPath><clipPath id="64553e5d6a"><path d="M 279 117 L 287 117 L 287 126 L 279 126 Z M 279 117 " clip-rule="nonzero"/></clipPath><clipPath id="2606693478"><path d="M 173.605469 -21.785156 L 358.917969 75.402344 L 310.148438 168.386719 L 124.835938 71.203125 Z M 173.605469 -21.785156 " clip-rule="nonzero"/></clipPath><clipPath id="7209c95bfd"><path d="M 173.605469 -21.785156 L 358.917969 75.402344 L 310.148438 168.386719 L 124.835938 71.203125 Z M 173.605469 -21.785156 " clip-rule="nonzero"/></clipPath><clipPath id="99bdc11595"><path d="M 173.605469 -21.785156 L 358.917969 75.402344 L 310.148438 168.386719 L 124.835938 71.203125 Z M 173.605469 -21.785156 " clip-rule="nonzero"/></clipPath><clipPath id="1e4146131e"><path d="M 173 27 L 196 27 L 196 57 L 173 57 Z M 173 27 " clip-rule="nonzero"/></clipPath><clipPath id="99413f545c"><path d="M 173.605469 -21.785156 L 358.917969 75.402344 L 310.148438 168.386719 L 124.835938 71.203125 Z M 173.605469 -21.785156 " clip-rule="nonzero"/></clipPath><clipPath id="258232835f"><path d="M 173.605469 -21.785156 L 358.917969 75.402344 L 310.148438 168.386719 L 124.835938 71.203125 Z M 173.605469 -21.785156 " clip-rule="nonzero"/></clipPath><clipPath id="86a01f238a"><path d="M 173.605469 -21.785156 L 358.917969 75.402344 L 310.148438 168.386719 L 124.835938 71.203125 Z M 173.605469 -21.785156 " clip-rule="nonzero"/></clipPath><clipPath id="1a815ec7d6"><path d="M 177 59 L 185 59 L 185 67 L 177 67 Z M 177 59 " clip-rule="nonzero"/></clipPath><clipPath id="852953a0a7"><path d="M 173.605469 -21.785156 L 358.917969 75.402344 L 310.148438 168.386719 L 124.835938 71.203125 Z M 173.605469 -21.785156 " clip-rule="nonzero"/></clipPath><clipPath id="1fc77b33cc"><path d="M 173.605469 -21.785156 L 358.917969 75.402344 L 310.148438 168.386719 L 124.835938 71.203125 Z M 173.605469 -21.785156 " clip-rule="nonzero"/></clipPath><clipPath id="b5969015ef"><path d="M 173.605469 -21.785156 L 358.917969 75.402344 L 310.148438 168.386719 L 124.835938 71.203125 Z M 173.605469 -21.785156 " clip-rule="nonzero"/></clipPath></defs><path fill="#ffcfca" d="M 196.234375 227.746094 C 196.234375 227.746094 201.925781 234.289062 214.152344 234.339844 C 233.527344 234.421875 238.488281 222.675781 238.488281 222.675781 C 238.488281 222.675781 253.578125 229.480469 263.308594 219.277344 C 273.046875 209.070312 270.707031 196.136719 270.707031 196.136719 C 277.699219 191.957031 282.535156 184.363281 283.347656 176.261719 C 284.164062 168.160156 280.9375 159.761719 274.914062 154.273438 C 276.464844 141.65625 265.589844 128.917969 252.863281 128.464844 C 251.664062 117.597656 244.789062 107.511719 235.105469 102.40625 C 225.421875 97.300781 213.203125 97.324219 203.539062 102.464844 C 200.132812 99.007812 197.601562 96.1875 190.105469 95.582031 C 177.921875 94.597656 172.105469 102.464844 172.105469 102.464844 C 162.441406 97.324219 150.222656 97.300781 140.539062 102.40625 C 130.855469 107.511719 123.980469 117.597656 122.78125 128.464844 C 110.054688 128.917969 99.175781 141.65625 100.730469 154.273438 C 94.707031 159.757812 91.480469 168.160156 92.296875 176.261719 C 93.113281 184.363281 97.945312 191.957031 104.9375 196.136719 C 104.9375 196.136719 102.605469 209.070312 112.335938 219.277344 C 122.070312 229.484375 137.15625 222.675781 137.15625 222.675781 C 137.15625 222.675781 147.398438 235.558594 161.492188 234.339844 C 173.675781 233.289062 179.410156 227.746094 179.410156 227.746094 C 179.410156 227.746094 185.925781 232.554688 196.230469 227.746094 Z M 196.234375 227.746094 " fill-opacity="1" fill-rule="nonzero"/><path fill="#ffa59b" d="M 126.933594 152.34375 C 127.015625 145.367188 133.234375 140.898438 139.957031 142.125 C 141.488281 142.40625 142.925781 141.480469 142.964844 139.839844 C 143.042969 136.550781 144.148438 133.46875 146.644531 131.304688 C 149.582031 128.757812 153.511719 127.59375 157.320312 128.53125 C 160.289062 129.265625 161.554688 124.6875 158.582031 123.957031 C 153.203125 122.628906 147.847656 124.160156 143.625 127.65625 C 140.003906 130.65625 138.316406 135.1875 138.210938 139.839844 L 141.21875 137.550781 C 136.019531 136.601562 131.019531 137.578125 127.011719 141.167969 C 123.816406 144.027344 122.230469 148.117188 122.179688 152.34375 C 122.144531 155.398438 126.898438 155.398438 126.933594 152.34375 Z M 126.933594 152.34375 " fill-opacity="1" fill-rule="nonzero"/><path fill="#ffa59b" d="M 126.710938 201.554688 C 129.265625 206.351562 132.828125 210.71875 137.503906 213.585938 C 142.445312 216.617188 148.65625 217.730469 154.238281 215.972656 C 157.148438 215.058594 155.90625 210.476562 152.976562 211.398438 C 143.363281 214.417969 135.035156 207.085938 130.816406 199.160156 C 129.378906 196.460938 125.273438 198.859375 126.710938 201.558594 Z M 126.710938 201.554688 " fill-opacity="1" fill-rule="nonzero"/><path fill="#ffa59b" d="M 233.375 127.535156 C 234.785156 128.222656 236.175781 128.957031 237.503906 129.804688 C 238.132812 130.203125 238.75 130.625 239.347656 131.078125 C 239.082031 130.878906 239.367188 131.101562 239.480469 131.191406 C 239.625 131.308594 239.769531 131.429688 239.914062 131.546875 C 240.21875 131.808594 240.515625 132.074219 240.804688 132.351562 C 241.300781 132.820312 241.769531 133.316406 242.210938 133.835938 C 242.320312 133.96875 242.429688 134.097656 242.539062 134.230469 C 242.960938 134.753906 242.277344 133.851562 242.664062 134.402344 C 242.855469 134.679688 243.054688 134.957031 243.238281 135.246094 C 243.601562 135.820312 243.933594 136.414062 244.21875 137.03125 C 244.25 137.097656 244.476562 137.707031 244.300781 137.210938 C 244.355469 137.367188 244.421875 137.527344 244.480469 137.6875 C 244.605469 138.039062 244.710938 138.394531 244.808594 138.757812 C 245.136719 139.953125 246.515625 140.808594 247.734375 140.410156 C 248.953125 140.015625 249.742188 138.777344 249.390625 137.492188 C 247.566406 130.765625 241.777344 126.34375 235.769531 123.4375 C 234.652344 122.898438 233.148438 123.09375 232.519531 124.289062 C 231.957031 125.351562 232.175781 126.957031 233.375 127.535156 Z M 233.375 127.535156 " fill-opacity="1" fill-rule="nonzero"/><path fill="#ffa59b" d="M 154.734375 166.820312 C 154.734375 166.820312 153.609375 162.929688 160.847656 161.609375 C 168.082031 160.285156 176.558594 161.5625 174.160156 167.320312 C 171.765625 173.078125 153.675781 173.121094 154.734375 166.820312 Z M 154.734375 166.820312 " fill-opacity="1" fill-rule="nonzero"/><path fill="#ffa59b" d="M 227.976562 159.550781 C 227.976562 159.550781 226.917969 155.640625 234.175781 154.445312 C 241.433594 153.246094 249.882812 154.660156 247.390625 160.375 C 244.898438 166.089844 226.8125 165.832031 227.976562 159.550781 Z M 227.976562 159.550781 " fill-opacity="1" fill-rule="nonzero"/><path fill="#ffffff" d="M 136.945312 129.847656 C 135.976562 131.089844 130.199219 133.671875 129.375 125.355469 C 128.550781 117.039062 139.585938 104.144531 150.59375 105.289062 C 161.605469 106.4375 150.171875 114.207031 145.347656 118.066406 C 140.519531 121.925781 139.25 126.871094 136.945312 129.847656 Z M 136.945312 129.847656 " fill-opacity="1" fill-rule="nonzero"/><path fill="#ffffff" d="M 227.457031 108.34375 C 225.695312 104.714844 218.722656 104.488281 214.816406 105.089844 C 214.378906 105.15625 213.914062 105.25 213.605469 105.570312 C 213.199219 105.992188 213.214844 106.699219 213.5 107.214844 C 213.78125 107.730469 214.273438 108.089844 214.773438 108.40625 C 218.289062 110.648438 222.746094 111.363281 226.789062 110.339844 C 227.269531 110.21875 227.824219 109.984375 227.910156 109.5 C 227.953125 109.261719 227.863281 109.015625 227.75 108.804688 C 227.085938 107.53125 225.46875 106.84375 224.089844 107.246094 " fill-opacity="1" fill-rule="nonzero"/><path fill="#ffffff" d="M 229.503906 107.144531 C 228.234375 104.640625 225.382812 103.371094 222.75 102.871094 C 219.988281 102.347656 217.171875 102.351562 214.398438 102.765625 C 213.402344 102.914062 212.496094 103.273438 211.804688 104.039062 C 210.925781 105.015625 210.71875 106.429688 211.121094 107.660156 C 211.746094 109.574219 213.742188 110.691406 215.476562 111.476562 C 219.007812 113.074219 222.902344 113.554688 226.71875 112.78125 C 227.921875 112.539062 229.132812 112.105469 229.820312 111.007812 C 230.601562 109.765625 230.328125 108.238281 229.480469 107.109375 C 228.074219 105.230469 225.753906 104.363281 223.460938 104.949219 C 222.253906 105.253906 221.410156 106.667969 221.800781 107.867188 C 222.203125 109.113281 223.433594 109.855469 224.726562 109.523438 C 225.160156 109.417969 224.761719 109.496094 224.667969 109.503906 C 224.796875 109.496094 224.925781 109.503906 225.054688 109.496094 C 224.960938 109.503906 224.566406 109.375 225 109.492188 C 225.089844 109.515625 225.191406 109.554688 225.285156 109.574219 C 225.59375 109.632812 225 109.378906 225.257812 109.5625 C 225.316406 109.605469 225.679688 109.804688 225.429688 109.640625 C 225.199219 109.496094 225.453125 109.667969 225.492188 109.699219 C 225.992188 110.097656 225.15625 109.378906 225.609375 109.820312 C 225.917969 110.121094 225.414062 110.972656 226.007812 108.992188 L 226.304688 107.996094 C 226.105469 108.105469 226.085938 108.117188 226.242188 108.039062 C 226.488281 107.964844 225.816406 108.125 225.695312 108.152344 C 225.382812 108.222656 225.066406 108.28125 224.75 108.328125 C 225.128906 108.269531 224.730469 108.328125 224.664062 108.335938 C 224.464844 108.351562 224.261719 108.371094 224.066406 108.382812 C 223.464844 108.421875 222.859375 108.425781 222.261719 108.394531 C 221.941406 108.382812 221.621094 108.351562 221.304688 108.316406 C 221.355469 108.320312 221.621094 108.363281 221.339844 108.320312 C 221.140625 108.289062 220.941406 108.257812 220.746094 108.21875 C 220.15625 108.105469 219.570312 107.957031 218.996094 107.777344 C 218.691406 107.679688 218.386719 107.574219 218.089844 107.457031 C 217.976562 107.414062 217.863281 107.371094 217.753906 107.328125 C 218.121094 107.480469 217.445312 107.171875 217.445312 107.171875 C 216.9375 106.925781 216.445312 106.652344 215.976562 106.347656 C 215.855469 106.273438 215.722656 106.191406 215.605469 106.101562 C 215.925781 106.351562 215.605469 106.097656 215.582031 106.046875 C 215.703125 106.277344 215.566406 106.191406 215.554688 106.007812 C 215.566406 106.203125 215.679688 106.34375 215.648438 106.570312 C 215.589844 106.996094 215.320312 107.148438 215.042969 107.378906 C 214.6875 107.675781 214.792969 107.484375 215.007812 107.457031 C 215.242188 107.425781 215.511719 107.386719 215.738281 107.332031 C 215.6875 107.339844 215.140625 107.398438 215.566406 107.355469 C 215.667969 107.34375 215.773438 107.335938 215.878906 107.324219 C 216.097656 107.300781 216.3125 107.28125 216.535156 107.265625 C 217.484375 107.195312 218.429688 107.179688 219.378906 107.222656 C 219.808594 107.242188 220.238281 107.273438 220.667969 107.320312 C 220.792969 107.332031 220.910156 107.347656 221.035156 107.359375 C 220.488281 107.304688 220.832031 107.332031 220.949219 107.351562 C 221.21875 107.398438 221.492188 107.441406 221.757812 107.5 C 222.246094 107.601562 222.734375 107.726562 223.210938 107.882812 C 223.320312 107.917969 223.429688 107.957031 223.53125 107.996094 C 223.582031 108.015625 224.03125 108.242188 223.714844 108.066406 C 223.417969 107.898438 223.726562 108.078125 223.804688 108.117188 C 223.925781 108.179688 224.046875 108.238281 224.164062 108.304688 C 224.367188 108.417969 224.554688 108.5625 224.761719 108.679688 C 224.984375 108.808594 224.570312 108.558594 224.582031 108.539062 C 224.585938 108.535156 224.902344 108.828125 224.914062 108.839844 C 224.96875 108.890625 225.015625 108.945312 225.070312 108.996094 C 225.410156 109.324219 224.996094 109.019531 225.027344 108.910156 C 225.011719 108.960938 225.378906 109.480469 225.40625 109.539062 C 225.96875 110.648438 227.621094 111.054688 228.65625 110.394531 C 229.789062 109.664062 230.113281 108.335938 229.507812 107.148438 Z M 229.503906 107.144531 " fill-opacity="1" fill-rule="nonzero"/><path fill="#ffbdc5" d="M 258.792969 186.359375 C 257.476562 187.703125 255.449219 191.503906 260.839844 193.601562 C 266.226562 195.699219 274.023438 190.570312 277.472656 181.574219 C 280.921875 172.578125 276.132812 170.199219 272.269531 170.179688 C 268.410156 170.160156 264.105469 180.921875 258.796875 186.359375 Z M 258.792969 186.359375 " fill-opacity="1" fill-rule="nonzero"/><path fill="#ffa59b" d="M 193.925781 117.597656 C 194.320312 117.726562 194.703125 117.867188 195.089844 118.019531 C 194.699219 117.867188 195.128906 118.039062 195.273438 118.105469 C 195.429688 118.175781 195.585938 118.25 195.738281 118.328125 C 196.441406 118.675781 197.125 119.070312 197.78125 119.503906 C 197.953125 119.617188 198.125 119.738281 198.292969 119.855469 C 198.378906 119.917969 198.863281 120.28125 198.46875 119.972656 C 198.769531 120.207031 199.058594 120.445312 199.339844 120.695312 C 199.929688 121.21875 200.488281 121.777344 201.015625 122.367188 C 201.148438 122.523438 201.285156 122.675781 201.417969 122.835938 C 201.453125 122.878906 201.804688 123.3125 201.621094 123.074219 C 201.449219 122.863281 201.824219 123.355469 201.867188 123.410156 C 201.96875 123.550781 202.066406 123.6875 202.164062 123.832031 C 202.625 124.511719 203.042969 125.21875 203.414062 125.953125 C 203.492188 126.105469 203.566406 126.257812 203.640625 126.414062 C 203.671875 126.476562 203.925781 127.050781 203.808594 126.785156 C 203.6875 126.5 203.898438 127.019531 203.921875 127.074219 C 203.996094 127.261719 204.066406 127.457031 204.132812 127.652344 C 204.398438 128.429688 204.609375 129.222656 204.773438 130.027344 C 205.015625 131.25 206.535156 132.058594 207.695312 131.683594 C 208.992188 131.265625 209.621094 130.070312 209.355469 128.765625 C 207.890625 121.449219 202.25 115.332031 195.191406 113.011719 C 194.011719 112.621094 192.542969 113.460938 192.269531 114.667969 C 191.96875 115.972656 192.664062 117.167969 193.925781 117.585938 Z M 193.925781 117.597656 " fill-opacity="1" fill-rule="nonzero"/><path fill="#ffa59b" d="M 207.117188 135.726562 C 207.789062 134.9375 208.523438 134.203125 209.324219 133.542969 C 209.414062 133.46875 209.503906 133.398438 209.59375 133.324219 C 209.9375 133.039062 209.351562 133.496094 209.59375 133.324219 C 209.804688 133.175781 210.011719 133.019531 210.226562 132.875 C 210.65625 132.582031 211.09375 132.308594 211.550781 132.054688 C 211.976562 131.816406 212.414062 131.59375 212.859375 131.390625 C 212.984375 131.332031 213.117188 131.257812 213.253906 131.214844 C 213.101562 131.265625 212.890625 131.363281 213.164062 131.257812 C 213.40625 131.164062 213.648438 131.070312 213.894531 130.984375 C 214.90625 130.636719 215.941406 130.382812 216.992188 130.214844 C 218.222656 130.019531 219.015625 128.417969 218.652344 127.292969 C 218.222656 125.957031 217.046875 125.429688 215.726562 125.640625 C 211.136719 126.363281 206.765625 128.835938 203.753906 132.375 C 202.953125 133.320312 202.757812 134.816406 203.753906 135.730469 C 204.640625 136.542969 206.257812 136.738281 207.117188 135.730469 Z M 207.117188 135.726562 " fill-opacity="1" fill-rule="nonzero"/><path fill="#ffbdc5" d="M 118.789062 213.359375 C 116.195312 210.503906 111.09375 202.175781 118.933594 195.082031 C 126.777344 187.992188 139.566406 194.242188 141.851562 198.640625 C 141.851562 198.640625 148.414062 199.304688 153.582031 205 C 153.582031 205 164.851562 196.53125 176.417969 200.765625 C 187.980469 205 188.660156 209.714844 192.242188 210.292969 C 195.824219 210.871094 198.820312 204.335938 207.835938 205.113281 C 216.855469 205.890625 219.507812 213.539062 219.507812 213.539062 C 219.507812 213.539062 230.667969 210.949219 232.804688 204.808594 C 234.945312 198.660156 245.015625 196.28125 250.183594 201.085938 C 255.351562 205.890625 255.246094 215.261719 248.167969 217.785156 C 241.09375 220.304688 237.078125 217.042969 236.5 217.785156 C 235.921875 218.523438 229.671875 227.785156 218.347656 229.015625 C 202.976562 230.695312 196.902344 223.261719 196.902344 223.261719 C 196.902344 223.261719 187.503906 226.820312 178.675781 222.488281 C 178.675781 222.488281 177.320312 222.628906 173.71875 224.324219 C 165.867188 228.027344 154.054688 228.863281 146.625 224.324219 C 139.203125 219.792969 138.097656 217.207031 136.378906 215.898438 C 135.835938 215.484375 135.183594 215.28125 134.503906 215.296875 C 131.285156 215.359375 123.082031 218.097656 118.78125 213.359375 Z M 118.789062 213.359375 " fill-opacity="1" fill-rule="nonzero"/><path fill="#ffa59b" d="M 139.992188 199.570312 C 144.550781 205.320312 152.734375 207.769531 159.742188 205.71875 C 160.972656 205.359375 161.746094 204.050781 161.402344 202.796875 C 161.0625 201.574219 159.714844 200.777344 158.476562 201.144531 C 157.753906 201.355469 157.011719 201.535156 156.261719 201.632812 C 156.589844 201.589844 156.132812 201.636719 156.019531 201.648438 C 155.851562 201.664062 155.683594 201.675781 155.515625 201.683594 C 155.140625 201.699219 154.765625 201.707031 154.386719 201.703125 C 154.011719 201.699219 153.632812 201.679688 153.257812 201.648438 C 153.046875 201.628906 152.835938 201.613281 152.632812 201.582031 C 152.890625 201.617188 152.621094 201.578125 152.515625 201.558594 C 151.726562 201.410156 150.949219 201.234375 150.1875 200.996094 C 148.847656 200.570312 147.777344 200.054688 146.457031 199.164062 C 145.421875 198.46875 144.300781 197.410156 143.355469 196.21875 C 142.558594 195.214844 140.828125 195.386719 139.992188 196.21875 C 138.996094 197.210938 139.191406 198.566406 139.992188 199.578125 Z M 139.992188 199.570312 " fill-opacity="1" fill-rule="nonzero"/><path fill="#ffa59b" d="M 104.191406 182.5625 C 106.496094 186.101562 109.324219 189.238281 113.132812 191.195312 C 116.953125 193.15625 121.25 193.890625 125.511719 193.347656 C 126.785156 193.1875 127.886719 192.375 127.886719 190.976562 C 127.886719 189.820312 126.792969 188.441406 125.511719 188.601562 C 123.550781 188.851562 121.503906 188.878906 119.699219 188.515625 C 118.882812 188.351562 118.074219 188.128906 117.289062 187.855469 C 117.101562 187.789062 116.910156 187.714844 116.71875 187.640625 C 116.59375 187.59375 116.222656 187.433594 116.527344 187.566406 C 116.191406 187.421875 115.859375 187.261719 115.535156 187.09375 C 112.445312 185.507812 110.179688 183.054688 108.300781 180.171875 C 107.601562 179.097656 106.195312 178.648438 105.050781 179.316406 C 103.980469 179.941406 103.496094 181.484375 104.195312 182.5625 Z M 104.191406 182.5625 " fill-opacity="1" fill-rule="nonzero"/><path fill="#000000" d="M 211.574219 151.074219 C 218.179688 153.734375 226.277344 151.84375 231.148438 146.703125 C 232.03125 145.773438 232.074219 144.273438 231.148438 143.347656 C 230.257812 142.460938 228.671875 142.414062 227.785156 143.347656 C 226.726562 144.46875 226.011719 145.039062 224.636719 145.804688 C 224.308594 145.988281 223.972656 146.148438 223.632812 146.316406 C 223.558594 146.355469 223.285156 146.476562 223.511719 146.378906 C 223.324219 146.460938 223.125 146.535156 222.929688 146.605469 C 222.222656 146.863281 221.503906 147.074219 220.769531 147.230469 C 220.441406 147.300781 220.113281 147.363281 219.78125 147.414062 C 219.613281 147.441406 219.617188 147.441406 219.792969 147.414062 L 219.546875 147.441406 C 219.378906 147.457031 219.210938 147.472656 219.046875 147.484375 C 218.296875 147.539062 217.550781 147.539062 216.800781 147.484375 C 216.632812 147.472656 216.46875 147.457031 216.300781 147.441406 L 216.054688 147.414062 C 216.234375 147.4375 216.238281 147.4375 216.070312 147.414062 C 215.738281 147.359375 215.414062 147.296875 215.089844 147.21875 C 214.316406 147.042969 213.566406 146.796875 212.832031 146.5 C 211.636719 146.019531 210.222656 147.023438 209.90625 148.15625 C 209.535156 149.511719 210.371094 150.59375 211.566406 151.074219 Z M 211.574219 151.074219 " fill-opacity="1" fill-rule="nonzero"/><path fill="#ffa59b" d="M 218.734375 179.011719 C 219.914062 179.210938 220.714844 180.601562 221.386719 181.503906 C 222.375 182.835938 223.28125 184.238281 224.097656 185.679688 C 225.707031 188.527344 226.917969 191.539062 227.777344 194.695312 C 229.226562 194.085938 230.675781 193.476562 232.121094 192.863281 C 231.078125 190.851562 229.339844 189.222656 227.265625 188.304688 C 225.152344 187.367188 221.875 186.671875 219.945312 188.347656 C 217.960938 190.074219 217.574219 193.179688 218.078125 195.625 C 218.582031 198.074219 220.144531 200.210938 222.085938 201.738281 C 224.136719 203.351562 226.917969 204.46875 229.460938 203.316406 C 231.785156 202.265625 232.851562 199.703125 232.492188 197.265625 C 232.128906 194.820312 230.410156 192.429688 228.382812 191.042969 C 226.25 189.582031 222.96875 189.734375 221.546875 192.132812 C 220.289062 194.253906 221.136719 197.214844 222.488281 199.085938 C 223.808594 200.921875 226.308594 202.949219 228.738281 202.472656 C 234.632812 201.316406 230.972656 191.226562 227.242188 189.527344 C 224.625 188.332031 221.699219 189.898438 221.351562 192.757812 C 221.050781 195.222656 222.199219 197.765625 223.730469 199.636719 C 225.253906 201.503906 228.085938 203.578125 230.5 202.054688 C 233.152344 200.382812 232.386719 197.050781 231.4375 194.621094 C 230.921875 193.292969 230.351562 191.875 229.042969 191.128906 C 227.585938 190.292969 225.722656 190.753906 224.847656 192.195312 C 223.4375 194.515625 224.675781 198.050781 226.492188 199.777344 C 227.574219 200.804688 229.011719 201.535156 230.515625 201.039062 C 232.011719 200.546875 232.734375 199.070312 232.804688 197.582031 C 232.925781 195.152344 231.761719 191.953125 229.0625 191.488281 C 227.894531 191.285156 226.375 191.785156 226.140625 193.144531 C 225.742188 195.433594 225.894531 198.011719 227.261719 199.992188 C 228.445312 201.695312 231.269531 202.546875 232.488281 200.359375 C 233.117188 199.234375 232.917969 197.734375 232.789062 196.507812 C 232.6875 195.535156 232.707031 194.289062 232.339844 193.359375 C 231.90625 192.261719 230.984375 191.472656 229.734375 191.664062 C 228.648438 191.824219 227.578125 192.796875 227.671875 193.992188 C 227.695312 194.269531 227.742188 194.539062 227.78125 194.816406 C 227.871094 195.457031 227.746094 194.453125 227.804688 194.988281 C 227.832031 195.246094 227.847656 195.503906 227.882812 195.757812 C 227.988281 196.496094 227.511719 196.25 228.15625 195.257812 C 228.632812 194.890625 229.105469 194.527344 229.578125 194.167969 L 229.539062 194.175781 C 230.148438 194.257812 230.761719 194.335938 231.375 194.414062 L 231.324219 194.378906 C 230.273438 193.640625 228.679688 194.195312 228.074219 195.234375 C 227.378906 196.421875 227.875 197.738281 228.925781 198.480469 C 230.738281 199.753906 232.644531 197.894531 232.660156 196.089844 C 232.660156 195.660156 232.597656 195.230469 232.542969 194.808594 C 232.503906 194.480469 232.457031 194.15625 232.410156 193.832031 C 232.339844 193.320312 232.414062 193.777344 232.433594 194 C 230.875 194.210938 229.324219 194.417969 227.765625 194.632812 C 227.839844 194.816406 227.847656 195.046875 227.878906 195.242188 C 227.917969 195.46875 227.949219 195.703125 227.984375 195.929688 C 227.925781 195.5 228.015625 196.191406 228.023438 196.265625 C 228.082031 196.765625 228.132812 197.265625 228.152344 197.769531 C 228.164062 197.988281 228.152344 198.207031 228.167969 198.425781 C 228.167969 198.546875 228.160156 198.664062 228.148438 198.785156 C 228.148438 198.339844 228.328125 197.957031 228.679688 197.628906 L 229.726562 197.019531 C 230.21875 197.132812 230.710938 197.246094 231.203125 197.359375 C 231.125 197.242188 231.0625 197.117188 231.015625 196.988281 C 230.964844 196.6875 230.808594 196.386719 230.753906 196.078125 C 230.652344 195.539062 230.640625 194.964844 230.734375 194.421875 C 229.757812 194.972656 228.785156 195.527344 227.808594 196.078125 C 228.476562 196.195312 227.796875 196.113281 227.714844 195.878906 C 227.796875 196.125 227.90625 196.316406 227.976562 196.585938 C 228.03125 196.804688 228.027344 197.003906 228.066406 197.167969 C 228.238281 197.871094 227.839844 197.382812 228.210938 197.089844 L 229.261719 196.480469 C 230.417969 196.082031 229.839844 196.875 229.613281 196.1875 C 229.535156 195.957031 229.296875 195.726562 229.203125 195.492188 C 229.140625 195.339844 229.097656 195.152344 229.074219 194.988281 L 229.0625 194.636719 C 229.148438 193.964844 228.972656 194.132812 228.539062 195.136719 L 227.339844 195.460938 C 226.511719 194.875 226.269531 194.839844 226.625 195.34375 C 226.703125 195.492188 226.769531 195.648438 226.828125 195.808594 C 227 196.214844 227.144531 196.632812 227.277344 197.050781 C 227.382812 197.375 227.457031 198 227.617188 198.28125 C 227.617188 198.617188 227.632812 198.648438 227.671875 198.382812 C 228.042969 198.195312 228.40625 198.007812 228.777344 197.820312 C 228.777344 197.828125 227.382812 196.652344 227.253906 196.492188 C 226.824219 195.949219 226.488281 195.3125 226.285156 194.65625 C 226.203125 194.386719 226.191406 193.96875 226.0625 193.738281 C 225.804688 193.289062 226.378906 193.472656 225.847656 193.636719 C 226.152344 193.542969 225.28125 194.019531 225.285156 193.824219 C 225.285156 193.886719 225.921875 194.632812 225.980469 194.738281 C 226.40625 195.476562 226.691406 196.261719 226.863281 197.09375 C 226.925781 197.394531 226.898438 197.839844 226.996094 198.125 C 227.199219 198.726562 226.726562 198.324219 227.222656 198.109375 C 227.621094 198.003906 228.023438 197.894531 228.421875 197.785156 C 227.441406 197.894531 226.332031 196.546875 225.964844 195.675781 C 225.96875 195.691406 225.628906 194.425781 225.683594 194.445312 C 225.308594 194.789062 225.203125 194.917969 225.367188 194.835938 C 225.378906 194.828125 225.386719 194.828125 225.402344 194.832031 C 225.378906 194.773438 226.238281 195.332031 225.835938 195.050781 C 226.707031 195.652344 227.746094 197 227.824219 198.078125 C 227.898438 199.109375 227.277344 199.242188 226.375 198.886719 C 225.1875 198.417969 224.105469 197.40625 223.433594 196.335938 C 223.042969 195.714844 222.75 195.046875 222.648438 194.316406 C 222.601562 193.972656 222.597656 193.609375 222.632812 193.269531 C 222.667969 192.945312 222.9375 192.484375 222.902344 192.199219 L 222.984375 192.058594 C 223.09375 191.835938 222.984375 191.867188 222.65625 192.160156 C 222.84375 192.273438 223.484375 192.144531 223.699219 192.171875 C 224.195312 192.230469 224.71875 192.371094 225.179688 192.570312 C 226.453125 193.117188 227.386719 194.074219 228.015625 195.289062 C 229.269531 197.703125 233.058594 196.023438 232.359375 193.457031 C 231.328125 189.660156 229.792969 185.976562 227.78125 182.59375 C 226.761719 180.867188 225.601562 179.234375 224.355469 177.664062 C 223.214844 176.226562 221.894531 174.789062 219.992188 174.460938 C 218.730469 174.246094 217.433594 174.800781 217.066406 176.117188 C 216.753906 177.257812 217.457031 178.816406 218.726562 179.039062 Z M 218.734375 179.011719 " fill-opacity="1" fill-rule="nonzero"/><path fill="#ffa59b" d="M 231.707031 196.964844 L 231.734375 196.667969 C 231.34375 197.351562 230.949219 198.03125 230.558594 198.714844 L 229.964844 198.84375 C 229.40625 198.609375 228.839844 198.378906 228.28125 198.148438 C 228.773438 198.578125 228.972656 199.539062 229.238281 200.117188 C 229.566406 200.84375 229.914062 201.566406 230.277344 202.277344 C 231 203.707031 231.785156 205.105469 232.628906 206.464844 C 234.308594 209.1875 236.226562 211.777344 238.320312 214.199219 C 240.21875 216.394531 242.316406 218.699219 244.945312 220.035156 C 247.527344 221.34375 250.410156 221.664062 253.246094 221.203125 C 258.046875 220.429688 263.109375 217.324219 265.273438 212.855469 C 267.574219 208.117188 267.25 202.460938 267.25 197.335938 C 267.25 194.28125 262.496094 194.277344 262.496094 197.335938 C 262.496094 201.691406 263.074219 207.183594 260.816406 211.132812 C 258.613281 214.992188 253.03125 217.5625 248.691406 216.417969 C 245.910156 215.6875 243.910156 213.367188 242.074219 211.292969 C 240.085938 209.039062 238.308594 206.625 236.726562 204.070312 C 235.136719 201.492188 234.015625 198.738281 232.621094 196.066406 C 231.15625 193.265625 227.269531 193.589844 226.949219 196.960938 C 226.664062 200 231.417969 199.980469 231.703125 196.960938 Z M 231.707031 196.964844 " fill-opacity="1" fill-rule="nonzero"/><path fill="#000000" d="M 199.917969 163.351562 C 204.914062 161.753906 209.960938 161.289062 215.207031 161.90625 C 216.445312 162.054688 217.636719 160.710938 217.582031 159.535156 C 217.523438 158.125 216.535156 157.320312 215.207031 157.160156 C 209.660156 156.503906 203.972656 157.074219 198.65625 158.773438 C 197.433594 159.167969 196.644531 160.421875 197 161.695312 C 197.328125 162.894531 198.695312 163.746094 199.921875 163.351562 Z M 199.917969 163.351562 " fill-opacity="1" fill-rule="nonzero"/><path fill="#ffa59b" d="M 112.535156 161.875 C 106.5 165.273438 100.667969 169.042969 95.058594 173.101562 C 90.21875 176.601562 85.34375 180.550781 82.511719 185.929688 C 79.75 191.171875 78.941406 197.609375 81.769531 203 C 84.484375 208.175781 89.921875 211.027344 95.121094 213.136719 C 102.175781 215.996094 109.382812 218.328125 117.035156 218.777344 C 116.476562 217.425781 115.910156 216.074219 115.351562 214.726562 C 114.148438 216.226562 112.839844 217.113281 111.054688 217.816406 C 108.246094 218.917969 109.441406 223.488281 112.316406 222.390625 C 114.148438 221.691406 115.535156 220.429688 115.867188 218.421875 C 116.222656 216.285156 114.339844 214.867188 112.378906 215.742188 C 110.210938 216.707031 107.902344 218.285156 107.828125 220.914062 C 107.761719 223.199219 109.386719 225.535156 111.832031 225.53125 C 114.550781 225.523438 116.578125 222.59375 117.085938 220.179688 C 117.609375 217.671875 115.777344 215.605469 113.179688 216 C 110.769531 216.367188 109.921875 218.207031 109.703125 220.382812 C 109.492188 222.429688 109.488281 225.261719 112.328125 225.335938 C 114.308594 225.390625 116.378906 223.503906 117.71875 222.253906 C 119.261719 220.816406 120.441406 219.070312 120.144531 216.863281 C 119.71875 213.6875 116.523438 212.648438 113.960938 214.3125 C 111.394531 215.984375 109.996094 218.910156 110.019531 221.929688 C 110.03125 223.585938 111.519531 224.480469 113.03125 224.21875 C 115.078125 223.859375 116.824219 222.519531 117.671875 220.617188 C 118.910156 217.855469 114.8125 215.4375 113.566406 218.222656 C 113.160156 219.132812 112.738281 219.46875 111.765625 219.636719 C 112.765625 220.402344 113.769531 221.160156 114.773438 221.925781 C 114.765625 220.828125 115.039062 219.804688 115.777344 218.957031 C 116.265625 218.394531 116.972656 218.480469 116.019531 217.949219 C 114.917969 217.339844 115.832031 217.65625 115.25 217.988281 C 114.589844 218.371094 114.027344 219.238281 113.402344 219.714844 C 113.085938 219.957031 112.617188 220.136719 112.359375 220.421875 C 111.898438 220.917969 111.792969 220.183594 112.738281 220.574219 C 113.210938 220.941406 113.6875 221.304688 114.160156 221.664062 C 114.417969 222.070312 114.195312 221.90625 114.320312 221.539062 C 114.394531 221.320312 114.460938 220.828125 114.4375 220.601562 C 114.328125 219.636719 114.511719 220.730469 114.03125 220.621094 C 113.476562 220.234375 112.925781 219.851562 112.371094 219.464844 C 112.292969 219.726562 112.175781 219.972656 112.015625 220.195312 C 111.683594 220.71875 111.1875 220.734375 112.027344 220.984375 C 113.347656 221.367188 112.15625 221.132812 112.765625 220.941406 C 113.375 220.746094 114.144531 220.117188 114.78125 219.832031 C 113.617188 218.941406 112.457031 218.042969 111.289062 217.152344 C 111.351562 217.445312 111.273438 217.664062 111.058594 217.808594 C 111.476562 219.332031 111.898438 220.859375 112.320312 222.382812 C 114.847656 221.390625 116.988281 220.222656 118.714844 218.070312 C 120.007812 216.460938 119.207031 214.148438 117.035156 214.019531 C 109.578125 213.578125 102.292969 211.121094 95.480469 208.171875 C 89.601562 205.628906 84.234375 201.523438 84.777344 194.464844 C 85.308594 187.550781 90.628906 182.332031 95.847656 178.375 C 101.886719 173.796875 108.335938 169.671875 114.9375 165.960938 C 117.601562 164.464844 115.207031 160.359375 112.535156 161.859375 Z M 112.535156 161.875 " fill-opacity="1" fill-rule="nonzero"/><path fill="#ffa59b" d="M 261.203125 166.988281 C 262.707031 175.027344 257.847656 184.054688 250.210938 187.140625 C 249.023438 187.621094 248.183594 188.722656 248.554688 190.0625 C 248.863281 191.1875 250.28125 192.203125 251.476562 191.71875 C 261.660156 187.601562 267.804688 176.535156 265.789062 165.726562 C 265.550781 164.46875 264.027344 163.75 262.863281 164.070312 C 261.539062 164.4375 260.96875 165.726562 261.203125 166.992188 Z M 261.203125 166.988281 " fill-opacity="1" fill-rule="nonzero"/><path fill="#000000" d="M 174.914062 141.816406 C 173.589844 141.125 171.878906 141.898438 171.035156 143.132812 C 170.191406 144.371094 170.015625 145.933594 169.910156 147.425781 C 169.820312 148.660156 169.773438 149.949219 170.28125 151.082031 C 170.789062 152.210938 172.019531 153.109375 173.222656 152.820312 C 174.90625 152.417969 175.332031 150.25 175.425781 148.515625 C 175.472656 147.644531 175.519531 146.769531 175.566406 145.898438 C 175.621094 144.859375 175.667969 143.765625 175.21875 142.828125 C 174.765625 141.890625 173.640625 141.1875 172.675781 141.574219 " fill-opacity="1" fill-rule="nonzero"/><path fill="#000000" d="M 176.101562 139.777344 C 174.5 139.007812 172.910156 139.070312 171.316406 139.835938 C 169.984375 140.46875 168.996094 141.699219 168.433594 143.035156 C 167.84375 144.441406 167.65625 145.917969 167.546875 147.429688 C 167.429688 149.035156 167.515625 150.605469 168.164062 152.097656 C 169.464844 155.082031 173.472656 156.351562 175.910156 153.917969 C 177.816406 152.007812 177.757812 149.054688 177.894531 146.554688 C 177.984375 144.800781 178.085938 142.910156 177.105469 141.363281 C 176.0625 139.722656 173.980469 138.632812 172.054688 139.296875 C 170.890625 139.699219 170 140.933594 170.410156 142.207031 C 170.78125 143.363281 172.0625 144.292969 173.308594 143.859375 C 173.515625 143.789062 173.585938 143.847656 173.125 143.839844 C 173.234375 143.839844 173.40625 143.882812 173.109375 143.808594 C 172.738281 143.714844 173.070312 143.824219 173.164062 143.839844 C 173.398438 143.878906 172.964844 143.785156 172.953125 143.75 C 172.960938 143.777344 173.21875 143.871094 173.222656 143.917969 L 173.105469 143.832031 C 172.949219 143.710938 172.949219 143.71875 173.105469 143.859375 C 173.148438 143.953125 173.203125 144.101562 173.121094 143.867188 C 172.996094 143.496094 173.1875 143.996094 173.1875 144.03125 C 173.1875 144 173.042969 143.519531 173.152344 144.007812 C 173.171875 144.09375 173.191406 144.199219 173.21875 144.289062 C 173.328125 144.609375 173.207031 143.894531 173.21875 144.234375 C 173.21875 144.332031 173.234375 144.429688 173.238281 144.53125 C 173.261719 145.0625 173.226562 145.597656 173.199219 146.128906 C 173.144531 147.117188 173.125 148.113281 173.027344 149.101562 C 173.019531 149.175781 173.007812 149.25 173.003906 149.320312 C 172.984375 149.636719 173.101562 148.824219 173.027344 149.136719 C 172.988281 149.300781 172.964844 149.476562 172.925781 149.648438 C 172.886719 149.8125 172.84375 149.980469 172.792969 150.144531 C 172.769531 150.214844 172.746094 150.28125 172.722656 150.347656 C 172.59375 150.789062 172.914062 150.039062 172.769531 150.242188 C 172.734375 150.292969 172.535156 150.585938 172.535156 150.65625 C 172.523438 150.433594 172.875 150.285156 172.660156 150.488281 C 172.632812 150.515625 172.484375 150.65625 172.480469 150.671875 C 172.480469 150.683594 172.894531 150.359375 172.699219 150.496094 C 172.609375 150.5625 172.355469 150.652344 172.695312 150.53125 C 173.101562 150.390625 172.769531 150.511719 172.726562 150.511719 C 172.25 150.5 173.148438 150.554688 172.828125 150.515625 C 172.738281 150.503906 172.382812 150.507812 172.753906 150.53125 C 173.109375 150.554688 172.832031 150.511719 172.761719 150.511719 C 172.460938 150.496094 172.78125 150.289062 172.886719 150.570312 C 172.878906 150.546875 172.703125 150.460938 172.675781 150.449219 C 172.402344 150.324219 172.976562 150.75 172.765625 150.527344 C 172.710938 150.46875 172.644531 150.410156 172.589844 150.359375 C 172.246094 150.058594 172.632812 150.457031 172.640625 150.460938 C 172.550781 150.414062 172.464844 150.199219 172.421875 150.117188 C 172.394531 150.070312 172.3125 149.953125 172.3125 149.898438 L 172.410156 150.105469 L 172.351562 149.917969 C 172.328125 149.796875 172.289062 149.664062 172.257812 149.542969 C 172.246094 149.496094 172.1875 149.171875 172.238281 149.472656 C 172.292969 149.796875 172.238281 149.382812 172.230469 149.300781 C 172.222656 149.207031 172.21875 149.109375 172.214844 149.007812 C 172.207031 148.746094 172.210938 148.480469 172.222656 148.222656 C 172.242188 147.738281 172.277344 147.257812 172.324219 146.777344 C 172.332031 146.683594 172.34375 146.589844 172.351562 146.496094 C 172.394531 146.042969 172.339844 146.488281 172.339844 146.5625 C 172.347656 146.316406 172.421875 146.058594 172.476562 145.820312 C 172.539062 145.550781 172.613281 145.277344 172.699219 145.015625 C 172.722656 144.941406 172.75 144.8125 172.796875 144.753906 C 172.515625 145.121094 172.753906 144.878906 172.832031 144.734375 C 172.875 144.652344 172.925781 144.574219 172.972656 144.496094 C 173.242188 144.007812 172.757812 144.691406 172.941406 144.511719 C 173.015625 144.4375 173.082031 144.355469 173.15625 144.28125 C 173.335938 144.101562 173.46875 144.152344 173.097656 144.292969 C 173.273438 144.226562 173.464844 144.058594 173.632812 143.964844 C 173.890625 143.8125 173.71875 144.0625 173.496094 144.023438 C 173.558594 144.03125 173.726562 143.957031 173.792969 143.9375 C 174.203125 143.808594 173.648438 143.996094 173.613281 143.949219 C 173.628906 143.972656 173.957031 143.949219 173.984375 143.949219 C 174.214844 143.917969 173.757812 143.941406 173.726562 143.914062 C 173.800781 143.929688 173.871094 143.949219 173.945312 143.972656 C 174.109375 144.03125 174.039062 144 173.730469 143.878906 C 174.839844 144.410156 176.328125 144.222656 176.957031 143.027344 C 177.511719 141.972656 177.296875 140.359375 176.109375 139.792969 Z M 176.101562 139.777344 " fill-opacity="1" fill-rule="nonzero"/><g clip-path="url(#a215e9d63d)"><path fill="#5e4d5c" d="M 270.90625 73.316406 C 273.289062 73.261719 276.546875 73.671875 278.492188 75.050781 C 280.4375 76.425781 282.199219 79.851562 282.234375 82.234375 C 282.269531 84.597656 281.851562 86.414062 280.652344 88.453125 C 277.472656 93.84375 273.125 98.542969 267.996094 102.140625 C 267.425781 102.542969 266.824219 102.9375 266.140625 103.070312 C 264.433594 103.398438 262.761719 101.847656 262.519531 100.121094 C 262.285156 98.402344 263.164062 96.6875 264.375 95.433594 C 265.582031 94.183594 267.105469 93.285156 268.523438 92.277344 C 269.945312 91.269531 271.320312 90.078125 272.027344 88.492188 C 272.476562 87.480469 272.632812 86.339844 272.460938 85.246094 C 272.308594 84.242188 271.824219 83.214844 270.929688 82.738281 C 269.183594 81.820312 267.199219 83.390625 265.929688 84.894531 C 264.660156 86.398438 262.984375 88.152344 261.082031 87.636719 C 259.628906 87.242188 258.832031 85.570312 258.925781 84.070312 C 259.019531 82.570312 259.785156 81.203125 260.527344 79.898438 C 260.527344 79.898438 263.648438 73.492188 270.898438 73.316406 Z M 270.90625 73.316406 " fill-opacity="1" fill-rule="nonzero"/></g><path fill="#5e4d5c" d="M 264.894531 106.332031 C 265.097656 106.886719 265.289062 107.769531 265.332031 108.355469 C 265.472656 110.261719 264.328125 111.796875 262.496094 112.367188 C 261.832031 112.574219 261.128906 112.613281 260.433594 112.621094 C 259.429688 112.632812 258.507812 112.285156 257.59375 111.875 C 256.769531 111.507812 256.148438 110.726562 255.886719 110.308594 C 254.917969 108.753906 254.988281 107.203125 255.886719 105.636719 C 256.347656 104.835938 257.148438 103.96875 258 103.621094 C 258.507812 103.410156 259.570312 103.070312 260.109375 103.140625 C 261.289062 103.285156 261.578125 103.386719 262.613281 103.972656 C 262.613281 103.972656 264.296875 104.703125 264.898438 106.332031 Z M 264.894531 106.332031 " fill-opacity="1" fill-rule="nonzero"/><path fill="#ffffff" d="M 263.863281 107.242188 C 263.808594 107.089844 263.738281 106.925781 263.589844 106.855469 C 263.441406 106.792969 263.21875 106.886719 263.234375 107.050781 C 263.105469 107.101562 262.941406 107.722656 263.007812 108.167969 C 263.046875 108.425781 263.3125 108.960938 263.445312 109.1875 C 263.480469 109.246094 263.527344 109.304688 263.589844 109.324219 C 263.75 109.378906 263.875 109.179688 263.917969 109.015625 C 264.078125 108.433594 264.058594 107.808594 263.863281 107.242188 Z M 263.863281 107.242188 " fill-opacity="1" fill-rule="nonzero"/><path fill="#ffffff" d="M 264.625 107.03125 C 264.542969 106.800781 264.453125 106.609375 264.289062 106.417969 C 264.097656 106.195312 263.816406 106.074219 263.53125 106.054688 C 262.964844 106.007812 262.4375 106.480469 262.441406 107.054688 C 262.570312 106.824219 262.699219 106.601562 262.832031 106.371094 C 262.570312 106.496094 262.4375 106.785156 262.34375 107.035156 C 262.265625 107.246094 262.238281 107.46875 262.210938 107.6875 C 262.183594 107.921875 262.191406 108.164062 262.238281 108.398438 C 262.277344 108.601562 262.371094 108.792969 262.449219 108.980469 C 262.632812 109.414062 262.871094 109.960938 263.371094 110.089844 C 263.828125 110.207031 264.269531 109.992188 264.515625 109.601562 C 264.652344 109.390625 264.714844 109.132812 264.753906 108.890625 C 264.851562 108.269531 264.828125 107.636719 264.625 107.035156 C 264.492188 106.644531 264.074219 106.34375 263.652344 106.484375 C 263.261719 106.609375 262.957031 107.039062 263.101562 107.457031 C 263.160156 107.640625 263.203125 107.828125 263.230469 108.011719 L 263.203125 107.804688 C 263.242188 108.082031 263.242188 108.359375 263.203125 108.636719 L 263.230469 108.425781 C 263.207031 108.589844 263.179688 108.757812 263.121094 108.910156 L 263.199219 108.71875 C 263.179688 108.761719 263.15625 108.796875 263.132812 108.835938 L 263.253906 108.675781 C 263.234375 108.699219 263.210938 108.722656 263.1875 108.742188 L 263.347656 108.617188 C 263.347656 108.617188 263.316406 108.636719 263.296875 108.644531 L 263.488281 108.5625 L 263.460938 108.570312 L 263.671875 108.542969 C 263.671875 108.542969 263.632812 108.546875 263.613281 108.542969 L 263.820312 108.570312 L 263.792969 108.5625 L 263.980469 108.644531 C 263.957031 108.636719 263.9375 108.625 263.921875 108.613281 L 264.082031 108.738281 C 264.082031 108.738281 264.046875 108.707031 264.035156 108.6875 L 264.160156 108.847656 C 264.015625 108.648438 263.910156 108.402344 263.816406 108.183594 L 263.898438 108.375 C 263.84375 108.242188 263.789062 108.101562 263.765625 107.960938 L 263.792969 108.171875 C 263.769531 108.003906 263.777344 107.839844 263.796875 107.671875 L 263.769531 107.878906 C 263.792969 107.722656 263.820312 107.566406 263.882812 107.417969 L 263.804688 107.609375 C 263.816406 107.570312 263.835938 107.53125 263.859375 107.496094 L 263.738281 107.65625 C 263.738281 107.65625 263.757812 107.632812 263.769531 107.625 L 263.609375 107.75 C 263.609375 107.75 263.621094 107.742188 263.628906 107.738281 C 263.871094 107.621094 264.023438 107.316406 264.019531 107.054688 L 264.019531 107.027344 C 264.007812 107.097656 264 107.167969 263.992188 107.238281 C 263.992188 107.21875 263.996094 107.203125 264.003906 107.1875 L 263.921875 107.375 C 263.921875 107.375 263.9375 107.34375 263.949219 107.335938 L 263.824219 107.492188 C 263.824219 107.492188 263.847656 107.464844 263.863281 107.457031 L 263.707031 107.582031 C 263.707031 107.582031 263.738281 107.5625 263.757812 107.554688 L 263.566406 107.636719 C 263.59375 107.625 263.621094 107.617188 263.648438 107.613281 L 263.4375 107.640625 C 263.46875 107.640625 263.492188 107.640625 263.523438 107.640625 L 263.3125 107.613281 C 263.3125 107.613281 263.351562 107.621094 263.367188 107.628906 L 263.175781 107.546875 C 263.195312 107.554688 263.214844 107.566406 263.234375 107.582031 L 263.078125 107.457031 C 263.113281 107.484375 263.144531 107.515625 263.171875 107.554688 L 263.050781 107.394531 C 263.085938 107.445312 263.113281 107.496094 263.136719 107.546875 L 263.054688 107.355469 C 263.066406 107.386719 263.082031 107.421875 263.09375 107.453125 C 263.160156 107.652344 263.269531 107.820312 263.457031 107.925781 C 263.628906 108.027344 263.875 108.066406 264.066406 108.007812 C 264.453125 107.882812 264.769531 107.453125 264.617188 107.035156 Z M 264.625 107.03125 " fill-opacity="1" fill-rule="nonzero"/><path fill="#ffffff" d="M 278.996094 77.363281 C 278.542969 77.324219 278.046875 77.429688 277.839844 77.832031 C 277.699219 78.101562 277.699219 78.425781 277.707031 78.730469 C 277.742188 80.847656 277.851562 83.035156 277.09375 85.011719 C 276.578125 86.363281 275.652344 87.667969 275.835938 89.101562 C 275.90625 89.648438 276.1875 90.21875 276.699219 90.429688 C 277.105469 90.59375 277.578125 90.503906 277.972656 90.3125 C 279.1875 89.738281 279.855469 88.417969 280.238281 87.132812 C 281.070312 84.308594 280.933594 81.207031 279.839844 78.476562 C 279.839844 78.476562 279.414062 77.398438 278.996094 77.363281 Z M 278.996094 77.363281 " fill-opacity="1" fill-rule="nonzero"/><path fill="#5e4d5c" d="M 289.992188 103.023438 C 291.679688 103.582031 293.863281 104.691406 294.878906 106.148438 C 295.898438 107.605469 296.269531 110.453125 295.695312 112.128906 C 295.125 113.796875 294.375 114.96875 293.019531 116.097656 C 289.429688 119.082031 285.191406 121.289062 280.683594 122.523438 C 280.183594 122.65625 279.660156 122.785156 279.144531 122.707031 C 277.859375 122.511719 277.082031 121 277.347656 119.730469 C 277.617188 118.460938 278.667969 117.480469 279.832031 116.90625 C 280.996094 116.332031 282.292969 116.089844 283.542969 115.734375 C 284.792969 115.386719 286.058594 114.898438 286.953125 113.960938 C 287.527344 113.363281 287.921875 112.597656 288.082031 111.789062 C 288.226562 111.042969 288.148438 110.203125 287.632812 109.644531 C 286.644531 108.5625 284.855469 109.164062 283.585938 109.902344 C 282.3125 110.636719 280.691406 111.449219 279.488281 110.605469 C 278.566406 109.960938 278.429688 108.589844 278.875 107.5625 C 279.316406 106.535156 280.199219 105.765625 281.050781 105.039062 C 281.050781 105.039062 284.859375 101.328125 289.992188 103.03125 Z M 289.992188 103.023438 " fill-opacity="1" fill-rule="nonzero"/><path fill="#5e4d5c" d="M 275.917969 124.410156 C 275.917969 124.847656 275.832031 125.515625 275.714844 125.9375 C 275.335938 127.3125 274.144531 128.101562 272.714844 128.039062 C 272.195312 128.015625 271.691406 127.867188 271.199219 127.699219 C 270.492188 127.453125 269.933594 126.976562 269.394531 126.457031 C 268.910156 125.992188 268.671875 125.285156 268.59375 124.929688 C 268.304688 123.59375 268.746094 122.523438 269.773438 121.648438 C 270.300781 121.203125 271.078125 120.796875 271.765625 120.765625 C 272.175781 120.746094 273.007812 120.773438 273.371094 120.960938 C 274.164062 121.359375 274.339844 121.5 274.917969 122.171875 C 274.917969 122.171875 275.914062 123.105469 275.921875 124.40625 Z M 275.917969 124.410156 " fill-opacity="1" fill-rule="nonzero"/><path fill="#ffa59b" d="M 163.746094 219.644531 C 163.066406 223.714844 163.691406 227.847656 164.082031 231.914062 C 164.503906 236.265625 164.976562 240.605469 165.507812 244.945312 C 166.570312 253.578125 167.847656 262.179688 169.339844 270.75 C 169.863281 273.753906 174.441406 272.476562 173.921875 269.488281 C 172.503906 261.339844 171.273438 253.15625 170.261719 244.949219 C 169.761719 240.867188 169.3125 236.78125 168.910156 232.683594 C 168.542969 228.898438 167.695312 224.703125 168.328125 220.910156 C 168.828125 217.921875 164.25 216.636719 163.746094 219.648438 Z M 163.746094 219.644531 " fill-opacity="1" fill-rule="nonzero"/><g clip-path="url(#a59b3532c5)"><path fill="#ffa59b" d="M 171.347656 268.683594 C 167.851562 268.390625 164.269531 268.316406 160.851562 269.25 C 158.160156 269.980469 151.824219 272.519531 153.855469 276.316406 C 154.796875 278.074219 156.824219 278.386719 158.625 278.566406 C 160.449219 278.75 162.296875 278.550781 164.089844 278.210938 C 165.710938 277.898438 167.292969 277.414062 168.839844 276.851562 C 170.390625 276.289062 171.734375 275.78125 172.835938 274.542969 C 173.507812 273.785156 174.03125 272.988281 174.109375 271.953125 C 174.222656 270.5 173.214844 269.265625 171.824219 268.933594 C 170.859375 268.707031 169.832031 268.933594 168.902344 269.21875 C 168.574219 269.320312 168.242188 269.433594 167.914062 269.535156 C 167.738281 269.589844 167.550781 269.625 167.378906 269.683594 C 166.898438 269.847656 167.730469 269.683594 167.242188 269.710938 C 166.003906 269.769531 164.804688 270.761719 164.863281 272.082031 C 164.917969 273.320312 165.910156 274.519531 167.242188 274.457031 C 168.0625 274.417969 168.835938 274.222656 169.617188 273.972656 C 169.945312 273.867188 170.269531 273.753906 170.601562 273.664062 C 170.734375 273.628906 170.878906 273.605469 171.015625 273.5625 C 170.738281 273.589844 170.6875 273.597656 170.859375 273.585938 C 171.132812 273.585938 170.984375 273.53125 170.417969 273.441406 L 169.5625 272.585938 C 169.84375 271.015625 169.824219 270.535156 169.503906 271.136719 C 169.363281 271.34375 169.375 271.332031 169.542969 271.101562 C 169.382812 271.28125 169.210938 271.445312 169.046875 271.617188 C 168.972656 271.6875 168.898438 271.753906 168.820312 271.820312 C 169.058594 271.644531 169.078125 271.625 168.875 271.765625 C 168.6875 271.867188 168.707031 271.867188 168.933594 271.757812 C 168.796875 271.8125 168.667969 271.863281 168.53125 271.914062 C 167.21875 272.417969 165.882812 272.878906 164.523438 273.238281 C 163.234375 273.578125 162.101562 273.796875 160.898438 273.859375 C 160.234375 273.894531 159.570312 273.890625 158.90625 273.835938 C 158.984375 273.84375 158.097656 273.734375 158.40625 273.78125 C 158.214844 273.75 158.03125 273.714844 157.839844 273.675781 C 157.582031 273.59375 157.570312 273.605469 157.808594 273.714844 C 157.566406 273.570312 157.558594 273.582031 157.785156 273.738281 C 157.328125 275.679688 157.398438 276.375 157.992188 275.820312 C 158.097656 275.734375 158.101562 275.726562 158.003906 275.796875 C 158.140625 275.691406 158.28125 275.59375 158.425781 275.496094 C 158.925781 275.152344 159.453125 274.847656 160 274.578125 C 160.777344 274.195312 162.023438 273.808594 163.140625 273.570312 C 165.726562 273.03125 168.636719 273.195312 171.351562 273.421875 C 172.597656 273.523438 173.785156 272.257812 173.730469 271.046875 C 173.667969 269.675781 172.683594 268.785156 171.351562 268.675781 Z M 171.347656 268.683594 " fill-opacity="1" fill-rule="nonzero"/></g><path fill="#ffa59b" d="M 211.839844 220.90625 C 212.476562 224.699219 211.628906 228.894531 211.257812 232.679688 C 210.859375 236.777344 210.40625 240.863281 209.90625 244.945312 C 208.902344 253.152344 207.664062 261.335938 206.25 269.484375 C 205.726562 272.46875 210.304688 273.753906 210.832031 270.746094 C 212.320312 262.175781 213.597656 253.578125 214.660156 244.941406 C 215.175781 240.730469 215.636719 236.515625 216.050781 232.292969 C 216.457031 228.105469 217.125 223.824219 216.421875 219.640625 C 215.917969 216.636719 211.339844 217.914062 211.839844 220.902344 Z M 211.839844 220.90625 " fill-opacity="1" fill-rule="nonzero"/><g clip-path="url(#e630073d51)"><path fill="#ffa59b" d="M 208.820312 273.429688 C 211.542969 273.203125 214.445312 273.039062 217.03125 273.578125 C 218.15625 273.8125 219.386719 274.199219 220.175781 274.585938 C 220.71875 274.855469 221.246094 275.15625 221.746094 275.503906 C 221.71875 275.484375 222.382812 275.929688 222.097656 275.757812 C 222.746094 276.398438 222.839844 275.726562 222.382812 273.75 C 222.609375 273.589844 222.601562 273.582031 222.359375 273.726562 C 222.59375 273.621094 222.582031 273.605469 222.328125 273.6875 C 222.1875 273.71875 222.046875 273.746094 221.90625 273.769531 C 221.757812 273.796875 221.566406 273.824219 221.261719 273.847656 C 220.597656 273.898438 219.933594 273.90625 219.269531 273.871094 C 218.050781 273.804688 216.9375 273.585938 215.644531 273.25 C 214.351562 272.914062 213.042969 272.464844 211.773438 271.976562 C 211.597656 271.910156 211.414062 271.839844 211.234375 271.769531 C 211.460938 271.878906 211.480469 271.878906 211.292969 271.777344 C 210.910156 271.597656 211.519531 272.03125 211.199219 271.703125 C 211.007812 271.503906 210.808594 271.324219 210.625 271.117188 C 210.792969 271.347656 210.804688 271.359375 210.664062 271.152344 C 210.34375 270.546875 210.324219 271.03125 210.605469 272.601562 C 210.320312 272.886719 210.039062 273.167969 209.75 273.457031 L 209.21875 273.597656 C 209.441406 273.613281 209.460938 273.609375 209.277344 273.59375 C 209.121094 273.570312 209.113281 273.574219 209.257812 273.601562 C 209.328125 273.617188 209.398438 273.632812 209.464844 273.652344 C 209.832031 273.746094 210.191406 273.871094 210.550781 273.988281 C 211.332031 274.238281 212.101562 274.433594 212.929688 274.472656 C 214.171875 274.53125 215.359375 273.339844 215.304688 272.097656 C 215.246094 270.765625 214.257812 269.789062 212.929688 269.726562 C 212.496094 269.707031 212.917969 269.726562 212.992188 269.746094 C 212.820312 269.707031 212.644531 269.664062 212.472656 269.613281 C 212.179688 269.527344 211.886719 269.429688 211.597656 269.335938 C 210.855469 269.097656 210.097656 268.882812 209.3125 268.855469 C 206.773438 268.769531 205.210938 271.378906 206.5625 273.550781 C 207.410156 274.914062 208.636719 275.832031 210.109375 276.40625 C 211.6875 277.023438 213.296875 277.578125 214.949219 277.976562 C 216.636719 278.382812 218.390625 278.652344 220.128906 278.648438 C 221.910156 278.648438 224.230469 278.542969 225.601562 277.246094 C 226.300781 276.589844 226.6875 275.726562 226.664062 274.765625 C 226.632812 273.464844 225.738281 272.613281 224.777344 271.882812 C 223.464844 270.882812 221.996094 270.160156 220.441406 269.613281 C 216.730469 268.304688 212.6875 268.375 208.820312 268.699219 C 207.585938 268.796875 206.378906 269.71875 206.441406 271.070312 C 206.496094 272.269531 207.492188 273.550781 208.820312 273.445312 Z M 208.820312 273.429688 " fill-opacity="1" fill-rule="nonzero"/></g><g clip-path="url(#421d44c3b8)"><g clip-path="url(#dc4bbf58a0)"><g clip-path="url(#0bc2a0a5a1)"><g clip-path="url(#e6ae48013c)"><path fill="#ff2c19" d="M 216.265625 26.871094 L 170.589844 8.226562 C 164.207031 5.621094 156.796875 10.261719 154.667969 18.195312 L 143.542969 59.675781 C 141.449219 67.476562 145.375 75.117188 152.054688 76.242188 L 173.191406 79.792969 C 175.429688 80.171875 177.296875 81.761719 178.242188 84.097656 L 187.871094 103.789062 C 188.171875 104.40625 188.992188 104.230469 189.183594 103.507812 L 193.746094 86.160156 C 194.160156 84.585938 195.519531 83.546875 196.863281 83.773438 L 200.753906 84.425781 C 205.949219 85.300781 211.203125 81.277344 212.800781 75.199219 L 221.882812 40.671875 C 223.4375 34.753906 221.019531 28.808594 216.265625 26.871094 " fill-opacity="1" fill-rule="nonzero"/></g></g></g></g><g clip-path="url(#6a73d7f930)"><g clip-path="url(#557ddc322f)"><g clip-path="url(#a2c76d2b25)"><g clip-path="url(#9a38e10c12)"><path fill="#e62816" d="M 189.183594 103.507812 L 190.558594 98.277344 L 180.210938 78.28125 C 179.335938 76.59375 177.71875 75.414062 175.84375 75.097656 L 157.6875 72.046875 C 147.089844 70.328125 146.886719 65.902344 149.171875 55.480469 L 160.300781 14 C 160.898438 11.773438 161.910156 9.804688 163.199219 8.1875 C 159.332031 9.632812 155.988281 13.28125 154.667969 18.195312 L 143.542969 59.675781 C 141.449219 67.476562 145.375 75.117188 152.054688 76.242188 L 173.191406 79.792969 C 175.429688 80.171875 177.296875 81.761719 178.242188 84.097656 L 187.871094 103.789062 C 188.171875 104.40625 188.992188 104.226562 189.183594 103.507812 " fill-opacity="1" fill-rule="nonzero"/></g></g></g></g><g clip-path="url(#6eb6ff13ab)"><g clip-path="url(#81ce212805)"><g clip-path="url(#527e7eed37)"><g clip-path="url(#338c85c827)"><path fill="#25bf6a" d="M 336.460938 93.476562 L 290.25 67.382812 C 285.542969 64.726562 279.21875 66.433594 275.574219 71.347656 L 254.304688 100.023438 C 250.5625 105.074219 250.882812 111.816406 255.042969 115.492188 L 258.15625 118.246094 C 259.230469 119.195312 259.316406 120.941406 258.347656 122.25 L 250.910156 132.277344 C 250.230469 133.1875 250.75 134.394531 251.796875 134.351562 L 271.652344 133.304688 C 273.679688 133.101562 275.628906 133.691406 277.101562 134.992188 L 294.835938 150.667969 C 299.742188 155.003906 307.699219 153.597656 312.082031 147.621094 L 338.972656 110.972656 C 343.429688 104.898438 342.261719 96.753906 336.460938 93.476562 " fill-opacity="1" fill-rule="nonzero"/></g></g></g></g><g clip-path="url(#c7b4ddadef)"><g clip-path="url(#242da69466)"><g clip-path="url(#72cea0fc22)"><g clip-path="url(#7860a69814)"><path fill="#20a65c" d="M 341.085938 99.148438 C 340.726562 101.140625 339.898438 103.132812 338.574219 104.941406 L 311.683594 141.589844 C 306.269531 149.191406 300.976562 150.660156 294.4375 144.636719 L 278.902344 130.90625 C 277.492188 129.660156 275.652344 129.015625 273.769531 129.109375 L 252.464844 130.175781 L 250.910156 132.277344 C 250.230469 133.1875 250.75 134.394531 251.796875 134.351562 L 271.652344 133.304688 C 273.679688 133.101562 275.628906 133.691406 277.101562 134.992188 L 294.835938 150.667969 C 299.742188 155.003906 307.699219 153.597656 312.082031 147.621094 L 338.972656 110.972656 C 341.683594 107.277344 342.3125 102.816406 341.085938 99.148438 " fill-opacity="1" fill-rule="nonzero"/></g></g></g></g><g clip-path="url(#857cdbcff3)"><g clip-path="url(#3d0d3cee00)"><g clip-path="url(#e2c5a8ddb5)"><g clip-path="url(#07f18b5a0c)"><path fill="#e3e3e3" d="M 195.078125 84.203125 C 195.613281 83.835938 196.238281 83.667969 196.863281 83.773438 L 196.890625 83.777344 C 196.082031 83.679688 195.703125 83.847656 195.078125 84.203125 M 197.425781 83.867188 L 197.433594 83.867188 L 197.425781 83.867188 M 198.671875 84.078125 L 200.753906 84.425781 C 205.949219 85.300781 211.203125 81.277344 212.800781 75.199219 L 221.882812 40.671875 C 223.0625 36.179688 221.953125 31.671875 219.273438 28.914062 L 289.160156 66.859375 C 284.605469 65 278.945312 66.800781 275.574219 71.347656 L 254.304688 100.023438 C 252.265625 102.773438 251.433594 106.023438 251.769531 109.007812 L 198.671875 84.078125 M 252.492188 111.875 C 252.136719 111.019531 251.902344 110.121094 251.792969 109.199219 C 251.910156 110.125 252.144531 111.027344 252.492188 111.875 M 295.964844 70.609375 L 293.214844 69.058594 L 295.964844 70.609375 M 210.292969 24.429688 L 213.214844 25.625 L 210.292969 24.429688 " fill-opacity="1" fill-rule="nonzero"/></g></g></g></g><g clip-path="url(#225f8b1484)"><g clip-path="url(#510e96be95)"><g clip-path="url(#a2499ff840)"><g clip-path="url(#c194f138ec)"><path fill="#e32716" d="M 195.078125 84.203125 C 192.796875 79.707031 192.484375 74.082031 194.597656 68.769531 L 210.292969 24.429688 L 213.214844 25.625 L 219.273438 28.914062 C 221.953125 31.671875 223.0625 36.179688 221.882812 40.671875 L 212.800781 75.199219 C 211.203125 81.277344 205.949219 85.300781 200.753906 84.425781 L 198.671875 84.078125 L 198.660156 84.070312 L 197.433594 83.867188 L 197.425781 83.867188 C 197.226562 83.824219 197.050781 83.796875 196.890625 83.777344 L 196.863281 83.773438 C 196.238281 83.667969 195.613281 83.835938 195.078125 84.203125 " fill-opacity="1" fill-rule="nonzero"/></g></g></g></g><g clip-path="url(#c28869790d)"><g clip-path="url(#6b5e16e9a9)"><g clip-path="url(#dbc062aefe)"><g clip-path="url(#eba39678b0)"><path fill="#21aa5e" d="M 252.96875 112.886719 L 252.84375 112.640625 C 252.714844 112.390625 252.597656 112.132812 252.492188 111.875 C 252.144531 111.027344 251.910156 110.125 251.792969 109.199219 C 251.785156 109.136719 251.777344 109.070312 251.769531 109.007812 C 251.433594 106.023438 252.265625 102.773438 254.304688 100.023438 L 275.574219 71.347656 C 278.945312 66.800781 284.605469 65 289.160156 66.859375 L 293.214844 69.058594 L 295.964844 70.609375 C 295.851562 70.820312 295.742188 71.015625 295.644531 71.203125 L 277.175781 106.421875 C 275.261719 110.074219 272.191406 112.921875 268.535156 114.449219 C 264.78125 116.011719 260.753906 116.050781 257.183594 114.554688 L 252.96875 112.886719 " fill-opacity="1" fill-rule="nonzero"/></g></g></g></g><g clip-path="url(#97c42453a6)"><g clip-path="url(#df015634a7)"><g clip-path="url(#a1b2192517)"><g clip-path="url(#3b5dff475f)"><path fill="#ffbb02" d="M 299.773438 56.917969 C 302.449219 51.199219 299.820312 44.414062 294.03125 41.953125 L 243.261719 16.574219 C 241.503906 15.699219 233.179688 11.578125 231.230469 11.347656 C 225.316406 10.652344 220.929688 13.316406 217.609375 17.398438 C 215.804688 19.621094 214.425781 22.164062 213.480469 24.871094 L 197.550781 69.878906 C 194.511719 77.4375 197.363281 85.855469 204.273438 88.773438 L 224.199219 96.929688 C 224.878906 97.214844 225.238281 97.988281 225.058594 98.785156 L 224.347656 113.558594 C 224.335938 113.832031 224.300781 114.109375 224.273438 114.382812 C 224.070312 116.289062 226.066406 117.476562 227.640625 116.230469 L 241 105.640625 C 241.46875 105.273438 242.058594 105.167969 242.566406 105.371094 L 258.382812 111.625 C 264.15625 114.0625 271.132812 111.152344 274.382812 104.957031 L 292.851562 69.738281 C 294.378906 66.828125 297.503906 61.769531 299.773438 56.917969 " fill-opacity="1" fill-rule="nonzero"/></g></g></g></g><g clip-path="url(#2a0db37469)"><g clip-path="url(#91e1079527)"><g clip-path="url(#922f6963d3)"><g clip-path="url(#658b45e34b)"><path fill="#e8aa02" d="M 224.230469 94.476562 C 224.40625 93.679688 224.050781 92.90625 223.371094 92.621094 L 203.441406 84.464844 C 199.996094 83.011719 197.558594 80.1875 196.359375 76.78125 C 196.601562 82.015625 199.449219 86.738281 204.273438 88.773438 L 224.113281 96.890625 L 224.230469 94.476562 " fill-opacity="1" fill-rule="nonzero"/></g></g></g></g><g clip-path="url(#beed07717a)"><g clip-path="url(#37f24d346e)"><g clip-path="url(#e51d91507b)"><g clip-path="url(#cb0b306cae)"><path fill="#e8aa02" d="M 299.773438 56.917969 C 301.144531 53.984375 301.121094 50.769531 299.992188 48.003906 C 299.980469 49.546875 299.644531 51.117188 298.945312 52.613281 C 296.675781 57.460938 293.546875 62.523438 292.023438 65.433594 L 273.554688 100.648438 C 269.773438 108.484375 264.4375 110.550781 257.550781 107.316406 L 241.734375 101.0625 C 241.230469 100.863281 240.636719 100.964844 240.171875 101.335938 L 226.808594 111.925781 C 226.003906 112.5625 225.089844 112.5625 224.414062 112.15625 L 224.347656 113.558594 C 224.335938 113.832031 224.300781 114.109375 224.273438 114.382812 C 224.070312 116.289062 226.066406 117.476562 227.640625 116.230469 L 241 105.640625 C 241.46875 105.273438 242.058594 105.167969 242.566406 105.371094 L 258.382812 111.625 C 264.15625 114.0625 271.132812 111.152344 274.382812 104.957031 L 292.851562 69.738281 C 294.378906 66.828125 297.503906 61.769531 299.773438 56.917969 " fill-opacity="1" fill-rule="nonzero"/></g></g></g></g><g clip-path="url(#bf3fdfc17b)"><g clip-path="url(#a79a2193ef)"><g clip-path="url(#f9ac283a08)"><g clip-path="url(#55539b5083)"><path fill="#ffffff" d="M 267.429688 51.816406 C 266.054688 48.1875 263.40625 44.792969 259.058594 42.511719 C 254.925781 40.34375 250.785156 40.164062 247.058594 41.082031 C 245.066406 41.574219 243.335938 42.382812 241.871094 43.503906 C 239.707031 45.160156 240.003906 48.511719 242.410156 49.769531 C 244.03125 50.621094 246 50.492188 247.488281 49.414062 C 248.441406 48.722656 249.429688 48.261719 250.441406 48.03125 C 252.3125 47.609375 254.210938 47.902344 256.132812 48.914062 C 258.128906 49.957031 259.4375 51.316406 260.0625 52.988281 C 260.683594 54.660156 260.609375 56.238281 259.832031 57.714844 C 259.273438 58.78125 258.429688 59.578125 257.304688 60.113281 C 256.578125 60.449219 254.636719 60.9375 251.484375 61.582031 C 248.6875 62.152344 246.542969 62.882812 245.050781 63.777344 C 244.757812 63.953125 244.480469 64.15625 244.214844 64.375 C 242.886719 65.46875 240.914062 69.382812 239.140625 72.402344 C 238 74.335938 238.195312 76.566406 240.164062 77.632812 L 240.660156 77.894531 C 242.535156 78.910156 244.875 78.253906 245.964844 76.414062 C 247.445312 73.90625 248.742188 70.816406 249.269531 70.421875 C 250.082031 69.8125 251.636719 69.261719 253.9375 68.765625 C 258.378906 67.804688 261.464844 66.828125 263.191406 65.824219 C 264.921875 64.824219 266.226562 63.484375 267.105469 61.804688 C 268.695312 58.777344 268.800781 55.445312 267.429688 51.816406 " fill-opacity="1" fill-rule="nonzero"/></g></g></g></g><g clip-path="url(#bdbcd08651)"><g clip-path="url(#69e8ac639a)"><g clip-path="url(#d78dfe6e7f)"><g clip-path="url(#195d2a354c)"><path fill="#ffffff" d="M 232.835938 83.585938 C 234.03125 81.3125 236.835938 80.429688 239.101562 81.621094 C 241.367188 82.808594 242.238281 85.617188 241.042969 87.890625 C 239.851562 90.164062 237.046875 91.042969 234.78125 89.855469 C 232.515625 88.667969 231.644531 85.859375 232.835938 83.585938 " fill-opacity="1" fill-rule="nonzero"/></g></g></g></g><g clip-path="url(#f0323c40de)"><g clip-path="url(#bb4add8ca4)"><g clip-path="url(#a91834e588)"><g clip-path="url(#1879505fa9)"><path fill="#ffffff" d="M 317.191406 103.257812 C 317.171875 99.96875 316.074219 96.488281 313.296875 93.390625 C 310.660156 90.445312 307.429688 89.074219 304.207031 88.703125 C 302.480469 88.503906 300.871094 88.632812 299.378906 89.089844 C 297.175781 89.765625 296.425781 92.515625 297.957031 94.230469 C 298.992188 95.382812 300.59375 95.867188 302.089844 95.449219 C 303.050781 95.179688 303.96875 95.105469 304.839844 95.226562 C 306.449219 95.445312 307.863281 96.238281 309.09375 97.609375 C 310.363281 99.03125 311.003906 100.496094 311.003906 102.011719 C 311.003906 103.523438 310.480469 104.753906 309.429688 105.699219 C 308.675781 106.378906 307.769531 106.765625 306.71875 106.855469 C 306.046875 106.90625 304.363281 106.71875 301.671875 106.296875 C 299.285156 105.921875 297.371094 105.871094 295.921875 106.140625 C 295.640625 106.195312 295.359375 106.269531 295.085938 106.367188 C 293.710938 106.84375 290.992188 109.371094 288.695312 111.242188 C 287.222656 112.445312 286.71875 114.273438 287.964844 115.703125 L 288.28125 116.058594 C 289.46875 117.417969 291.519531 117.589844 292.921875 116.449219 C 294.835938 114.894531 296.773438 112.824219 297.308594 112.667969 C 298.132812 112.421875 299.527344 112.445312 301.5 112.730469 C 305.304688 113.285156 308.039062 113.421875 309.703125 113.136719 C 311.371094 112.851562 312.796875 112.171875 313.988281 111.101562 C 316.144531 109.164062 317.210938 106.550781 317.191406 103.257812 " fill-opacity="1" fill-rule="nonzero"/></g></g></g></g><g clip-path="url(#64553e5d6a)"><g clip-path="url(#2606693478)"><g clip-path="url(#7209c95bfd)"><g clip-path="url(#99bdc11595)"><path fill="#ffffff" d="M 280.402344 118.261719 C 282.019531 116.808594 284.5 116.941406 285.949219 118.554688 C 287.394531 120.171875 287.257812 122.65625 285.640625 124.113281 C 284.023438 125.566406 281.542969 125.4375 280.09375 123.820312 C 278.648438 122.207031 278.785156 119.71875 280.402344 118.261719 " fill-opacity="1" fill-rule="nonzero"/></g></g></g></g><g clip-path="url(#1e4146131e)"><g clip-path="url(#99413f545c)"><g clip-path="url(#258232835f)"><g clip-path="url(#86a01f238a)"><path fill="#ffffff" d="M 193.238281 31.582031 C 191.375 29.421875 188.6875 27.742188 185.105469 27.265625 C 181.699219 26.808594 178.78125 27.726562 176.433594 29.300781 C 175.179688 30.144531 174.183594 31.136719 173.449219 32.285156 C 172.367188 33.972656 173.414062 36.210938 175.394531 36.476562 C 176.730469 36.65625 178.066406 36.070312 178.824219 34.953125 C 179.3125 34.230469 179.878906 33.664062 180.523438 33.25 C 181.710938 32.488281 183.097656 32.210938 184.683594 32.425781 C 186.328125 32.644531 187.578125 33.253906 188.429688 34.25 C 189.28125 35.25 189.625 36.359375 189.457031 37.574219 C 189.339844 38.453125 188.953125 39.214844 188.308594 39.871094 C 187.890625 40.285156 186.667969 41.109375 184.644531 42.351562 C 182.851562 43.449219 181.550781 44.5 180.742188 45.492188 C 180.582031 45.6875 180.441406 45.898438 180.3125 46.113281 C 179.667969 47.203125 179.285156 50.410156 178.8125 52.941406 C 178.511719 54.566406 179.207031 56.058594 180.835938 56.300781 L 181.246094 56.355469 C 182.800781 56.585938 184.253906 55.539062 184.546875 53.992188 C 184.941406 51.886719 185.066406 49.425781 185.332031 49.019531 C 185.742188 48.394531 186.679688 47.621094 188.148438 46.699219 C 190.984375 44.914062 192.875 43.460938 193.820312 42.332031 C 194.765625 41.203125 195.332031 39.949219 195.519531 38.566406 C 195.859375 36.074219 195.097656 33.746094 193.238281 31.582031 " fill-opacity="1" fill-rule="nonzero"/></g></g></g></g><g clip-path="url(#1a815ec7d6)"><g clip-path="url(#852953a0a7)"><g clip-path="url(#1fc77b33cc)"><g clip-path="url(#b5969015ef)"><path fill="#ffffff" d="M 177.257812 62.261719 C 177.511719 60.386719 179.234375 59.070312 181.101562 59.324219 L 181.101562 59.320312 C 182.96875 59.570312 184.277344 61.292969 184.023438 63.164062 C 183.765625 65.039062 182.046875 66.351562 180.179688 66.105469 L 180.175781 66.105469 C 178.308594 65.851562 177.003906 64.132812 177.257812 62.261719 " fill-opacity="1" fill-rule="nonzero"/></g></g></g></g><g fill="#3b3a35" fill-opacity="1"><g transform="translate(17.838283, 328.330495)"><g><path d="M 32.875 -4.46875 L 31.265625 -7.96875 L 12.515625 -7.96875 L 11.046875 -4.546875 L 10.625 -3.5 C 9.457031 -0.976562 7.710938 0.28125 5.390625 0.28125 C 3.941406 0.28125 2.679688 -0.21875 1.609375 -1.21875 C 0.535156 -2.226562 0 -3.429688 0 -4.828125 C 0 -5.710938 0.253906 -6.710938 0.765625 -7.828125 L 1.265625 -8.875 L 16.71875 -43.5 C 17.695312 -45.6875 19.398438 -46.78125 21.828125 -46.78125 C 22.941406 -46.78125 23.953125 -46.5 24.859375 -45.9375 C 25.765625 -45.382812 26.453125 -44.570312 26.921875 -43.5 L 42.796875 -9.015625 C 43.316406 -7.898438 43.644531 -7.085938 43.78125 -6.578125 C 43.914062 -6.066406 43.984375 -5.484375 43.984375 -4.828125 C 43.984375 -3.429688 43.445312 -2.21875 42.375 -1.1875 C 41.3125 -0.164062 40.054688 0.34375 38.609375 0.34375 C 36.222656 0.34375 34.472656 -0.890625 33.359375 -3.359375 Z M 27.5625 -17.203125 L 21.890625 -30.625 L 16.359375 -17.203125 Z M 27.5625 -17.203125 "/></g></g></g><g fill="#3b3a35" fill-opacity="1"><g transform="translate(59.171101, 328.330495)"><g><path d="M 4.203125 -41.46875 C 4.203125 -43.050781 4.628906 -44.304688 5.484375 -45.234375 C 6.347656 -46.171875 7.476562 -46.640625 8.875 -46.640625 C 10.28125 -46.640625 11.398438 -46.160156 12.234375 -45.203125 C 13.078125 -44.253906 13.5 -43.007812 13.5 -41.46875 L 13.5 -4.890625 C 13.5 -3.210938 13.085938 -1.894531 12.265625 -0.9375 C 11.453125 0.0078125 10.320312 0.484375 8.875 0.484375 C 7.476562 0.484375 6.347656 0.0078125 5.484375 -0.9375 C 4.628906 -1.894531 4.203125 -3.144531 4.203125 -4.6875 Z M 4.203125 -41.46875 "/></g></g></g><g fill="#3b3a35" fill-opacity="1"><g transform="translate(74.277347, 328.330495)"><g><path d="M 34.203125 -5.03125 C 34.203125 -2.46875 33.976562 -0.3125 33.53125 1.4375 C 33.09375 3.1875 32.382812 4.664062 31.40625 5.875 C 29.863281 7.78125 27.925781 9.242188 25.59375 10.265625 C 23.257812 11.296875 20.695312 11.8125 17.90625 11.8125 C 16.039062 11.8125 14.269531 11.601562 12.59375 11.1875 C 10.914062 10.769531 9.429688 10.1875 8.140625 9.4375 C 6.859375 8.695312 5.84375 7.835938 5.09375 6.859375 C 4.351562 5.878906 3.984375 4.851562 3.984375 3.78125 C 3.984375 2.519531 4.414062 1.445312 5.28125 0.5625 C 6.144531 -0.320312 7.207031 -0.765625 8.46875 -0.765625 C 9.164062 -0.765625 9.789062 -0.644531 10.34375 -0.40625 C 10.90625 -0.175781 11.703125 0.304688 12.734375 1.046875 C 13.804688 1.796875 14.738281 2.320312 15.53125 2.625 C 16.320312 2.925781 17.253906 3.078125 18.328125 3.078125 C 20.421875 3.078125 22.035156 2.421875 23.171875 1.109375 C 24.316406 -0.191406 24.890625 -2.050781 24.890625 -4.46875 L 24.890625 -5.03125 C 23.546875 -4.050781 22.21875 -3.335938 20.90625 -2.890625 C 19.601562 -2.453125 18.132812 -2.234375 16.5 -2.234375 C 14.40625 -2.234375 12.472656 -2.628906 10.703125 -3.421875 C 8.929688 -4.210938 7.390625 -5.304688 6.078125 -6.703125 C 4.773438 -8.109375 3.75 -9.753906 3 -11.640625 C 2.257812 -13.535156 1.890625 -15.578125 1.890625 -17.765625 C 1.890625 -20.003906 2.257812 -22.101562 3 -24.0625 C 3.75 -26.019531 4.765625 -27.71875 6.046875 -29.15625 C 7.328125 -30.601562 8.851562 -31.734375 10.625 -32.546875 C 12.394531 -33.367188 14.304688 -33.78125 16.359375 -33.78125 C 18.128906 -33.78125 19.703125 -33.546875 21.078125 -33.078125 C 22.460938 -32.609375 23.945312 -31.789062 25.53125 -30.625 C 25.90625 -31.5625 26.453125 -32.285156 27.171875 -32.796875 C 27.890625 -33.304688 28.71875 -33.5625 29.65625 -33.5625 C 30.351562 -33.5625 31.023438 -33.398438 31.671875 -33.078125 C 32.328125 -32.753906 32.867188 -32.289062 33.296875 -31.6875 C 33.660156 -31.164062 33.898438 -30.648438 34.015625 -30.140625 C 34.140625 -29.628906 34.203125 -28.882812 34.203125 -27.90625 Z M 18.46875 -24.828125 C 17.53125 -24.828125 16.648438 -24.648438 15.828125 -24.296875 C 15.015625 -23.953125 14.296875 -23.472656 13.671875 -22.859375 C 13.046875 -22.253906 12.554688 -21.53125 12.203125 -20.6875 C 11.847656 -19.851562 11.671875 -18.972656 11.671875 -18.046875 C 11.671875 -16.085938 12.320312 -14.453125 13.625 -13.140625 C 14.9375 -11.835938 16.550781 -11.1875 18.46875 -11.1875 C 20.375 -11.1875 21.976562 -11.835938 23.28125 -13.140625 C 24.59375 -14.453125 25.25 -16.0625 25.25 -17.96875 C 25.25 -19.882812 24.59375 -21.503906 23.28125 -22.828125 C 21.976562 -24.160156 20.375 -24.828125 18.46875 -24.828125 Z M 18.46875 -24.828125 "/></g></g></g><g fill="#3b3a35" fill-opacity="1"><g transform="translate(109.875291, 328.330495)"><g><path d="M 19.375 -33.78125 C 21.75 -33.78125 23.984375 -33.320312 26.078125 -32.40625 C 28.179688 -31.5 30.015625 -30.265625 31.578125 -28.703125 C 33.140625 -27.140625 34.375 -25.3125 35.28125 -23.21875 C 36.1875 -21.125 36.640625 -18.863281 36.640625 -16.4375 C 36.640625 -14.101562 36.1875 -11.898438 35.28125 -9.828125 C 34.375 -7.753906 33.125 -5.9375 31.53125 -4.375 C 29.945312 -2.8125 28.109375 -1.570312 26.015625 -0.65625 C 23.921875 0.25 21.679688 0.703125 19.296875 0.703125 C 16.921875 0.703125 14.671875 0.257812 12.546875 -0.625 C 10.429688 -1.507812 8.59375 -2.722656 7.03125 -4.265625 C 5.46875 -5.804688 4.21875 -7.601562 3.28125 -9.65625 C 2.351562 -11.707031 1.890625 -13.894531 1.890625 -16.21875 C 1.890625 -18.695312 2.34375 -21.003906 3.25 -23.140625 C 4.15625 -25.285156 5.390625 -27.140625 6.953125 -28.703125 C 8.515625 -30.265625 10.359375 -31.5 12.484375 -32.40625 C 14.609375 -33.320312 16.90625 -33.78125 19.375 -33.78125 Z M 19.375 -24.484375 C 18.25 -24.484375 17.195312 -24.269531 16.21875 -23.84375 C 15.238281 -23.425781 14.390625 -22.851562 13.671875 -22.125 C 12.953125 -21.40625 12.394531 -20.554688 12 -19.578125 C 11.601562 -18.597656 11.40625 -17.523438 11.40625 -16.359375 C 11.40625 -15.335938 11.613281 -14.359375 12.03125 -13.421875 C 12.445312 -12.492188 13.015625 -11.679688 13.734375 -10.984375 C 14.460938 -10.285156 15.300781 -9.734375 16.25 -9.328125 C 17.207031 -8.929688 18.222656 -8.734375 19.296875 -8.734375 C 20.367188 -8.734375 21.382812 -8.941406 22.34375 -9.359375 C 23.300781 -9.785156 24.140625 -10.347656 24.859375 -11.046875 C 25.585938 -11.742188 26.160156 -12.570312 26.578125 -13.53125 C 26.992188 -14.488281 27.203125 -15.503906 27.203125 -16.578125 C 27.203125 -17.691406 26.992188 -18.726562 26.578125 -19.6875 C 26.160156 -20.644531 25.597656 -21.472656 24.890625 -22.171875 C 24.191406 -22.867188 23.363281 -23.425781 22.40625 -23.84375 C 21.457031 -24.269531 20.445312 -24.484375 19.375 -24.484375 Z M 19.375 -24.484375 "/></g></g></g><g fill="#3b3a35" fill-opacity="1"><g transform="translate(145.822921, 328.330495)"><g/></g></g><g fill="#3b3a35" fill-opacity="1"><g transform="translate(161.418733, 328.330495)"><g><path d="M 3.5 -15.59375 L 3.5 -21.546875 L 35.171875 -36.640625 L 35.171875 -29.375 L 11.46875 -18.609375 L 11.46875 -18.46875 L 35.171875 -7.765625 L 35.171875 -0.484375 Z M 3.5 -15.59375 "/></g></g></g><g fill="#5e4d5c" fill-opacity="1"><g transform="translate(197.51015, 328.330495)"><g><path d="M 14.125 -6.71875 L 14.125 -36.859375 L 5.453125 -36.859375 C 3.773438 -36.898438 2.445312 -37.351562 1.46875 -38.21875 C 0.488281 -39.082031 0 -40.257812 0 -41.75 C 0 -43.195312 0.5 -44.375 1.5 -45.28125 C 2.5 -46.1875 3.816406 -46.640625 5.453125 -46.640625 L 33.5 -46.640625 C 35.132812 -46.597656 36.453125 -46.144531 37.453125 -45.28125 C 38.453125 -44.414062 38.953125 -43.238281 38.953125 -41.75 C 38.953125 -40.257812 38.453125 -39.070312 37.453125 -38.1875 C 36.453125 -37.300781 35.132812 -36.859375 33.5 -36.859375 L 24.828125 -36.859375 L 24.828125 -5.53125 C 24.785156 -3.707031 24.285156 -2.25 23.328125 -1.15625 C 22.367188 -0.0625 21.070312 0.484375 19.4375 0.484375 C 17.851562 0.484375 16.570312 -0.0703125 15.59375 -1.1875 C 14.613281 -2.3125 14.125 -3.757812 14.125 -5.53125 Z M 14.125 -6.71875 "/></g></g></g><g fill="#5e4d5c" fill-opacity="1"><g transform="translate(233.877411, 328.330495)"><g><path d="M 4.203125 -5.734375 L 4.203125 -26.78125 C 4.203125 -27.476562 4.210938 -28.046875 4.234375 -28.484375 C 4.253906 -28.929688 4.273438 -29.304688 4.296875 -29.609375 C 4.328125 -29.921875 4.382812 -30.191406 4.46875 -30.421875 C 4.5625 -30.648438 4.679688 -30.882812 4.828125 -31.125 C 5.753906 -32.75 7.082031 -33.5625 8.8125 -33.5625 C 10.71875 -33.5625 12.140625 -32.65625 13.078125 -30.84375 C 15.316406 -32.800781 17.71875 -33.78125 20.28125 -33.78125 C 21.125 -33.78125 21.90625 -33.628906 22.625 -33.328125 C 23.34375 -33.023438 23.96875 -32.613281 24.5 -32.09375 C 25.039062 -31.582031 25.472656 -30.976562 25.796875 -30.28125 C 26.128906 -29.582031 26.296875 -28.835938 26.296875 -28.046875 C 26.296875 -26.503906 25.75 -25.195312 24.65625 -24.125 C 23.5625 -23.050781 22.242188 -22.515625 20.703125 -22.515625 C 20.046875 -22.515625 19.539062 -22.582031 19.1875 -22.71875 C 18.84375 -22.863281 18.226562 -23.191406 17.34375 -23.703125 C 16.644531 -24.128906 16.039062 -24.34375 15.53125 -24.34375 C 14.78125 -24.34375 14.253906 -24.015625 13.953125 -23.359375 C 13.648438 -22.703125 13.5 -21.609375 13.5 -20.078125 L 13.5 -4.6875 C 13.445312 -3.101562 13.015625 -1.84375 12.203125 -0.90625 C 11.390625 0.0195312 10.28125 0.484375 8.875 0.484375 C 7.476562 0.484375 6.347656 0.0078125 5.484375 -0.9375 C 4.628906 -1.894531 4.203125 -3.144531 4.203125 -4.6875 Z M 4.203125 -5.734375 "/></g></g></g><g fill="#5e4d5c" fill-opacity="1"><g transform="translate(257.585975, 328.330495)"><g><path d="M 30.5 -5.734375 C 30.5 -4.523438 30.425781 -3.628906 30.28125 -3.046875 C 30.144531 -2.460938 29.863281 -1.890625 29.4375 -1.328125 C 28.507812 -0.117188 27.253906 0.484375 25.671875 0.484375 C 24.691406 0.484375 23.847656 0.265625 23.140625 -0.171875 C 22.441406 -0.617188 21.835938 -1.351562 21.328125 -2.375 C 19.972656 -1.300781 18.664062 -0.53125 17.40625 -0.0625 C 16.15625 0.394531 14.828125 0.625 13.421875 0.625 C 11.796875 0.625 10.28125 0.320312 8.875 -0.28125 C 7.476562 -0.882812 6.253906 -1.734375 5.203125 -2.828125 C 4.160156 -3.921875 3.347656 -5.191406 2.765625 -6.640625 C 2.179688 -8.085938 1.890625 -9.648438 1.890625 -11.328125 C 1.890625 -13.054688 2.203125 -14.664062 2.828125 -16.15625 C 3.460938 -17.644531 4.328125 -18.9375 5.421875 -20.03125 C 6.515625 -21.132812 7.796875 -22 9.265625 -22.625 C 10.734375 -23.25 12.332031 -23.5625 14.0625 -23.5625 C 15.226562 -23.5625 16.359375 -23.398438 17.453125 -23.078125 C 18.546875 -22.753906 19.722656 -22.265625 20.984375 -21.609375 C 20.984375 -23.335938 20.664062 -24.550781 20.03125 -25.25 C 19.40625 -25.945312 18.347656 -26.296875 16.859375 -26.296875 C 16.109375 -26.296875 15.269531 -26.179688 14.34375 -25.953125 L 12.09375 -25.3125 C 11.445312 -25.082031 10.898438 -24.929688 10.453125 -24.859375 C 10.015625 -24.796875 9.609375 -24.765625 9.234375 -24.765625 C 8.160156 -24.765625 7.285156 -25.113281 6.609375 -25.8125 C 5.929688 -26.507812 5.59375 -27.394531 5.59375 -28.46875 C 5.59375 -30.28125 6.617188 -31.734375 8.671875 -32.828125 C 10.722656 -33.929688 13.40625 -34.484375 16.71875 -34.484375 C 19 -34.484375 21.082031 -34.164062 22.96875 -33.53125 C 24.863281 -32.90625 26.414062 -31.984375 27.625 -30.765625 C 28.644531 -29.691406 29.378906 -28.375 29.828125 -26.8125 C 30.273438 -25.257812 30.5 -23.222656 30.5 -20.703125 Z M 20.984375 -11.609375 C 20.984375 -12.960938 20.550781 -14.101562 19.6875 -15.03125 C 18.820312 -15.96875 17.710938 -16.4375 16.359375 -16.4375 C 15.109375 -16.4375 14.035156 -15.976562 13.140625 -15.0625 C 12.253906 -14.15625 11.8125 -13.050781 11.8125 -11.75 C 11.8125 -10.394531 12.253906 -9.273438 13.140625 -8.390625 C 14.035156 -7.503906 15.15625 -7.0625 16.5 -7.0625 C 17.8125 -7.0625 18.882812 -7.492188 19.71875 -8.359375 C 20.5625 -9.222656 20.984375 -10.304688 20.984375 -11.609375 Z M 20.984375 -11.609375 "/></g></g></g><g fill="#5e4d5c" fill-opacity="1"><g transform="translate(289.407288, 328.330495)"><g><path d="M 4.34375 -5.734375 L 4.34375 -28.390625 C 4.382812 -29.972656 4.820312 -31.226562 5.65625 -32.15625 C 6.5 -33.09375 7.597656 -33.5625 8.953125 -33.5625 C 10.347656 -33.5625 11.476562 -33.082031 12.34375 -32.125 C 13.207031 -31.175781 13.640625 -29.929688 13.640625 -28.390625 L 13.640625 -4.6875 C 13.585938 -3.101562 13.140625 -1.84375 12.296875 -0.90625 C 11.460938 0.0195312 10.367188 0.484375 9.015625 0.484375 C 7.617188 0.484375 6.488281 0.0078125 5.625 -0.9375 C 4.769531 -1.894531 4.34375 -3.144531 4.34375 -4.6875 Z M 8.953125 -46.71875 C 10.492188 -46.71875 11.800781 -46.179688 12.875 -45.109375 C 13.945312 -44.035156 14.484375 -42.726562 14.484375 -41.1875 C 14.484375 -39.65625 13.929688 -38.335938 12.828125 -37.234375 C 11.734375 -36.140625 10.394531 -35.59375 8.8125 -35.59375 C 8.0625 -35.59375 7.347656 -35.742188 6.671875 -36.046875 C 6.003906 -36.347656 5.410156 -36.742188 4.890625 -37.234375 C 4.378906 -37.722656 3.972656 -38.296875 3.671875 -38.953125 C 3.367188 -39.609375 3.21875 -40.304688 3.21875 -41.046875 C 3.21875 -42.679688 3.765625 -44.035156 4.859375 -45.109375 C 5.953125 -46.179688 7.316406 -46.71875 8.953125 -46.71875 Z M 8.953125 -46.71875 "/></g></g></g><g fill="#5e4d5c" fill-opacity="1"><g transform="translate(304.513535, 328.330495)"><g><path d="M 9.15625 4.125 C 8.457031 6.550781 7.015625 7.765625 4.828125 7.765625 C 3.609375 7.765625 2.59375 7.367188 1.78125 6.578125 C 0.96875 5.785156 0.5625 4.78125 0.5625 3.5625 C 0.5625 3.332031 0.582031 3.050781 0.625 2.71875 C 0.675781 2.394531 0.75 2.117188 0.84375 1.890625 L 1.125 0.90625 L 14.546875 -49.375 L 14.828125 -50.359375 C 15.523438 -52.828125 16.945312 -54.0625 19.09375 -54.0625 C 20.300781 -54.0625 21.3125 -53.664062 22.125 -52.875 C 22.945312 -52.082031 23.359375 -51.078125 23.359375 -49.859375 C 23.359375 -49.253906 23.289062 -48.671875 23.15625 -48.109375 L 23.015625 -47.625 L 9.4375 3.078125 Z M 9.15625 4.125 "/></g></g></g><g fill="#3b3a35" fill-opacity="1"><g transform="translate(325.924204, 328.330495)"><g><path d="M 3.5 -7.6875 L 27.6875 -18.46875 L 27.6875 -18.609375 L 3.5 -29.4375 L 3.5 -36.640625 L 35.171875 -21.75 L 35.171875 -15.3125 L 3.5 -0.484375 Z M 3.5 -7.6875 "/></g></g></g></svg>